spectral-medium.ufo
<glyph name="exclam" format="2">
  <advance width="254.42857142857142"/>
  <unicode hex="0021"/>
  <outline>
    <contour>
      <point x="115.71428571428571" y="204.28571428571428" type="line"/>
      <point x="138.57142857142858" y="204.28571428571428" type="line"/>
      <point x="187.71428571428572" y="660.0" type="line"/>
      <point x="66.71428571428572" y="660.0" type="line"/>
    </contour>
    <contour>
      <point x="127.14285714285714" y="-5.0" type="curve" smooth="yes"/>
      <point x="161.0" y="-5.0"/>
      <point x="191.28571428571428" y="25.285714285714285"/>
      <point x="191.28571428571428" y="59.14285714285714" type="curve" smooth="yes"/>
      <point x="191.28571428571428" y="93.85714285714286"/>
      <point x="161.0" y="123.28571428571428"/>
      <point x="127.14285714285714" y="123.28571428571428" type="curve" smooth="yes"/>
      <point x="92.42857142857143" y="123.28571428571428"/>
      <point x="63.0" y="93.85714285714286"/>
      <point x="63.0" y="59.14285714285714" type="curve" smooth="yes"/>
      <point x="63.0" y="25.285714285714285"/>
      <point x="92.42857142857143" y="-5.0"/>
    </contour>
  </outline>
</glyph>
<glyph name="numbersign" format="2">
  <advance width="514.2857142857143"/>
  <unicode hex="0023"/>
  <outline>
    <contour>
      <point x="46.857142857142854" y="0.0" type="line"/>
      <point x="97.42857142857143" y="0.0" type="line"/>
      <point x="289.42857142857144" y="660.0" type="line"/>
      <point x="238.85714285714286" y="660.0" type="line"/>
    </contour>
    <contour>
      <point x="226.85714285714286" y="0.0" type="line"/>
      <point x="277.42857142857144" y="0.0" type="line"/>
      <point x="469.42857142857144" y="660.0" type="line"/>
      <point x="418.85714285714283" y="660.0" type="line"/>
    </contour>
    <contour>
      <point x="66.14285714285714" y="402.7142857142857" type="line"/>
      <point x="506.14285714285717" y="402.7142857142857" type="line"/>
      <point x="506.14285714285717" y="450.2857142857143" type="line"/>
      <point x="66.14285714285714" y="450.2857142857143" type="line"/>
    </contour>
    <contour>
      <point x="8.142857142857142" y="202.71428571428572" type="line"/>
      <point x="448.14285714285717" y="202.71428571428572" type="line"/>
      <point x="448.14285714285717" y="250.28571428571428" type="line"/>
      <point x="8.142857142857142" y="250.28571428571428" type="line"/>
    </contour>
  </outline>
</glyph>
<glyph name="dollar" format="2">
  <advance width="514.2857142857143"/>
  <unicode hex="0024"/>
  <outline>
    <contour>
      <point x="248.28571428571428" y="-10.0" type="curve" smooth="yes"/>
      <point x="363.57142857142856" y="-10.0"/>
      <point x="466.7142857142857" y="67.47368421052632"/>
      <point x="466.7142857142857" y="182.14285714285714" type="curve" smooth="yes"/>
      <point x="466.7142857142857" y="277.32804232804233"/>
      <point x="419.4095020247488" y="323.7212824020192"/>
      <point x="283.85714285714283" y="385.0" type="curve" smooth="yes"/>
      <point x="173.43089929828653" y="434.90835267701664"/>
      <point x="149.14285714285714" y="464.3505402160864"/>
      <point x="149.14285714285714" y="520.8571428571429" type="curve" smooth="yes"/>
      <point x="149.14285714285714" y="578.2186948853615"/>
      <point x="197.14285714285714" y="621.0"/>
      <point x="267.0" y="621.0" type="curve" smooth="yes"/>
      <point x="334.05494505494505" y="621.0"/>
      <point x="374.14285714285717" y="594.0"/>
      <point x="374.14285714285717" y="540.0" type="curve" smooth="yes"/>
      <point x="374.14285714285717" y="513.0" type="line"/>
      <point x="379.14285714285717" y="509.0" type="line"/>
      <point x="411.42857142857144" y="509.0" type="line" smooth="yes"/>
      <point x="427.42857142857144" y="509.0"/>
      <point x="449.85714285714283" y="515.0"/>
      <point x="449.85714285714283" y="542.0" type="curve" smooth="yes"/>
      <point x="449.85714285714283" y="573.0"/>
      <point x="432.57142857142856" y="603.2857142857143"/>
      <point x="399.57142857142856" y="631.5714285714286" type="curve" smooth="yes"/>
      <point x="373.88545587439376" y="653.5872884987217"/>
      <point x="329.0" y="670.0"/>
      <point x="267.7142857142857" y="670.0" type="curve" smooth="yes"/>
      <point x="161.71428571428572" y="670.0"/>
      <point x="57.42857142857143" y="577.3943950786056"/>
      <point x="57.42857142857143" y="483.85714285714283" type="curve" smooth="yes"/>
      <point x="57.42857142857143" y="402.011315417256"/>
      <point x="98.58058418413923" y="352.33939747584884"/>
      <point x="208.42857142857142" y="303.57142857142856" type="curve" smooth="yes"/>
      <point x="352.5787890770608" y="238.99703461643594"/>
      <point x="379.0" y="213.2363050483351"/>
      <point x="379.0" y="147.71428571428572" type="curve" smooth="yes"/>
      <point x="379.0" y="79.24738675958189"/>
      <point x="326.42857142857144" y="38.0"/>
      <point x="248.57142857142858" y="38.0" type="curve" smooth="yes"/>
      <point x="170.14285714285714" y="38.0"/>
      <point x="126.42857142857143" y="86.42857142857143"/>
      <point x="126.42857142857143" y="141.0" type="curve" smooth="yes"/>
      <point x="126.42857142857143" y="168.0" type="line"/>
      <point x="121.42857142857143" y="172.0" type="line"/>
      <point x="89.71428571428571" y="172.0" type="line" smooth="yes"/>
      <point x="73.71428571428571" y="172.0"/>
      <point x="50.714285714285715" y="167.0"/>
      <point x="50.714285714285715" y="140.0" type="curve" smooth="yes"/>
      <point x="50.714285714285715" y="109.0"/>
      <point x="66.71428571428572" y="71.0"/>
      <point x="99.71428571428572" y="43.0" type="curve" smooth="yes"/>
      <point x="127.57142857142857" y="17.142857142857142"/>
      <point x="192.28571428571428" y="-10.0"/>
    </contour>
    <contour>
      <point x="195.42857142857142" y="-80.0" type="line"/>
      <point x="231.28571428571428" y="-80.0" type="line"/>
      <point x="231.28571428571428" y="740.0" type="line"/>
      <point x="195.42857142857142" y="740.0" type="line"/>
    </contour>
    <contour>
      <point x="292.42857142857144" y="-80.0" type="line"/>
      <point x="328.2857142857143" y="-80.0" type="line"/>
      <point x="328.2857142857143" y="740.0" type="line"/>
      <point x="292.42857142857144" y="740.0" type="line"/>
    </contour>
  </outline>
</glyph>
<glyph name="ampersand" format="2">
  <advance width="711.5714285714286"/>
  <unicode hex="0026"/>
  <outline>
    <contour>
      <point x="512.7142857142857" y="0.0" type="line"/>
      <point x="689.2857142857143" y="0.0" type="line"/>
      <point x="689.2857142857143" y="16.0" type="line"/>
      <point x="606.2857142857143" y="52.0" type="line"/>
      <point x="312.2857142857143" y="346.0" type="line" smooth="yes"/>
      <point x="218.71428571428572" y="439.0"/>
      <point x="179.28571428571428" y="477.2857142857143"/>
      <point x="179.28571428571428" y="536.2857142857143" type="curve" smooth="yes"/>
      <point x="179.28571428571428" y="590.5714285714286"/>
      <point x="214.35108958842858" y="625.0"/>
      <point x="261.2857142857143" y="625.0" type="curve" smooth="yes"/>
      <point x="310.3385093167143" y="625.0"/>
      <point x="343.14285714285717" y="590.0"/>
      <point x="343.14285714285717" y="539.0" type="curve" smooth="yes"/>
      <point x="343.14285714285717" y="481.0"/>
      <point x="305.31367364057144" y="442.02302535114285"/>
      <point x="241.28571428571428" y="396.0" type="curve"/>
      <point x="267.42857142857144" y="374.57142857142856" type="line"/>
      <point x="379.589490405" y="434.2902016977143"/>
      <point x="440.0" y="478.0"/>
      <point x="440.0" y="540.1428571428571" type="curve" smooth="yes"/>
      <point x="440.0" y="616.2857142857143"/>
      <point x="376.31292517" y="670.0"/>
      <point x="269.14285714285717" y="670.0" type="curve" smooth="yes"/>
      <point x="158.21892393314286" y="670.0"/>
      <point x="81.14285714285714" y="588.1428571428571"/>
      <point x="81.14285714285714" y="511.14285714285717" type="curve" smooth="yes"/>
      <point x="81.14285714285714" y="436.7142857142857"/>
      <point x="106.85714285714286" y="406.42857142857144"/>
      <point x="252.57142857142856" y="260.57142857142856" type="curve" smooth="yes"/>
    </contour>
    <contour>
      <point x="220.57142857142856" y="-10.0" type="curve" smooth="yes"/>
      <point x="415.2857142857143" y="-10.0"/>
      <point x="517.4285714285714" y="163.42857142857142"/>
      <point x="629.7142857142857" y="419.42857142857144" type="curve"/>
      <point x="599.7142857142857" y="394.42857142857144" type="line"/>
      <point x="708.7142857142857" y="441.42857142857144" type="line"/>
      <point x="708.7142857142857" y="457.42857142857144" type="line"/>
      <point x="468.57142857142856" y="457.42857142857144" type="line"/>
      <point x="468.57142857142856" y="441.42857142857144" type="line"/>
      <point x="566.5714285714286" y="402.42857142857144" type="line"/>
      <point x="493.85714285714283" y="183.0"/>
      <point x="399.42857142857144" y="56.42857142857143"/>
      <point x="263.2857142857143" y="56.42857142857143" type="curve" smooth="yes"/>
      <point x="186.502606882" y="56.42857142857143"/>
      <point x="126.14285714285714" y="105.349471831"/>
      <point x="126.14285714285714" y="189.71428571428572" type="curve" smooth="yes"/>
      <point x="126.14285714285714" y="252.5400594847143"/>
      <point x="135.19656088228572" y="286.0470997835714"/>
      <point x="205.14285714285714" y="339.14285714285717" type="curve"/>
      <point x="180.57142857142858" y="361.57142857142856" type="line"/>
      <point x="69.85714285714286" y="297.85714285714283"/>
      <point x="24.0" y="230.85714285714286"/>
      <point x="24.0" y="161.71428571428572" type="curve" smooth="yes"/>
      <point x="24.0" y="57.42857142857143"/>
      <point x="102.85714285714286" y="-10.0"/>
    </contour>
  </outline>
</glyph>
<glyph name="quotesingle" format="2">
  <advance width="250.0"/>
  <unicode hex="0027"/>
  <outline>
    <contour>
      <point x="114.42857142857143" y="490.0" type="line"/>
      <point x="135.57142857142856" y="490.0" type="line"/>
      <point x="171.42857142857142" y="740.0" type="line"/>
      <point x="78.57142857142857" y="740.0" type="line"/>
    </contour>
  </outline>
</glyph>
<glyph name="parenleft" format="2">
  <advance width="252.85714285714286"/>
  <unicode hex="0028"/>
  <outline>
    <contour>
      <point x="224.0" y="-150.0" type="curve"/>
      <point x="245.71428571428572" y="-150.0" type="line"/>
      <point x="245.71428571428572" y="-147.0" type="line"/>
      <point x="165.57077228571427" y="-16.766790678614285"/>
      <point x="122.0" y="112.0"/>
      <point x="122.0" y="295.0" type="curve" smooth="yes"/>
      <point x="122.0" y="478.0"/>
      <point x="165.56766574471428" y="608.7654080487143"/>
      <point x="245.71428571428572" y="737.0" type="curve"/>
      <point x="245.71428571428572" y="740.0" type="line"/>
      <point x="224.0" y="740.0" type="line"/>
      <point x="115.85714285714286" y="608.5714285714286"/>
      <point x="53.57142857142857" y="460.0"/>
      <point x="53.57142857142857" y="295.0" type="curve" smooth="yes"/>
      <point x="53.57142857142857" y="130.0"/>
      <point x="115.85714285714286" y="-18.571428571428573"/>
    </contour>
  </outline>
</glyph>
<glyph name="parenright" format="2">
  <advance width="252.85714285714286"/>
  <unicode hex="0029"/>
  <outline>
    <contour>
      <point x="7.142857142857143" y="-150.0" type="line"/>
      <point x="28.857142857142858" y="-150.0" type="line"/>
      <point x="137.0" y="-18.571428571428573"/>
      <point x="199.28571428571428" y="130.0"/>
      <point x="199.28571428571428" y="295.0" type="curve" smooth="yes"/>
      <point x="199.28571428571428" y="460.0"/>
      <point x="137.0" y="608.5714285714286"/>
      <point x="28.857142857142858" y="740.0" type="curve"/>
      <point x="7.142857142857143" y="740.0" type="line"/>
      <point x="7.142857142857143" y="737.0" type="line"/>
      <point x="87.28571428571429" y="608.7142857142857"/>
      <point x="130.85714285714286" y="478.0"/>
      <point x="130.85714285714286" y="295.0" type="curve" smooth="yes"/>
      <point x="130.85714285714286" y="112.0"/>
      <point x="87.28571428571429" y="-16.714285714285715"/>
      <point x="7.142857142857143" y="-147.0" type="curve"/>
    </contour>
  </outline>
</glyph>
<glyph name="asterisk" format="2">
  <advance width="361.42857142857144"/>
  <unicode hex="002A"/>
  <outline>
    <contour>
      <point x="58.85714285714286" y="469.14285714285717" type="line"/>
      <point x="114.0" y="431.0" type="line"/>
      <point x="180.71428571428572" y="555.5714285714286" type="line"/>
      <point x="247.42857142857142" y="431.0" type="line"/>
      <point x="302.57142857142856" y="469.14285714285717" type="line"/>
      <point x="200.14285714285714" y="573.8571428571429" type="line"/>
      <point x="342.2857142857143" y="598.1428571428571" type="line"/>
      <point x="321.0" y="661.0" type="line"/>
      <point x="192.0" y="598.4285714285714" type="line"/>
      <point x="212.85714285714286" y="740.0" type="line"/>
      <point x="148.57142857142858" y="740.0" type="line"/>
      <point x="169.42857142857142" y="598.4285714285714" type="line"/>
      <point x="40.42857142857143" y="661.0" type="line"/>
      <point x="19.142857142857142" y="598.1428571428571" type="line"/>
      <point x="161.28571428571428" y="573.8571428571429" type="line"/>
    </contour>
  </outline>
</glyph>
<glyph name="plus" format="2">
  <advance width="514.2857142857143"/>
  <unicode hex="002B"/>
  <outline>
    <contour>
      <point x="47.14285714285714" y="246.42857142857142" type="line"/>
      <point x="467.14285714285717" y="246.42857142857142" type="line"/>
      <point x="467.14285714285717" y="297.57142857142856" type="line"/>
      <point x="47.14285714285714" y="297.57142857142856" type="line"/>
    </contour>
    <contour>
      <point x="230.42857142857142" y="62.0" type="line"/>
      <point x="283.85714285714283" y="62.0" type="line"/>
      <point x="283.85714285714283" y="482.0" type="line"/>
      <point x="230.42857142857142" y="482.0" type="line"/>
    </contour>
  </outline>
</glyph>
<glyph name="comma" format="2">
  <advance width="254.28571428571428"/>
  <unicode hex="002C"/>
  <outline>
    <contour>
      <point x="59.714285714285715" y="-206.85714285714286" type="line"/>
      <point x="164.14285714285714" y="-160.28571428571428"/>
      <point x="204.14285714285714" y="-92.85714285714286"/>
      <point x="204.14285714285714" y="-21.714285714285715" type="curve" smooth="yes"/>
      <point x="204.14285714285714" y="29.285714285714285"/>
      <point x="179.14285714285714" y="75.71428571428571"/>
      <point x="135.42857142857142" y="100.57142857142857" type="curve" smooth="yes"/>
      <point x="124.42857142857143" y="106.57142857142857"/>
      <point x="116.42857142857143" y="109.57142857142857"/>
      <point x="110.42857142857143" y="109.57142857142857" type="curve" smooth="yes"/>
      <point x="99.42857142857143" y="109.57142857142857"/>
      <point x="94.57142857142857" y="102.71428571428572"/>
      <point x="85.42857142857143" y="87.57142857142857" type="curve" smooth="yes"/>
      <point x="53.42857142857143" y="33.42857142857143" type="line"/>
      <point x="56.57142857142857" y="22.857142857142858" type="line"/>
      <point x="90.57142857142857" y="4.571428571428572" type="line" smooth="yes"/>
      <point x="122.85714285714286" y="-13.285714285714285"/>
      <point x="141.0" y="-36.857142857142854"/>
      <point x="141.0" y="-74.28571428571429" type="curve" smooth="yes"/>
      <point x="141.0" y="-114.85714285714286"/>
      <point x="117.85714285714286" y="-153.0"/>
      <point x="59.714285714285715" y="-183.57142857142856" type="curve"/>
    </contour>
  </outline>
</glyph>
<glyph name="hyphen" format="2">
  <advance width="373.57142857142856"/>
  <unicode hex="002D"/>
  <outline>
    <contour>
      <point x="49.285714285714285" y="222.0" type="line"/>
      <point x="324.2857142857143" y="222.0" type="line"/>
      <point x="324.2857142857143" y="292.0" type="line"/>
      <point x="49.285714285714285" y="292.0" type="line"/>
    </contour>
  </outline>
</glyph>
<glyph name="period" format="2">
  <advance width="254.28571428571428"/>
  <unicode hex="002E"/>
  <outline>
    <contour>
      <point x="127.14285714285714" y="-5.0" type="curve" smooth="yes"/>
      <point x="161.85714285714286" y="-5.0"/>
      <point x="191.28571428571428" y="24.428571428571427"/>
      <point x="191.28571428571428" y="59.14285714285714" type="curve" smooth="yes"/>
      <point x="191.28571428571428" y="93.85714285714286"/>
      <point x="161.85714285714286" y="123.28571428571428"/>
      <point x="127.14285714285714" y="123.28571428571428" type="curve" smooth="yes"/>
      <point x="92.42857142857143" y="123.28571428571428"/>
      <point x="63.0" y="93.85714285714286"/>
      <point x="63.0" y="59.14285714285714" type="curve" smooth="yes"/>
      <point x="63.0" y="24.428571428571427"/>
      <point x="92.42857142857143" y="-5.0"/>
    </contour>
  </outline>
</glyph>
<glyph name="zero" format="2">
  <advance width="514.2857142857143"/>
  <unicode hex="0030"/>
  <outline>
    <contour>
      <point x="257.14285714285717" y="-10.0" type="curve" smooth="yes"/>
      <point x="388.57142857142856" y="-10.0"/>
      <point x="481.57142857142856" y="135.0"/>
      <point x="481.57142857142856" y="330.0" type="curve" smooth="yes"/>
      <point x="481.57142857142856" y="540.0"/>
      <point x="399.57142857142856" y="670.0"/>
      <point x="257.14285714285717" y="670.0" type="curve" smooth="yes"/>
      <point x="124.85714285714286" y="670.0"/>
      <point x="32.85714285714286" y="525.0"/>
      <point x="32.85714285714286" y="330.0" type="curve" smooth="yes"/>
      <point x="32.85714285714286" y="120.0"/>
      <point x="114.85714285714286" y="-10.0"/>
    </contour>
    <contour>
      <point x="277.14285714285717" y="37.42857142857143" type="curve" smooth="yes"/>
      <point x="184.28571428571428" y="37.42857142857143"/>
      <point x="139.85714285714286" y="166.71428571428572"/>
      <point x="139.85714285714286" y="363.0" type="curve" smooth="yes"/>
      <point x="139.85714285714286" y="514.7142857142857"/>
      <point x="176.42857142857142" y="623.4285714285714"/>
      <point x="241.0" y="623.4285714285714" type="curve" smooth="yes"/>
      <point x="331.14285714285717" y="623.4285714285714"/>
      <point x="374.57142857142856" y="494.2857142857143"/>
      <point x="374.57142857142856" y="299.0" type="curve" smooth="yes"/>
      <point x="374.57142857142856" y="147.85714285714286"/>
      <point x="339.7142857142857" y="37.42857142857143"/>
    </contour>
  </outline>
</glyph>
<glyph name="one" format="2">
  <advance width="514.2857142857143"/>
  <unicode hex="0031"/>
  <outline>
    <contour>
      <point x="151.71428571428572" y="0.0" type="line"/>
      <point x="423.57142857142856" y="0.0" type="line"/>
      <point x="423.57142857142856" y="16.0" type="line"/>
      <point x="342.2857142857143" y="54.85714285714286" type="line"/>
      <point x="342.2857142857143" y="660.0" type="line"/>
      <point x="312.2857142857143" y="660.0" type="line"/>
      <point x="70.14285714285714" y="510.0" type="line"/>
      <point x="70.14285714285714" y="473.7142857142857" type="line"/>
      <point x="243.0" y="558.7142857142857" type="line"/>
      <point x="243.0" y="54.85714285714286" type="line"/>
      <point x="151.71428571428572" y="16.0" type="line"/>
    </contour>
  </outline>
</glyph>
<glyph name="two" format="2">
  <advance width="514.2857142857143"/>
  <unicode hex="0032"/>
  <outline>
    <contour>
      <point x="52.0" y="0.0" type="line"/>
      <point x="466.2857142857143" y="0.0" type="line"/>
      <point x="476.2857142857143" y="186.71428571428572" type="line"/>
      <point x="460.2857142857143" y="186.71428571428572" type="line"/>
      <point x="408.42857142857144" y="89.14285714285714" type="line"/>
      <point x="134.57142857142856" y="89.14285714285714" type="line"/>
      <point x="134.57142857142856" y="57.14285714285714" type="line"/>
      <point x="401.7142857142857" y="339.7142857142857"/>
      <point x="459.2857142857143" y="380.0"/>
      <point x="459.2857142857143" y="493.0" type="curve" smooth="yes"/>
      <point x="459.2857142857143" y="590.4285714285714"/>
      <point x="382.42857142857144" y="670.0"/>
      <point x="276.85714285714283" y="670.0" type="curve" smooth="yes"/>
      <point x="197.71428571428572" y="670.0"/>
      <point x="159.57142857142858" y="643.8571428571429"/>
      <point x="107.42857142857143" y="606.7142857142857" type="curve" smooth="yes"/>
      <point x="62.285714285714285" y="574.4285714285714"/>
      <point x="41.0" y="536.1428571428571"/>
      <point x="41.0" y="500.14285714285717" type="curve" smooth="yes"/>
      <point x="41.0" y="463.14285714285717"/>
      <point x="54.0" y="458.14285714285717"/>
      <point x="81.0" y="458.14285714285717" type="curve" smooth="yes"/>
      <point x="132.28571428571428" y="458.14285714285717" type="line"/>
      <point x="137.71428571428572" y="465.57142857142856" type="line"/>
      <point x="137.71428571428572" y="511.14285714285717" type="line" smooth="yes"/>
      <point x="137.71428571428572" y="584.2857142857143"/>
      <point x="175.28571428571428" y="622.2857142857143"/>
      <point x="243.0" y="622.2857142857143" type="curve" smooth="yes"/>
      <point x="303.7142857142857" y="622.2857142857143"/>
      <point x="348.0" y="572.2857142857143"/>
      <point x="348.0" y="494.57142857142856" type="curve" smooth="yes"/>
      <point x="348.0" y="383.0"/>
      <point x="337.2857142857143" y="351.2857142857143"/>
      <point x="52.0" y="27.857142857142858" type="curve"/>
    </contour>
  </outline>
</glyph>
<glyph name="three" format="2">
  <advance width="514.2857142857143"/>
  <unicode hex="0033"/>
  <outline>
    <contour>
      <point x="249.42857142857142" y="-10.0" type="curve" smooth="yes"/>
      <point x="379.0" y="-10.0"/>
      <point x="488.85714285714283" y="75.28571428571429"/>
      <point x="488.85714285714283" y="176.71428571428572" type="curve" smooth="yes"/>
      <point x="488.85714285714283" y="291.42857142857144"/>
      <point x="399.85714285714283" y="363.2857142857143"/>
      <point x="228.28571428571428" y="363.2857142857143" type="curve"/>
      <point x="221.42857142857142" y="349.0" type="line"/>
      <point x="356.2857142857143" y="349.0"/>
      <point x="453.85714285714283" y="422.85714285714283"/>
      <point x="453.85714285714283" y="512.2857142857143" type="curve" smooth="yes"/>
      <point x="453.85714285714283" y="603.4285714285714"/>
      <point x="374.0" y="670.0"/>
      <point x="267.85714285714283" y="670.0" type="curve" smooth="yes"/>
      <point x="208.42857142857142" y="670.0"/>
      <point x="171.14285714285714" y="655.4285714285714"/>
      <point x="123.42857142857143" y="625.2857142857143" type="curve" smooth="yes"/>
      <point x="75.85714285714286" y="596.7142857142857"/>
      <point x="52.714285714285715" y="559.8571428571429"/>
      <point x="52.714285714285715" y="525.0" type="curve" smooth="yes"/>
      <point x="52.714285714285715" y="493.14285714285717"/>
      <point x="65.71428571428571" y="489.0"/>
      <point x="91.85714285714286" y="489.0" type="curve" smooth="yes"/>
      <point x="139.71428571428572" y="489.0" type="line"/>
      <point x="147.71428571428572" y="497.2857142857143" type="line"/>
      <point x="147.71428571428572" y="535.1428571428571" type="line"/>
      <point x="147.71428571428572" y="589.077601411"/>
      <point x="187.0" y="624.4285714285714"/>
      <point x="242.42857142857142" y="624.4285714285714" type="curve" smooth="yes"/>
      <point x="306.42857142857144" y="624.4285714285714"/>
      <point x="342.57142857142856" y="588.5714285714286"/>
      <point x="342.57142857142856" y="506.0" type="curve" smooth="yes"/>
      <point x="342.57142857142856" y="419.0"/>
      <point x="279.0" y="363.7142857142857"/>
      <point x="187.57142857142858" y="363.7142857142857" type="curve"/>
      <point x="155.14285714285714" y="363.7142857142857" type="line"/>
      <point x="155.14285714285714" y="318.85714285714283" type="line"/>
      <point x="212.71428571428572" y="318.85714285714283" type="line" smooth="yes"/>
      <point x="335.2857142857143" y="318.85714285714283"/>
      <point x="376.57142857142856" y="263.0"/>
      <point x="376.57142857142856" y="172.0" type="curve" smooth="yes"/>
      <point x="376.57142857142856" y="91.71428571428571"/>
      <point x="330.0072886297143" y="35.714285714285715"/>
      <point x="248.14285714285714" y="35.714285714285715" type="curve" smooth="yes"/>
      <point x="167.37788018428571" y="35.714285714285715"/>
      <point x="129.0" y="67.94324853228571"/>
      <point x="129.0" y="113.57142857142857" type="curve" smooth="yes"/>
      <point x="129.0" y="147.0" type="line"/>
      <point x="121.42857142857143" y="154.85714285714286" type="line"/>
      <point x="70.57142857142857" y="154.85714285714286" type="line" smooth="yes"/>
      <point x="46.142857142857146" y="154.85714285714286"/>
      <point x="34.0" y="150.71428571428572"/>
      <point x="34.0" y="121.42857142857143" type="curve" smooth="yes"/>
      <point x="34.0" y="91.42857142857143"/>
      <point x="54.857142857142854" y="63.0"/>
      <point x="92.0" y="35.714285714285715" type="curve" smooth="yes"/>
      <point x="135.14285714285714" y="4.0"/>
      <point x="186.71428571428572" y="-10.0"/>
    </contour>
  </outline>
</glyph>
<glyph name="four" format="2">
  <advance width="514.2857142857143"/>
  <unicode hex="0034"/>
  <outline>
    <contour>
      <point x="192.0" y="0.0" type="line"/>
      <point x="463.85714285714283" y="0.0" type="line"/>
      <point x="463.85714285714283" y="16.0" type="line"/>
      <point x="382.57142857142856" y="54.85714285714286" type="line"/>
      <point x="382.57142857142856" y="660.0" type="line"/>
      <point x="352.57142857142856" y="660.0" type="line"/>
      <point x="9.714285714285714" y="211.0" type="line"/>
      <point x="9.714285714285714" y="188.71428571428572" type="line"/>
      <point x="501.57142857142856" y="188.71428571428572" type="line"/>
      <point x="501.57142857142856" y="258.57142857142856" type="line"/>
      <point x="74.14285714285714" y="258.57142857142856" type="line"/>
      <point x="75.57142857142857" y="218.42857142857142" type="line"/>
      <point x="320.0" y="548.8571428571429" type="line"/>
      <point x="283.2857142857143" y="548.8571428571429" type="line"/>
      <point x="283.2857142857143" y="54.85714285714286" type="line"/>
      <point x="192.0" y="16.0" type="line"/>
    </contour>
  </outline>
</glyph>
<glyph name="five" format="2">
  <advance width="514.2857142857143"/>
  <unicode hex="0035"/>
  <outline>
    <contour>
      <point x="202.28571428571428" y="-10.0" type="curve" smooth="yes"/>
      <point x="354.3931256712857" y="-10.0"/>
      <point x="464.57142857142856" y="83.84817692767484"/>
      <point x="464.57142857142856" y="230.85714285714286" type="curve" smooth="yes"/>
      <point x="464.57142857142856" y="333.68991198375085"/>
      <point x="394.0" y="434.0"/>
      <point x="199.42857142857144" y="434.0" type="curve" smooth="yes"/>
      <point x="175.0" y="434.0"/>
      <point x="152.71428571428572" y="432.7142857142857"/>
      <point x="128.71428571428572" y="430.7142857142857" type="curve"/>
      <point x="136.0" y="402.7142857142857" type="line"/>
      <point x="136.0" y="619.2857142857143" type="line"/>
      <point x="121.0" y="577.2857142857143" type="line"/>
      <point x="414.42857142857144" y="577.2857142857143" type="line"/>
      <point x="414.42857142857144" y="660.0" type="line"/>
      <point x="86.71428571428571" y="660.0" type="line"/>
      <point x="86.71428571428571" y="337.2857142857143" type="line"/>
      <point x="123.57142857142857" y="343.2857142857143"/>
      <point x="154.14285714285714" y="346.2857142857143"/>
      <point x="183.28571428571428" y="346.2857142857143" type="curve" smooth="yes"/>
      <point x="331.0" y="346.2857142857143"/>
      <point x="377.42857142857144" y="273.04566744725446"/>
      <point x="377.42857142857144" y="189.57142857142858" type="curve" smooth="yes"/>
      <point x="377.42857142857144" y="97.133653866"/>
      <point x="317.7142857142857" y="38.285714285714285"/>
      <point x="239.85714285714286" y="38.285714285714285" type="curve" smooth="yes"/>
      <point x="186.6406926407143" y="38.285714285714285"/>
      <point x="153.8347202997143" y="62.550450754371425"/>
      <point x="133.85714285714286" y="97.42857142857143" type="curve" smooth="yes"/>
      <point x="123.57142857142857" y="115.85714285714286" type="line"/>
      <point x="112.71428571428572" y="115.85714285714286" type="line"/>
      <point x="73.71428571428571" y="85.85714285714286" type="line" smooth="yes"/>
      <point x="61.714285714285715" y="76.85714285714286"/>
      <point x="55.714285714285715" y="67.85714285714286"/>
      <point x="55.714285714285715" y="58.857142857142854" type="curve" smooth="yes"/>
      <point x="55.714285714285715" y="52.857142857142854"/>
      <point x="58.57142857142857" y="46.0"/>
      <point x="63.714285714285715" y="38.857142857142854" type="curve" smooth="yes"/>
      <point x="86.01147019057143" y="7.049602794402857"/>
      <point x="135.15300942714285" y="-10.0"/>
    </contour>
  </outline>
</glyph>
<glyph name="six" format="2">
  <advance width="514.2857142857143"/>
  <unicode hex="0036"/>
  <outline>
    <contour>
      <point x="261.57142857142856" y="-10.0" type="curve" smooth="yes"/>
      <point x="410.85714285714283" y="-10.0"/>
      <point x="484.7142857142857" y="93.42857142857143"/>
      <point x="484.7142857142857" y="198.14285714285714" type="curve" smooth="yes"/>
      <point x="484.7142857142857" y="307.2857142857143"/>
      <point x="416.2857142857143" y="389.42857142857144"/>
      <point x="308.1428571428571" y="389.42857142857144" type="curve" smooth="yes"/>
      <point x="204.42857142857144" y="389.42857142857144"/>
      <point x="133.71428571428572" y="319.42857142857144"/>
      <point x="110.71428571428571" y="221.42857142857142" type="curve"/>
      <point x="120.71428571428571" y="187.71428571428572" type="line"/>
      <point x="130.57021295914285" y="264.2806897547143"/>
      <point x="187.500736377" y="320.7142857142857"/>
      <point x="262.14285714285717" y="320.7142857142857" type="curve" smooth="yes"/>
      <point x="339.3885714285714" y="320.7142857142857"/>
      <point x="378.42857142857144" y="270.2102040815714"/>
      <point x="378.42857142857144" y="174.85714285714286" type="curve" smooth="yes"/>
      <point x="378.42857142857144" y="106.79958890028571"/>
      <point x="341.2857142857143" y="36.57142857142857"/>
      <point x="264.14285714285717" y="36.57142857142857" type="curve" smooth="yes"/>
      <point x="198.28571428571428" y="36.57142857142857"/>
      <point x="145.71428571428572" y="98.606957809"/>
      <point x="145.71428571428572" y="243.0" type="curve" smooth="yes"/>
      <point x="145.71428571428572" y="432.984882842"/>
      <point x="246.3703166772857" y="581.9823955421429"/>
      <point x="430.1428571428571" y="639.5714285714286" type="curve"/>
      <point x="430.1428571428571" y="670.0" type="line"/>
      <point x="187.30861312428573" y="607.0036283371429"/>
      <point x="36.42857142857143" y="448.3802863802857"/>
      <point x="36.42857142857143" y="236.42857142857142" type="curve" smooth="yes"/>
      <point x="36.42857142857143" y="93.81502561184286"/>
      <point x="126.28571428571429" y="-10.0"/>
    </contour>
  </outline>
</glyph>
<glyph name="seven" format="2">
  <advance width="514.2857142857143"/>
  <unicode hex="0037"/>
  <outline>
    <contour>
      <point x="89.14285714285714" y="0.0" type="curve"/>
      <point x="207.85714285714286" y="0.0" type="line"/>
      <point x="249.14285714285714" y="207.42857142857144"/>
      <point x="377.14285714285717" y="451.2857142857143"/>
      <point x="471.7142857142857" y="635.7142857142857" type="curve"/>
      <point x="471.7142857142857" y="660.0" type="line"/>
      <point x="53.142857142857146" y="660.0" type="line"/>
      <point x="53.142857142857146" y="571.1428571428571" type="line"/>
      <point x="422.0" y="571.1428571428571" type="line"/>
      <point x="421.2857142857143" y="626.0" type="line"/>
      <point x="209.14285714285714" y="259.42857142857144"/>
      <point x="162.18771750385713" y="172.1056983847143"/>
    </contour>
  </outline>
</glyph>
<glyph name="nine" format="2">
  <advance width="514.2857142857143"/>
  <unicode hex="0039"/>
  <outline>
    <contour>
      <point x="85.0" y="-10.0" type="line"/>
      <point x="327.85714285714283" y="53.0"/>
      <point x="478.7142857142857" y="211.57142857142858"/>
      <point x="478.7142857142857" y="423.57142857142856" type="curve" smooth="yes"/>
      <point x="478.7142857142857" y="566.1428571428571"/>
      <point x="388.85714285714283" y="670.0"/>
      <point x="253.57142857142858" y="670.0" type="curve" smooth="yes"/>
      <point x="104.28571428571429" y="670.0"/>
      <point x="30.42857142857143" y="566.5714285714286"/>
      <point x="30.42857142857143" y="461.85714285714283" type="curve" smooth="yes"/>
      <point x="30.42857142857143" y="352.7142857142857"/>
      <point x="98.85714285714286" y="270.57142857142856"/>
      <point x="207.0" y="270.57142857142856" type="curve" smooth="yes"/>
      <point x="310.7142857142857" y="270.57142857142856"/>
      <point x="381.42857142857144" y="340.57142857142856"/>
      <point x="404.42857142857144" y="438.57142857142856" type="curve"/>
      <point x="394.42857142857144" y="472.2857142857143" type="line"/>
      <point x="384.57142857142856" y="395.7142857142857"/>
      <point x="327.57142857142856" y="339.2857142857143"/>
      <point x="253.0" y="339.2857142857143" type="curve" smooth="yes"/>
      <point x="175.71428571428572" y="339.2857142857143"/>
      <point x="136.71428571428572" y="389.85714285714283"/>
      <point x="136.71428571428572" y="485.14285714285717" type="curve" smooth="yes"/>
      <point x="136.71428571428572" y="553.1428571428571"/>
      <point x="173.85714285714286" y="623.4285714285714"/>
      <point x="251.0" y="623.4285714285714" type="curve" smooth="yes"/>
      <point x="316.85714285714283" y="623.4285714285714"/>
      <point x="369.42857142857144" y="561.4285714285714"/>
      <point x="369.42857142857144" y="417.0" type="curve" smooth="yes"/>
      <point x="369.42857142857144" y="227.0"/>
      <point x="268.7142857142857" y="78.0"/>
      <point x="85.0" y="20.428571428571427" type="curve"/>
    </contour>
  </outline>
</glyph>
<glyph name="less" format="2">
  <advance width="514.2857142857143"/>
  <unicode hex="003C"/>
  <outline>
    <contour>
      <point x="467.14285714285717" y="62.0" type="line"/>
      <point x="467.14285714285717" y="118.42857142857143" type="line"/>
      <point x="77.14285714285714" y="290.42857142857144" type="line"/>
      <point x="77.14285714285714" y="253.57142857142858" type="line"/>
      <point x="467.14285714285717" y="425.57142857142856" type="line"/>
      <point x="467.14285714285717" y="482.0" type="line"/>
      <point x="47.14285714285714" y="297.0" type="line"/>
      <point x="47.14285714285714" y="247.0" type="line"/>
    </contour>
  </outline>
</glyph>
<glyph name="equal" format="2">
  <advance width="514.2857142857143"/>
  <unicode hex="003D"/>
  <outline>
    <contour>
      <point x="47.14285714285714" y="348.42857142857144" type="line"/>
      <point x="467.14285714285717" y="348.42857142857144" type="line"/>
      <point x="467.14285714285717" y="399.57142857142856" type="line"/>
      <point x="47.14285714285714" y="399.57142857142856" type="line"/>
    </contour>
    <contour>
      <point x="47.14285714285714" y="144.42857142857142" type="line"/>
      <point x="467.14285714285717" y="144.42857142857142" type="line"/>
      <point x="467.14285714285717" y="195.57142857142858" type="line"/>
      <point x="47.14285714285714" y="195.57142857142858" type="line"/>
    </contour>
  </outline>
</glyph>
<glyph name="greater" format="2">
  <advance width="514.2857142857143"/>
  <unicode hex="003E"/>
  <outline>
    <contour>
      <point x="47.14285714285714" y="62.0" type="line"/>
      <point x="467.14285714285717" y="247.0" type="line"/>
      <point x="467.14285714285717" y="297.0" type="line"/>
      <point x="47.14285714285714" y="482.0" type="line"/>
      <point x="47.14285714285714" y="425.57142857142856" type="line"/>
      <point x="437.14285714285717" y="253.57142857142858" type="line"/>
      <point x="437.14285714285717" y="290.42857142857144" type="line"/>
      <point x="47.14285714285714" y="118.42857142857143" type="line"/>
    </contour>
  </outline>
</glyph>
<glyph name="question" format="2">
  <advance width="479.0"/>
  <unicode hex="003F"/>
  <outline>
    <contour>
      <point x="198.85714285714286" y="204.28571428571428" type="line"/>
      <point x="221.57142857142858" y="204.28571428571428" type="line"/>
      <point x="238.28571428571428" y="342.14285714285717" type="line"/>
      <point x="215.0" y="275.42857142857144" type="line"/>
      <point x="365.85708814314285" y="331.428570699"/>
      <point x="427.85714285714283" y="402.3320668692857"/>
      <point x="427.85714285714283" y="493.0" type="curve" smooth="yes"/>
      <point x="427.85714285714283" y="591.8761904761428"/>
      <point x="352.68907563028574" y="670.0"/>
      <point x="246.14285714285714" y="670.0" type="curve" smooth="yes"/>
      <point x="179.76020408157143" y="670.0"/>
      <point x="145.12509328285714" y="645.3064994664286"/>
      <point x="98.71428571428571" y="611.7142857142857" type="curve" smooth="yes"/>
      <point x="58.142857142857146" y="583.4285714285714"/>
      <point x="38.285714285714285" y="545.7142857142857"/>
      <point x="38.285714285714285" y="508.7142857142857" type="curve" smooth="yes"/>
      <point x="38.285714285714285" y="474.0"/>
      <point x="50.0" y="469.14285714285717"/>
      <point x="75.14285714285714" y="469.14285714285717" type="curve" smooth="yes"/>
      <point x="123.85714285714286" y="469.14285714285717" type="line"/>
      <point x="132.28571428571428" y="479.57142857142856" type="line"/>
      <point x="132.28571428571428" y="518.2857142857143" type="line" smooth="yes"/>
      <point x="132.28571428571428" y="589.4285714285714"/>
      <point x="164.85714285714286" y="625.5714285714286"/>
      <point x="219.42857142857144" y="625.5714285714286" type="curve" smooth="yes"/>
      <point x="280.85714285714283" y="625.5714285714286"/>
      <point x="329.0" y="585.8214285714286"/>
      <point x="329.0" y="496.14285714285717" type="curve" smooth="yes"/>
      <point x="329.0" y="429.06396588485717"/>
      <point x="272.28432115742856" y="383.42850923528573"/>
      <point x="171.42857142857144" y="352.7142857142857" type="curve"/>
    </contour>
    <contour>
      <point x="209.85714285714286" y="-5.0" type="curve" smooth="yes"/>
      <point x="243.71428571428572" y="-5.0"/>
      <point x="274.0" y="25.285714285714285"/>
      <point x="274.0" y="59.14285714285714" type="curve" smooth="yes"/>
      <point x="274.0" y="93.85714285714286"/>
      <point x="243.71428571428572" y="123.28571428571428"/>
      <point x="209.85714285714286" y="123.28571428571428" type="curve" smooth="yes"/>
      <point x="175.14285714285714" y="123.28571428571428"/>
      <point x="145.71428571428572" y="93.85714285714286"/>
      <point x="145.71428571428572" y="59.14285714285714" type="curve" smooth="yes"/>
      <point x="145.71428571428572" y="25.285714285714285"/>
      <point x="175.14285714285714" y="-5.0"/>
    </contour>
  </outline>
</glyph>
<glyph name="at" format="2">
  <advance width="811.7142857142857"/>
  <unicode hex="0040"/>
  <outline>
    <contour>
      <point x="373.7142857142857" y="-118.0" type="curve" smooth="yes"/>
      <point x="473.85714285714283" y="-118.0"/>
      <point x="548.1428571428571" y="-92.28571428571429"/>
      <point x="618.1428571428571" y="-48.285714285714285" type="curve"/>
      <point x="608.7142857142857" y="-27.0" type="line"/>
      <point x="550.1428571428571" y="-68.14285714285714"/>
      <point x="487.7142857142857" y="-89.71428571428572"/>
      <point x="400.7142857142857" y="-89.71428571428572" type="curve" smooth="yes"/>
      <point x="240.85714285714286" y="-89.71428571428572"/>
      <point x="129.71428571428572" y="11.857142857142858"/>
      <point x="129.71428571428572" y="186.0" type="curve" smooth="yes"/>
      <point x="129.71428571428572" y="379.42857142857144"/>
      <point x="251.85714285714286" y="535.0"/>
      <point x="439.7142857142857" y="535.0" type="curve" smooth="yes"/>
      <point x="598.2857142857143" y="535.0"/>
      <point x="701.5714285714286" y="423.42857142857144"/>
      <point x="701.5714285714286" y="281.0" type="curve" smooth="yes"/>
      <point x="701.5714285714286" y="165.57142857142856"/>
      <point x="633.4285714285714" y="61.85714285714286"/>
      <point x="563.0" y="61.85714285714286" type="curve" smooth="yes"/>
      <point x="532.2857142857143" y="61.85714285714286"/>
      <point x="527.8571428571429" y="75.85714285714286"/>
      <point x="538.2857142857143" y="133.0" type="curve" smooth="yes"/>
      <point x="591.0" y="427.7142857142857" type="line"/>
      <point x="567.5714285714286" y="427.7142857142857" type="line"/>
      <point x="517.8571428571429" y="399.7142857142857" type="line"/>
      <point x="554.7142857142857" y="392.2857142857143" type="line"/>
      <point x="536.8571428571429" y="413.0"/>
      <point x="498.7142857142857" y="429.0"/>
      <point x="456.7142857142857" y="429.0" type="curve" smooth="yes"/>
      <point x="339.0" y="429.0"/>
      <point x="229.57142857142858" y="287.0"/>
      <point x="229.57142857142858" y="139.0" type="curve" smooth="yes"/>
      <point x="229.57142857142858" y="60.857142857142854"/>
      <point x="264.42857142857144" y="21.0"/>
      <point x="310.57142857142856" y="21.0" type="curve" smooth="yes"/>
      <point x="365.0" y="21.0"/>
      <point x="417.85714285714283" y="61.42857142857143"/>
      <point x="470.85714285714283" y="152.28571428571428" type="curve"/>
      <point x="482.7142857142857" y="197.57142857142856" type="line"/>
      <point x="442.42857142857144" y="126.28571428571428"/>
      <point x="394.42857142857144" y="83.85714285714286"/>
      <point x="358.57142857142856" y="83.85714285714286" type="curve" smooth="yes"/>
      <point x="322.42857142857144" y="83.85714285714286"/>
      <point x="310.1428571428571" y="105.57142857142857"/>
      <point x="310.1428571428571" y="175.85714285714286" type="curve" smooth="yes"/>
      <point x="310.1428571428571" y="294.2857142857143"/>
      <point x="363.7142857142857" y="393.7142857142857"/>
      <point x="430.42857142857144" y="393.7142857142857" type="curve" smooth="yes"/>
      <point x="467.0" y="393.7142857142857"/>
      <point x="484.2857142857143" y="373.2857142857143"/>
      <point x="503.57142857142856" y="347.0" type="curve"/>
      <point x="500.85714285714283" y="369.0" type="line"/>
      <point x="456.0" y="114.14285714285714" type="line" smooth="yes"/>
      <point x="445.14285714285717" y="51.42857142857143"/>
      <point x="467.14285714285717" y="21.0"/>
      <point x="524.7142857142857" y="21.0" type="curve" smooth="yes"/>
      <point x="655.4285714285714" y="21.0"/>
      <point x="744.5714285714286" y="146.57142857142858"/>
      <point x="744.5714285714286" y="284.0" type="curve" smooth="yes"/>
      <point x="744.5714285714286" y="445.0"/>
      <point x="635.4285714285714" y="562.0"/>
      <point x="461.7142857142857" y="562.0" type="curve" smooth="yes"/>
      <point x="242.85714285714286" y="562.0"/>
      <point x="67.14285714285714" y="381.14285714285717"/>
      <point x="67.14285714285714" y="167.28571428571428" type="curve" smooth="yes"/>
      <point x="67.14285714285714" y="-4.857142857142857"/>
      <point x="191.71428571428572" y="-118.0"/>
    </contour>
  </outline>
</glyph>
<glyph name="A" format="2">
  <advance width="755.7142857142857"/>
  <unicode hex="0041"/>
  <anchor x="370.7142857142857" y="0.0" name="bottom"/>
  <anchor x="378.2857142857143" y="710.0" name="top"/>
  <anchor x="619.1428571428571" y="0.0" name="right"/>
  <outline>
    <contour>
      <point x="29.714285714285715" y="0.0" type="line"/>
      <point x="245.85714285714286" y="0.0" type="line"/>
      <point x="245.85714285714286" y="16.0" type="line"/>
      <point x="148.14285714285714" y="56.0" type="line"/>
      <point x="152.85714285714286" y="28.0" type="line"/>
      <point x="380.57142857142856" y="590.4285714285714" type="line"/>
      <point x="330.42857142857144" y="590.4285714285714" type="line"/>
      <point x="559.0" y="28.0" type="line"/>
      <point x="571.0" y="58.71428571428571" type="line"/>
      <point x="462.0" y="16.0" type="line"/>
      <point x="462.0" y="0.0" type="line"/>
      <point x="726.0" y="0.0" type="line"/>
      <point x="726.0" y="16.0" type="line"/>
      <point x="620.8571428571429" y="71.71428571428571" type="line"/>
      <point x="668.7142857142857" y="28.0" type="line"/>
      <point x="405.2857142857143" y="665.0" type="line"/>
      <point x="350.2857142857143" y="665.0" type="line"/>
      <point x="83.85714285714286" y="28.0" type="line"/>
      <point x="114.57142857142857" y="61.14285714285714" type="line"/>
      <point x="29.714285714285715" y="16.0" type="line"/>
    </contour>
    <contour>
      <point x="200.28571428571428" y="231.0" type="line"/>
      <point x="530.2857142857143" y="231.0" type="line"/>
      <point x="530.2857142857143" y="286.0" type="line"/>
      <point x="200.28571428571428" y="286.0" type="line"/>
    </contour>
  </outline>
</glyph>
<glyph name="B" format="2">
  <advance width="669.2857142857142"/>
  <unicode hex="0042"/>
  <outline>
    <contour>
      <point x="60.0" y="0.0" type="line"/>
      <point x="245.57142857142856" y="0.0" type="line"/>
      <point x="245.57142857142856" y="660.0" type="line"/>
      <point x="60.0" y="660.0" type="line"/>
      <point x="60.0" y="644.0" type="line"/>
      <point x="141.28571428571428" y="603.7142857142857" type="line"/>
      <point x="141.28571428571428" y="56.285714285714285" type="line"/>
      <point x="60.0" y="16.0" type="line"/>
    </contour>
    <contour>
      <point x="352.0" y="0.0" type="line" smooth="yes"/>
      <point x="506.8571428571429" y="0.0"/>
      <point x="621.8571428571429" y="82.0"/>
      <point x="621.8571428571429" y="192.0" type="curve" smooth="yes"/>
      <point x="621.8571428571429" y="298.0"/>
      <point x="519.7142857142857" y="363.0"/>
      <point x="354.7142857142857" y="363.0" type="curve"/>
      <point x="347.8571428571429" y="348.0" type="line"/>
      <point x="485.1428571428571" y="348.0"/>
      <point x="564.2857142857142" y="426.0"/>
      <point x="564.2857142857142" y="512.0" type="curve" smooth="yes"/>
      <point x="564.2857142857142" y="611.0"/>
      <point x="464.1428571428571" y="660.0"/>
      <point x="328.7142857142857" y="660.0" type="curve" smooth="yes"/>
      <point x="188.42857142857142" y="660.0" type="line"/>
      <point x="188.42857142857142" y="605.0" type="line"/>
      <point x="299.57142857142856" y="605.0" type="line" smooth="yes"/>
      <point x="402.85714285714283" y="605.0"/>
      <point x="454.0" y="563.5714285714286"/>
      <point x="454.0" y="483.42857142857144" type="curve" smooth="yes"/>
      <point x="454.0" y="410.7142857142857"/>
      <point x="398.85714285714283" y="367.2857142857143"/>
      <point x="305.42857142857144" y="367.2857142857143" type="curve" smooth="yes"/>
      <point x="195.28571428571428" y="367.2857142857143" type="line"/>
      <point x="195.28571428571428" y="313.7142857142857" type="line"/>
      <point x="336.85714285714283" y="313.7142857142857" type="line" smooth="yes"/>
      <point x="448.0" y="313.7142857142857"/>
      <point x="510.0" y="274.14285714285717"/>
      <point x="510.0" y="184.71428571428572" type="curve" smooth="yes"/>
      <point x="510.0" y="108.57142857142857"/>
      <point x="447.0" y="55.0"/>
      <point x="343.85714285714283" y="55.0" type="curve" smooth="yes"/>
      <point x="212.42857142857142" y="55.0" type="line"/>
      <point x="212.42857142857142" y="0.0" type="line"/>
    </contour>
  </outline>
</glyph>
<glyph name="C" format="2">
  <advance width="722.4285714285714"/>
  <unicode hex="0043"/>
  <anchor x="389.57142857142856" y="710.0" name="top"/>
  <anchor x="399.42857142857144" y="0.0" name="bottom"/>
  <outline>
    <contour>
      <point x="399.7142857142857" y="-10.0" type="curve" smooth="yes"/>
      <point x="506.57142857142856" y="-10.0"/>
      <point x="566.0" y="10.0"/>
      <point x="623.8571428571429" y="39.714285714285715" type="curve"/>
      <point x="635.7142857142857" y="201.0" type="line"/>
      <point x="618.5714285714286" y="201.0" type="line"/>
      <point x="535.0" y="60.42857142857143" type="line"/>
      <point x="572.7142857142857" y="102.57142857142857" type="line"/>
      <point x="530.0" y="72.85714285714286"/>
      <point x="482.57142857142856" y="41.57142857142857"/>
      <point x="401.14285714285717" y="41.57142857142857" type="curve" smooth="yes"/>
      <point x="274.2857142857143" y="41.57142857142857"/>
      <point x="173.14285714285714" y="151.71428571428572"/>
      <point x="173.14285714285714" y="338.2857142857143" type="curve" smooth="yes"/>
      <point x="173.14285714285714" y="503.85714285714283"/>
      <point x="275.85714285714283" y="620.0"/>
      <point x="414.57142857142856" y="620.0" type="curve" smooth="yes"/>
      <point x="467.42857142857144" y="620.0"/>
      <point x="500.57142857142856" y="601.7142857142857"/>
      <point x="559.1428571428571" y="559.2857142857143" type="curve"/>
      <point x="524.1428571428571" y="601.2857142857143" type="line"/>
      <point x="607.2857142857143" y="444.2857142857143" type="line"/>
      <point x="625.2857142857143" y="444.2857142857143" type="line"/>
      <point x="618.8571428571429" y="622.0" type="line"/>
      <point x="563.6138618865714" y="649.0518963722858"/>
      <point x="516.1428571428571" y="670.0"/>
      <point x="415.0" y="670.0" type="curve" smooth="yes"/>
      <point x="227.14285714285714" y="670.0"/>
      <point x="65.0" y="504.6892160762857"/>
      <point x="65.0" y="313.0" type="curve" smooth="yes"/>
      <point x="65.0" y="127.0"/>
      <point x="193.57142857142858" y="-10.0"/>
    </contour>
  </outline>
</glyph>
<glyph name="E" format="2">
  <advance width="658.8571428571429"/>
  <unicode hex="0045"/>
  <anchor x="339.42857142857144" y="710.0" name="top"/>
  <anchor x="352.2857142857143" y="0.0" name="bottom"/>
  <anchor x="514.1428571428571" y="0.0" name="right"/>
  <outline>
    <contour>
      <point x="60.0" y="0.0" type="line"/>
      <point x="245.57142857142856" y="0.0" type="line"/>
      <point x="245.57142857142856" y="660.0" type="line"/>
      <point x="60.0" y="660.0" type="line"/>
      <point x="60.0" y="644.0" type="line"/>
      <point x="141.28571428571428" y="603.7142857142857" type="line"/>
      <point x="141.28571428571428" y="56.285714285714285" type="line"/>
      <point x="60.0" y="16.0" type="line"/>
    </contour>
    <contour>
      <point x="546.2857142857143" y="487.7142857142857" type="line"/>
      <point x="562.2857142857142" y="487.7142857142857" type="line"/>
      <point x="562.2857142857142" y="660.0" type="line"/>
      <point x="185.57142857142858" y="660.0" type="line"/>
      <point x="185.57142857142858" y="605.0" type="line"/>
      <point x="481.42857142857144" y="605.0" type="line"/>
    </contour>
    <contour>
      <point x="463.2857142857143" y="231.28571428571428" type="line"/>
      <point x="479.2857142857143" y="231.28571428571428" type="line"/>
      <point x="479.2857142857143" y="451.7142857142857" type="line"/>
      <point x="463.2857142857143" y="451.7142857142857" type="line"/>
      <point x="411.85714285714283" y="368.0" type="line"/>
      <point x="193.57142857142856" y="368.0" type="line"/>
      <point x="193.57142857142856" y="313.0" type="line"/>
      <point x="411.85714285714283" y="313.0" type="line"/>
    </contour>
    <contour>
      <point x="590.2857142857142" y="0.0" type="line"/>
      <point x="590.2857142857142" y="187.28571428571428" type="line"/>
      <point x="574.2857142857143" y="187.28571428571428" type="line"/>
      <point x="508.42857142857144" y="55.0" type="line"/>
      <point x="213.57142857142856" y="55.0" type="line"/>
      <point x="213.57142857142856" y="0.0" type="line"/>
    </contour>
  </outline>
</glyph>
<glyph name="F" format="2">
  <advance width="618.0"/>
  <unicode hex="0046"/>
  <outline>
    <contour>
      <point x="60.0" y="0.0" type="line"/>
      <point x="338.42857142857144" y="0.0" type="line"/>
      <point x="338.42857142857144" y="16.0" type="line"/>
      <point x="245.57142857142856" y="56.285714285714285" type="line"/>
      <point x="245.57142857142856" y="660.0" type="line"/>
      <point x="60.0" y="660.0" type="line"/>
      <point x="60.0" y="644.0" type="line"/>
      <point x="141.28571428571428" y="603.7142857142857" type="line"/>
      <point x="141.28571428571428" y="56.285714285714285" type="line"/>
      <point x="60.0" y="16.0" type="line"/>
    </contour>
    <contour>
      <point x="536.2857142857143" y="487.7142857142857" type="line"/>
      <point x="552.2857142857142" y="487.7142857142857" type="line"/>
      <point x="552.2857142857142" y="660.0" type="line"/>
      <point x="177.0" y="660.0" type="line"/>
      <point x="177.0" y="605.0" type="line"/>
      <point x="472.85714285714283" y="605.0" type="line"/>
    </contour>
    <contour>
      <point x="453.2857142857143" y="232.0" type="line"/>
      <point x="469.2857142857143" y="232.0" type="line"/>
      <point x="469.2857142857143" y="451.0" type="line"/>
      <point x="453.2857142857143" y="451.0" type="line"/>
      <point x="401.85714285714283" y="367.2857142857143" type="line"/>
      <point x="185.0" y="367.2857142857143" type="line"/>
      <point x="185.0" y="313.7142857142857" type="line"/>
      <point x="401.85714285714283" y="313.7142857142857" type="line"/>
    </contour>
  </outline>
</glyph>
<glyph name="G" format="2">
  <advance width="765.2857142857143"/>
  <unicode hex="0047"/>
  <anchor x="400.85714285714283" y="710.0" name="top"/>
  <anchor x="413.57142857142856" y="0.0" name="bottom"/>
  <outline>
    <contour>
      <point x="401.14285714285717" y="-10.0" type="curve" smooth="yes"/>
      <point x="487.14285714285717" y="-10.0"/>
      <point x="588.5714285714286" y="23.0"/>
      <point x="649.5714285714286" y="74.0" type="curve"/>
      <point x="649.5714285714286" y="232.14285714285714" type="line"/>
      <point x="720.0" y="276.42857142857144" type="line"/>
      <point x="720.0" y="292.42857142857144" type="line"/>
      <point x="456.2857142857143" y="292.42857142857144" type="line"/>
      <point x="456.2857142857143" y="276.42857142857144" type="line"/>
      <point x="545.2857142857143" y="234.71428571428572" type="line"/>
      <point x="545.2857142857143" y="55.42857142857143" type="line"/>
      <point x="586.1428571428571" y="81.28571428571428" type="line"/>
      <point x="532.5714285714286" y="53.857142857142854"/>
      <point x="481.57142857142856" y="47.285714285714285"/>
      <point x="430.14285714285717" y="47.285714285714285" type="curve" smooth="yes"/>
      <point x="285.2857142857143" y="47.285714285714285"/>
      <point x="170.0" y="161.09655561828572"/>
      <point x="170.0" y="355.42857142857144" type="curve" smooth="yes"/>
      <point x="170.0" y="509.046953047"/>
      <point x="278.42857142857144" y="620.2857142857143"/>
      <point x="425.7142857142857" y="620.2857142857143" type="curve" smooth="yes"/>
      <point x="481.14285714285717" y="620.2857142857143"/>
      <point x="514.0" y="605.4285714285714"/>
      <point x="578.5714285714286" y="559.5714285714286" type="curve"/>
      <point x="541.8571428571429" y="600.7142857142857" type="line"/>
      <point x="630.0" y="454.42857142857144" type="line"/>
      <point x="646.4285714285714" y="454.42857142857144" type="line"/>
      <point x="640.0" y="622.0" type="line"/>
      <point x="582.8571428571429" y="650.0"/>
      <point x="531.5714285714286" y="670.0"/>
      <point x="426.14285714285717" y="670.0" type="curve" smooth="yes"/>
      <point x="229.14285714285714" y="670.0"/>
      <point x="65.28571428571429" y="518.0"/>
      <point x="65.28571428571429" y="313.0" type="curve" smooth="yes"/>
      <point x="65.28571428571429" y="127.0"/>
      <point x="209.14285714285714" y="-10.0"/>
    </contour>
  </outline>
</glyph>
<glyph name="H" format="2">
  <advance width="816.0"/>
  <unicode hex="0048"/>
  <anchor x="408.0" y="710.0" name="top"/>
  <anchor x="408.0" y="0.0" name="bottom"/>
  <outline>
    <contour>
      <point x="60.0" y="0.0" type="line"/>
      <point x="325.1428571428571" y="0.0" type="line"/>
      <point x="325.1428571428571" y="16.0" type="line"/>
      <point x="245.57142857142856" y="56.285714285714285" type="line"/>
      <point x="245.57142857142856" y="603.7142857142857" type="line"/>
      <point x="325.1428571428571" y="644.0" type="line"/>
      <point x="325.1428571428571" y="660.0" type="line"/>
      <point x="60.0" y="660.0" type="line"/>
      <point x="60.0" y="644.0" type="line"/>
      <point x="141.28571428571428" y="603.7142857142857" type="line"/>
      <point x="141.28571428571428" y="56.285714285714285" type="line"/>
      <point x="60.0" y="16.0" type="line"/>
    </contour>
    <contour>
      <point x="193.57142857142858" y="312.85714285714283" type="line"/>
      <point x="623.5714285714286" y="312.85714285714283" type="line"/>
      <point x="623.5714285714286" y="367.85714285714283" type="line"/>
      <point x="193.57142857142858" y="367.85714285714283" type="line"/>
    </contour>
    <contour>
      <point x="490.85714285714283" y="0.0" type="line"/>
      <point x="756.0" y="0.0" type="line"/>
      <point x="756.0" y="16.0" type="line"/>
      <point x="675.0" y="56.285714285714285" type="line"/>
      <point x="675.0" y="603.7142857142857" type="line"/>
      <point x="756.0" y="644.0" type="line"/>
      <point x="756.0" y="660.0" type="line"/>
      <point x="490.85714285714283" y="660.0" type="line"/>
      <point x="490.85714285714283" y="644.0" type="line"/>
      <point x="570.7142857142857" y="603.7142857142857" type="line"/>
      <point x="570.7142857142857" y="56.285714285714285" type="line"/>
      <point x="490.85714285714283" y="16.0" type="line"/>
    </contour>
  </outline>
</glyph>
<glyph name="I" format="2">
  <advance width="395.42857142857144"/>
  <unicode hex="0049"/>
  <anchor x="197.71428571428572" y="710.0" name="top"/>
  <anchor x="197.71428571428572" y="0.0" name="bottom"/>
  <anchor x="216.14285714285714" y="0.0" name="right"/>
  <outline>
    <contour>
      <point x="64.28571428571429" y="0.0" type="line"/>
      <point x="331.1428571428571" y="0.0" type="line"/>
      <point x="331.1428571428571" y="16.0" type="line"/>
      <point x="249.85714285714286" y="56.285714285714285" type="line"/>
      <point x="249.85714285714286" y="603.7142857142857" type="line"/>
      <point x="331.1428571428571" y="644.0" type="line"/>
      <point x="331.1428571428571" y="660.0" type="line"/>
      <point x="64.28571428571429" y="660.0" type="line"/>
      <point x="64.28571428571429" y="644.0" type="line"/>
      <point x="145.57142857142858" y="603.7142857142857" type="line"/>
      <point x="145.57142857142858" y="56.285714285714285" type="line"/>
      <point x="64.28571428571429" y="16.0" type="line"/>
    </contour>
  </outline>
</glyph>
<glyph name="J" format="2">
  <advance width="399.85714285714283"/>
  <unicode hex="004A"/>
  <anchor x="202.14285714285714" y="710.0" name="top"/>
  <outline>
    <contour>
      <point x="48.857142857142854" y="-173.0" type="curve" smooth="yes"/>
      <point x="89.77076411957142" y="-173.0"/>
      <point x="111.0" y="-158.28571428571428"/>
      <point x="166.42857142857142" y="-96.71428571428572" type="curve" smooth="yes"/>
      <point x="222.71428571428572" y="-34.0"/>
      <point x="254.28571428571428" y="90.6364111639"/>
      <point x="254.28571428571428" y="241.28571428571428" type="curve" smooth="yes"/>
      <point x="254.28571428571428" y="603.7142857142857" type="line"/>
      <point x="335.57142857142856" y="644.0" type="line"/>
      <point x="335.57142857142856" y="660.0" type="line"/>
      <point x="68.71428571428571" y="660.0" type="line"/>
      <point x="68.71428571428571" y="644.0" type="line"/>
      <point x="150.0" y="603.7142857142857" type="line"/>
      <point x="150.0" y="50.714285714285715" type="line" smooth="yes"/>
      <point x="150.0" y="-78.28571428571429"/>
      <point x="124.0" y="-94.71428571428572"/>
      <point x="82.57142857142857" y="-94.71428571428572" type="curve" smooth="yes"/>
      <point x="65.28571428571429" y="-94.71428571428572"/>
      <point x="55.57142857142857" y="-91.85714285714286"/>
      <point x="33.42857142857143" y="-86.0" type="curve"/>
      <point x="26.857142857142858" y="-86.0" type="line"/>
      <point x="17.142857142857142" y="-132.14285714285714"/>
      <point x="16.142857142857142" y="-139.71428571428572"/>
      <point x="16.142857142857142" y="-144.85714285714286" type="curve" smooth="yes"/>
      <point x="16.142857142857142" y="-165.71428571428572"/>
      <point x="31.428571428571427" y="-173.0"/>
    </contour>
  </outline>
</glyph>
<glyph name="K" format="2">
  <advance width="732.0"/>
  <unicode hex="004B"/>
  <anchor x="394.57142857142856" y="710.0" name="top"/>
  <anchor x="394.57142857142856" y="0.0" name="bottom"/>
  <outline>
    <contour>
      <point x="60.0" y="0.0" type="line"/>
      <point x="326.85714285714283" y="0.0" type="line"/>
      <point x="326.85714285714283" y="16.0" type="line"/>
      <point x="245.57142857142856" y="56.285714285714285" type="line"/>
      <point x="245.57142857142856" y="603.7142857142857" type="line"/>
      <point x="326.85714285714283" y="644.0" type="line"/>
      <point x="326.85714285714283" y="660.0" type="line"/>
      <point x="60.0" y="660.0" type="line"/>
      <point x="60.0" y="644.0" type="line"/>
      <point x="141.28571428571428" y="603.7142857142857" type="line"/>
      <point x="141.28571428571428" y="56.285714285714285" type="line"/>
      <point x="60.0" y="16.0" type="line"/>
    </contour>
    <contour>
      <point x="246.42857142857142" y="336.85714285714283" type="line"/>
      <point x="556.1428571428571" y="0.0" type="line"/>
      <point x="718.5714285714286" y="0.0" type="line"/>
      <point x="718.5714285714286" y="16.0" type="line"/>
      <point x="617.2857142857142" y="59.285714285714285" type="line"/>
      <point x="666.7142857142857" y="30.714285714285715" type="line"/>
      <point x="326.42857142857144" y="392.0" type="line"/>
      <point x="316.7142857142857" y="338.14285714285717" type="line"/>
      <point x="623.1428571428571" y="637.1428571428571" type="line"/>
      <point x="578.0" y="608.1428571428571" type="line"/>
      <point x="667.0" y="644.0" type="line"/>
      <point x="667.0" y="660.0" type="line"/>
      <point x="451.0" y="660.0" type="line"/>
      <point x="451.0" y="644.0" type="line"/>
      <point x="541.8571428571429" y="600.4285714285714" type="line"/>
      <point x="541.0" y="627.7142857142857" type="line"/>
    </contour>
  </outline>
</glyph>
<glyph name="L" format="2">
  <advance width="636.0"/>
  <unicode hex="004C"/>
  <anchor x="355.1428571428571" y="0.0" name="bottom"/>
  <anchor x="193.42857142857142" y="710.0" name="top"/>
  <anchor x="481.42857142857144" y="660.0" name="right"/>
  <anchor x="497.14285714285717" y="348.14285714285717" name="mid"/>
  <outline>
    <contour>
      <point x="60.0" y="0.0" type="line"/>
      <point x="570.2857142857143" y="0.0" type="line"/>
      <point x="570.2857142857143" y="227.28571428571428" type="line"/>
      <point x="554.2857142857143" y="227.28571428571428" type="line"/>
      <point x="483.14285714285717" y="55.0" type="line"/>
      <point x="245.57142857142856" y="55.0" type="line"/>
      <point x="245.57142857142856" y="603.7142857142857" type="line"/>
      <point x="336.85714285714283" y="644.0" type="line"/>
      <point x="336.85714285714283" y="660.0" type="line"/>
      <point x="60.0" y="660.0" type="line"/>
      <point x="60.0" y="644.0" type="line"/>
      <point x="141.28571428571428" y="603.7142857142857" type="line"/>
      <point x="141.28571428571428" y="56.285714285714285" type="line"/>
      <point x="60.0" y="16.0" type="line"/>
    </contour>
  </outline>
</glyph>
<glyph name="M" format="2">
  <advance width="967.5714285714286"/>
  <unicode hex="004D"/>
  <anchor x="470.42857142857144" y="0.0" name="bottom"/>
  <outline>
    <contour>
      <point x="55.714285714285715" y="0.0" type="line"/>
      <point x="281.85714285714283" y="0.0" type="line"/>
      <point x="281.85714285714283" y="16.0" type="line"/>
      <point x="199.42857142857142" y="55.285714285714285" type="line"/>
      <point x="215.42857142857142" y="642.0" type="line"/>
      <point x="158.14285714285714" y="642.0" type="line"/>
      <point x="136.14285714285714" y="56.285714285714285" type="line"/>
      <point x="55.714285714285715" y="16.0" type="line"/>
    </contour>
    <contour>
      <point x="446.14285714285717" y="-5.0" type="line"/>
      <point x="493.85714285714283" y="-5.0" type="line"/>
      <point x="752.8571428571429" y="596.7142857142857" type="line"/>
      <point x="801.0" y="596.7142857142857" type="line"/>
      <point x="908.1428571428571" y="644.0" type="line"/>
      <point x="908.1428571428571" y="660.0" type="line"/>
      <point x="717.1428571428571" y="660.0" type="line"/>
      <point x="470.2857142857143" y="87.85714285714286" type="line"/>
      <point x="518.1428571428571" y="87.85714285714286" type="line"/>
      <point x="270.42857142857144" y="660.0" type="line"/>
      <point x="70.71428571428571" y="660.0" type="line"/>
      <point x="70.71428571428571" y="644.0" type="line"/>
      <point x="170.71428571428572" y="596.7142857142857" type="line"/>
      <point x="187.28571428571428" y="596.7142857142857" type="line"/>
    </contour>
    <contour>
      <point x="664.7142857142857" y="0.0" type="line"/>
      <point x="911.8571428571429" y="0.0" type="line"/>
      <point x="911.8571428571429" y="16.0" type="line"/>
      <point x="840.4285714285714" y="56.285714285714285" type="line"/>
      <point x="822.4285714285714" y="642.0" type="line"/>
      <point x="728.1428571428571" y="642.0" type="line"/>
      <point x="740.1428571428571" y="55.285714285714285" type="line"/>
      <point x="664.7142857142857" y="16.0" type="line"/>
    </contour>
  </outline>
</glyph>
<glyph name="N" format="2">
  <advance width="803.0"/>
  <unicode hex="004E"/>
  <anchor x="410.7142857142857" y="710.0" name="top"/>
  <anchor x="419.14285714285717" y="0.0" name="bottom"/>
  <outline>
    <contour>
      <point x="55.714285714285715" y="0.0" type="line"/>
      <point x="310.2857142857143" y="0.0" type="line"/>
      <point x="310.2857142857143" y="16.0" type="line"/>
      <point x="207.0" y="55.42857142857143" type="line"/>
      <point x="207.0" y="551.2857142857143" type="line"/>
      <point x="170.57142857142858" y="551.2857142857143" type="line"/>
      <point x="624.1428571428571" y="-5.0" type="line"/>
      <point x="667.1428571428571" y="-5.0" type="line"/>
      <point x="667.1428571428571" y="604.5714285714286" type="line"/>
      <point x="747.2857142857143" y="644.0" type="line"/>
      <point x="747.2857142857143" y="660.0" type="line"/>
      <point x="493.85714285714283" y="660.0" type="line"/>
      <point x="493.85714285714283" y="644.0" type="line"/>
      <point x="597.1428571428571" y="605.4285714285714" type="line"/>
      <point x="597.1428571428571" y="112.42857142857142" type="line"/>
      <point x="660.2857142857143" y="112.42857142857142" type="line"/>
      <point x="213.57142857142856" y="660.0" type="line"/>
      <point x="56.57142857142857" y="660.0" type="line"/>
      <point x="56.57142857142857" y="644.0" type="line"/>
      <point x="137.0" y="602.0" type="line"/>
      <point x="137.0" y="56.285714285714285" type="line"/>
      <point x="55.714285714285715" y="16.0" type="line"/>
    </contour>
  </outline>
</glyph>
<glyph name="O" format="2">
  <advance width="802.7142857142857"/>
  <unicode hex="004F"/>
  <anchor x="390.7142857142857" y="710.0" name="top"/>
  <anchor x="413.0" y="0.0" name="bottom"/>
  <anchor x="429.85714285714283" y="0.0" name="right"/>
  <outline>
    <contour>
      <point x="400.85714285714283" y="-10.0" type="curve" smooth="yes"/>
      <point x="594.4285714285714" y="-10.0"/>
      <point x="737.7142857142857" y="134.0"/>
      <point x="737.7142857142857" y="330.0" type="curve" smooth="yes"/>
      <point x="737.7142857142857" y="526.0"/>
      <point x="594.4285714285714" y="670.0"/>
      <point x="400.85714285714283" y="670.0" type="curve" smooth="yes"/>
      <point x="208.28571428571428" y="670.0"/>
      <point x="65.0" y="526.0"/>
      <point x="65.0" y="330.0" type="curve" smooth="yes"/>
      <point x="65.0" y="134.0"/>
      <point x="208.28571428571428" y="-10.0"/>
    </contour>
    <contour>
      <point x="420.7142857142857" y="40.42857142857143" type="curve" smooth="yes"/>
      <point x="285.0" y="40.42857142857143"/>
      <point x="176.71428571428572" y="168.14285714285714"/>
      <point x="176.71428571428572" y="362.7142857142857" type="curve" smooth="yes"/>
      <point x="176.71428571428572" y="520.5714285714286"/>
      <point x="263.42857142857144" y="620.5714285714286"/>
      <point x="384.7142857142857" y="620.5714285714286" type="curve" smooth="yes"/>
      <point x="519.7142857142857" y="620.5714285714286"/>
      <point x="626.0" y="493.85714285714283"/>
      <point x="626.0" y="299.2857142857143" type="curve" smooth="yes"/>
      <point x="626.0" y="141.42857142857142"/>
      <point x="542.4285714285714" y="40.42857142857143"/>
    </contour>
  </outline>
</glyph>
<glyph name="P" format="2">
  <advance width="648.7142857142857"/>
  <unicode hex="0050"/>
  <outline>
    <contour>
      <point x="60.0" y="0.0" type="line"/>
      <point x="338.42857142857144" y="0.0" type="line"/>
      <point x="338.42857142857144" y="16.0" type="line"/>
      <point x="245.57142857142856" y="56.285714285714285" type="line"/>
      <point x="245.57142857142856" y="605.0" type="line"/>
      <point x="315.0" y="605.0" type="line" smooth="yes"/>
      <point x="428.0" y="605.0"/>
      <point x="491.0" y="566.0"/>
      <point x="491.0" y="473.0" type="curve" smooth="yes"/>
      <point x="491.0" y="398.0"/>
      <point x="427.0" y="345.2857142857143"/>
      <point x="322.0" y="345.2857142857143" type="curve" smooth="yes"/>
      <point x="220.57142857142856" y="345.2857142857143" type="line"/>
      <point x="220.57142857142856" y="291.7142857142857" type="line"/>
      <point x="316.2857142857143" y="291.7142857142857" type="line" smooth="yes"/>
      <point x="479.2857142857143" y="291.7142857142857"/>
      <point x="601.2857142857142" y="371.42857142857144"/>
      <point x="601.2857142857142" y="481.2857142857143" type="curve" smooth="yes"/>
      <point x="601.2857142857142" y="605.2857142857143"/>
      <point x="497.2857142857143" y="660.0"/>
      <point x="340.2857142857143" y="660.0" type="curve" smooth="yes"/>
      <point x="60.0" y="660.0" type="line"/>
      <point x="60.0" y="644.0" type="line"/>
      <point x="141.28571428571428" y="603.7142857142857" type="line"/>
      <point x="141.28571428571428" y="56.285714285714285" type="line"/>
      <point x="60.0" y="16.0" type="line"/>
    </contour>
  </outline>
</glyph>
<glyph name="Q" format="2">
  <advance width="802.7142857142857"/>
  <unicode hex="0051"/>
  <outline>
    <contour>
      <point x="400.85714285714283" y="-10.0" type="curve" smooth="yes"/>
      <point x="594.4285714285714" y="-10.0"/>
      <point x="737.7142857142857" y="134.0"/>
      <point x="737.7142857142857" y="330.0" type="curve" smooth="yes"/>
      <point x="737.7142857142857" y="526.0"/>
      <point x="594.4285714285714" y="670.0"/>
      <point x="400.85714285714283" y="670.0" type="curve" smooth="yes"/>
      <point x="208.28571428571428" y="670.0"/>
      <point x="65.0" y="526.0"/>
      <point x="65.0" y="330.0" type="curve" smooth="yes"/>
      <point x="65.0" y="134.0"/>
      <point x="208.28571428571428" y="-10.0"/>
    </contour>
    <contour>
      <point x="420.7142857142857" y="40.42857142857143" type="curve" smooth="yes"/>
      <point x="285.0" y="40.42857142857143"/>
      <point x="176.71428571428572" y="168.14285714285714"/>
      <point x="176.71428571428572" y="362.7142857142857" type="curve" smooth="yes"/>
      <point x="176.71428571428572" y="520.5714285714286"/>
      <point x="263.42857142857144" y="620.5714285714286"/>
      <point x="384.7142857142857" y="620.5714285714286" type="curve" smooth="yes"/>
      <point x="519.7142857142857" y="620.5714285714286"/>
      <point x="626.0" y="493.85714285714283"/>
      <point x="626.0" y="299.2857142857143" type="curve" smooth="yes"/>
      <point x="626.0" y="141.42857142857142"/>
      <point x="542.4285714285714" y="40.42857142857143"/>
    </contour>
    <contour>
      <point x="683.0" y="-150.42857142857142" type="curve" smooth="yes"/>
      <point x="734.3949579831428" y="-150.42857142857142"/>
      <point x="777.5135116438571" y="-139.170817039"/>
      <point x="808.2857142857143" y="-123.42857142857143" type="curve"/>
      <point x="808.2857142857143" y="-105.71428571428571" type="line"/>
      <point x="793.2857142857143" y="-110.57142857142857"/>
      <point x="772.2857142857143" y="-114.85714285714286"/>
      <point x="743.7142857142857" y="-114.85714285714286" type="curve" smooth="yes"/>
      <point x="676.0" y="-114.85714285714286"/>
      <point x="608.4285714285714" y="-83.42857142857143"/>
      <point x="486.8571428571429" y="16.0" type="curve"/>
      <point x="339.2857142857143" y="16.0" type="line"/>
      <point x="507.2150438694286" y="-124.65833830142857"/>
      <point x="596.1739745402857" y="-150.42857142857142"/>
    </contour>
  </outline>
</glyph>
<glyph name="R" format="2">
  <advance width="676.5714285714286"/>
  <unicode hex="0052"/>
  <anchor x="322.7142857142857" y="710.0" name="top"/>
  <anchor x="375.7142857142857" y="0.0" name="bottom"/>
  <outline>
    <contour>
      <point x="60.0" y="0.0" type="line"/>
      <point x="320.57142857142856" y="0.0" type="line"/>
      <point x="320.57142857142856" y="16.0" type="line"/>
      <point x="245.57142857142856" y="57.285714285714285" type="line"/>
      <point x="245.57142857142856" y="660.0" type="line"/>
      <point x="60.0" y="660.0" type="line"/>
      <point x="60.0" y="644.0" type="line"/>
      <point x="141.28571428571428" y="603.7142857142857" type="line"/>
      <point x="141.28571428571428" y="56.285714285714285" type="line"/>
      <point x="60.0" y="16.0" type="line"/>
    </contour>
    <contour>
      <point x="563.8571428571429" y="497.0" type="curve" smooth="yes"/>
      <point x="563.8571428571429" y="598.0"/>
      <point x="477.85714285714283" y="660.0"/>
      <point x="337.85714285714283" y="660.0" type="curve" smooth="yes"/>
      <point x="192.57142857142858" y="660.0" type="line"/>
      <point x="192.57142857142858" y="605.0" type="line"/>
      <point x="304.7142857142857" y="605.0" type="line" smooth="yes"/>
      <point x="398.1428571428571" y="605.0"/>
      <point x="454.0" y="559.2093596058571"/>
      <point x="454.0" y="483.2857142857143" type="curve" smooth="yes"/>
      <point x="454.0" y="409.854781582"/>
      <point x="394.1428571428571" y="357.2857142857143"/>
      <point x="310.7142857142857" y="357.2857142857143" type="curve"/>
      <point x="200.57142857142858" y="357.2857142857143" type="line"/>
      <point x="200.57142857142858" y="303.7142857142857" type="line"/>
      <point x="342.2857142857143" y="303.7142857142857" type="line"/>
      <point x="344.57142857142856" y="313.0" type="line"/>
      <point x="470.42857142857144" y="326.57142857142856"/>
      <point x="563.8571428571429" y="400.0"/>
    </contour>
    <contour>
      <point x="521.1428571428571" y="0.0" type="line"/>
      <point x="682.2857142857142" y="0.0" type="line"/>
      <point x="682.2857142857142" y="16.0" type="line"/>
      <point x="614.8571428571429" y="53.0" type="line"/>
      <point x="417.7142857142857" y="343.85714285714283" type="line"/>
      <point x="306.42857142857144" y="340.2857142857143" type="line"/>
    </contour>
  </outline>
</glyph>
<glyph name="S" format="2">
  <advance width="540.7142857142857"/>
  <unicode hex="0053"/>
  <anchor x="278.57142857142856" y="710.0" name="top"/>
  <anchor x="275.57142857142856" y="0.0" name="bottom"/>
  <outline>
    <contour>
      <point x="265.7142857142857" y="-10.0" type="curve" smooth="yes"/>
      <point x="365.85714285714283" y="-10.0"/>
      <point x="487.2857142857143" y="57.285714285714285"/>
      <point x="487.2857142857143" y="183.28571428571428" type="curve" smooth="yes"/>
      <point x="487.2857142857143" y="283.9742857142857"/>
      <point x="431.37579126957144" y="324.0229290854286"/>
      <point x="310.2857142857143" y="382.14285714285717" type="curve" smooth="yes"/>
      <point x="220.20267544357142" y="425.46520621185715"/>
      <point x="181.42857142857142" y="454.22580645157143"/>
      <point x="181.42857142857142" y="519.2857142857143" type="curve" smooth="yes"/>
      <point x="181.42857142857142" y="577.6957983192857"/>
      <point x="222.85714285714286" y="621.0"/>
      <point x="280.85714285714283" y="621.0" type="curve" smooth="yes"/>
      <point x="328.7142857142857" y="621.0"/>
      <point x="360.0" y="604.5714285714286"/>
      <point x="409.0" y="565.7142857142857" type="curve"/>
      <point x="387.7142857142857" y="595.5714285714286" type="line"/>
      <point x="450.0" y="467.14285714285717" type="line"/>
      <point x="466.2857142857143" y="467.14285714285717" type="line"/>
      <point x="456.2857142857143" y="627.1428571428571" type="line"/>
      <point x="402.482975296" y="654.6010432824286"/>
      <point x="350.0" y="670.0"/>
      <point x="286.57142857142856" y="670.0" type="curve" smooth="yes"/>
      <point x="181.28571428571428" y="670.0"/>
      <point x="78.0" y="576.8571428571429"/>
      <point x="78.0" y="482.42857142857144" type="curve" smooth="yes"/>
      <point x="78.0" y="391.8218298555714"/>
      <point x="130.88849452685713" y="350.41570074314285"/>
      <point x="225.0" y="304.57142857142856" type="curve" smooth="yes"/>
      <point x="330.9254898094286" y="253.25711520642858"/>
      <point x="387.85714285714283" y="232.27760891585714"/>
      <point x="387.85714285714283" y="149.71428571428572" type="curve" smooth="yes"/>
      <point x="387.85714285714283" y="79.7014446228"/>
      <point x="340.14285714285717" y="38.0"/>
      <point x="262.7142857142857" y="38.0" type="curve" smooth="yes"/>
      <point x="213.85714285714286" y="38.0"/>
      <point x="166.71428571428572" y="57.42857142857143"/>
      <point x="117.42857142857143" y="100.71428571428572" type="curve"/>
      <point x="144.28571428571428" y="56.85714285714286" type="line"/>
      <point x="73.42857142857143" y="202.42857142857142" type="line"/>
      <point x="57.0" y="202.42857142857142" type="line"/>
      <point x="67.0" y="37.142857142857146" type="line"/>
      <point x="129.28571428571428" y="5.857142857142857"/>
      <point x="182.28571428571428" y="-10.0"/>
    </contour>
  </outline>
</glyph>
<glyph name="T" format="2">
  <advance width="680.2857142857143"/>
  <unicode hex="0054"/>
  <anchor x="340.14285714285717" y="710.0" name="top"/>
  <anchor x="340.14285714285717" y="0.0" name="bottom"/>
  <outline>
    <contour>
      <point x="186.57142857142858" y="0.0" type="line"/>
      <point x="493.7142857142857" y="0.0" type="line"/>
      <point x="493.7142857142857" y="16.0" type="line"/>
      <point x="392.2857142857143" y="56.285714285714285" type="line"/>
      <point x="392.2857142857143" y="605.0" type="line"/>
      <point x="550.5714285714286" y="605.0" type="line"/>
      <point x="621.4285714285714" y="453.85714285714283" type="line"/>
      <point x="637.4285714285714" y="453.85714285714283" type="line"/>
      <point x="637.4285714285714" y="660.0" type="line"/>
      <point x="42.857142857142854" y="660.0" type="line"/>
      <point x="42.857142857142854" y="453.85714285714283" type="line"/>
      <point x="58.85714285714286" y="453.85714285714283" type="line"/>
      <point x="129.71428571428572" y="605.0" type="line"/>
      <point x="288.0" y="605.0" type="line"/>
      <point x="288.0" y="56.285714285714285" type="line"/>
      <point x="186.57142857142858" y="16.0" type="line"/>
    </contour>
  </outline>
</glyph>
<glyph name="U" format="2">
  <advance width="815.7142857142857"/>
  <unicode hex="0055"/>
  <anchor x="424.7142857142857" y="710.0" name="top"/>
  <anchor x="411.42857142857144" y="0.0" name="bottom"/>
  <anchor x="437.85714285714283" y="0.0" name="right"/>
  <outline>
    <contour>
      <point x="409.2857142857143" y="-10.0" type="curve" smooth="yes"/>
      <point x="563.1071428571429" y="-10.0"/>
      <point x="675.1428571428571" y="69.42857142857143"/>
      <point x="675.1428571428571" y="262.57142857142856" type="curve" smooth="yes"/>
      <point x="675.1428571428571" y="604.7142857142857" type="line"/>
      <point x="755.7142857142857" y="644.0" type="line"/>
      <point x="755.7142857142857" y="660.0" type="line"/>
      <point x="506.57142857142856" y="660.0" type="line"/>
      <point x="506.57142857142856" y="644.0" type="line"/>
      <point x="605.1428571428571" y="605.7142857142857" type="line"/>
      <point x="605.1428571428571" y="238.71428571428572" type="line" smooth="yes"/>
      <point x="605.1428571428571" y="104.28571428571428"/>
      <point x="528.5714285714286" y="52.0"/>
      <point x="440.57142857142856" y="52.0" type="curve" smooth="yes"/>
      <point x="331.57142857142856" y="52.0"/>
      <point x="245.71428571428572" y="108.14285714285714"/>
      <point x="245.71428571428572" y="273.7142857142857" type="curve" smooth="yes"/>
      <point x="245.71428571428572" y="603.7142857142857" type="line"/>
      <point x="327.1428571428571" y="644.0" type="line"/>
      <point x="327.1428571428571" y="660.0" type="line"/>
      <point x="60.0" y="660.0" type="line"/>
      <point x="60.0" y="644.0" type="line"/>
      <point x="141.42857142857142" y="603.7142857142857" type="line"/>
      <point x="141.42857142857142" y="262.57142857142856" type="line" smooth="yes"/>
      <point x="141.42857142857142" y="69.42857142857143"/>
      <point x="254.39610389614285" y="-10.0"/>
    </contour>
  </outline>
</glyph>
<glyph name="V" format="2">
  <advance width="745.7142857142857"/>
  <unicode hex="0056"/>
  <outline>
    <contour>
      <point x="356.0" y="-5.0" type="line"/>
      <point x="396.42857142857144" y="-5.0" type="line"/>
      <point x="665.1428571428571" y="632.0" type="line"/>
      <point x="638.8571428571429" y="603.4285714285714" type="line"/>
      <point x="714.1428571428571" y="644.0" type="line"/>
      <point x="714.1428571428571" y="660.0" type="line"/>
      <point x="503.1428571428571" y="660.0" type="line"/>
      <point x="503.1428571428571" y="644.0" type="line"/>
      <point x="588.0" y="607.7142857142857" type="line"/>
      <point x="586.7142857142857" y="609.7142857142857" type="line"/>
      <point x="381.85714285714283" y="108.85714285714286" type="line"/>
      <point x="421.7142857142857" y="156.14285714285714" type="line"/>
      <point x="375.2857142857143" y="156.14285714285714" type="line"/>
      <point x="415.1428571428571" y="108.85714285714286" type="line"/>
      <point x="209.42857142857144" y="606.2857142857143" type="line"/>
      <point x="207.71428571428572" y="605.1428571428571" type="line"/>
      <point x="295.85714285714283" y="644.0" type="line"/>
      <point x="295.85714285714283" y="660.0" type="line"/>
      <point x="31.285714285714285" y="660.0" type="line"/>
      <point x="31.285714285714285" y="644.0" type="line"/>
      <point x="140.28571428571428" y="587.0" type="line"/>
      <point x="90.28571428571429" y="632.0" type="line"/>
    </contour>
  </outline>
</glyph>
<glyph name="W" format="2">
  <advance width="995.2857142857143"/>
  <unicode hex="0057"/>
  <anchor x="520.2857142857143" y="710.0" name="top"/>
  <outline>
    <contour>
      <point x="275.57142857142856" y="-5.0" type="line"/>
      <point x="316.0" y="-5.0" type="line"/>
      <point x="521.0" y="533.5714285714286" type="line"/>
      <point x="477.7142857142857" y="474.2857142857143" type="line"/>
      <point x="524.5714285714286" y="474.2857142857143" type="line"/>
      <point x="481.85714285714283" y="533.5714285714286" type="line"/>
      <point x="685.2857142857143" y="-5.0" type="line"/>
      <point x="725.7142857142857" y="-5.0" type="line"/>
      <point x="921.0" y="632.0" type="line"/>
      <point x="889.8571428571429" y="594.8571428571429" type="line"/>
      <point x="981.0" y="644.0" type="line"/>
      <point x="981.0" y="660.0" type="line"/>
      <point x="759.0" y="660.0" type="line"/>
      <point x="759.0" y="644.0" type="line"/>
      <point x="868.1428571428571" y="594.8571428571429" type="line"/>
      <point x="852.0" y="632.0" type="line"/>
      <point x="707.7142857142857" y="133.71428571428572" type="line"/>
      <point x="742.7142857142857" y="185.14285714285714" type="line"/>
      <point x="696.4285714285714" y="185.14285714285714" type="line"/>
      <point x="735.7142857142857" y="133.71428571428572" type="line"/>
      <point x="540.8571428571429" y="665.0" type="line"/>
      <point x="498.7142857142857" y="665.0" type="line"/>
      <point x="305.0" y="128.0" type="line"/>
      <point x="346.0" y="185.14285714285714" type="line"/>
      <point x="298.85714285714283" y="185.14285714285714" type="line"/>
      <point x="337.1428571428571" y="128.0" type="line"/>
      <point x="190.57142857142856" y="632.0" type="line"/>
      <point x="163.57142857142856" y="591.5714285714286" type="line"/>
      <point x="282.57142857142856" y="644.0" type="line"/>
      <point x="282.57142857142856" y="660.0" type="line"/>
      <point x="14.285714285714286" y="660.0" type="line"/>
      <point x="14.285714285714286" y="644.0" type="line"/>
      <point x="123.28571428571429" y="590.7142857142857" type="line"/>
      <point x="82.28571428571429" y="632.0" type="line"/>
    </contour>
  </outline>
</glyph>
<glyph name="Y" format="2">
  <advance width="726.5714285714286"/>
  <unicode hex="0059"/>
  <anchor x="367.2857142857143" y="0.0" name="bottom"/>
  <anchor x="383.7142857142857" y="710.0" name="top"/>
  <outline>
    <contour>
      <point x="225.28571428571428" y="0.0" type="line"/>
      <point x="509.2857142857143" y="0.0" type="line"/>
      <point x="509.2857142857143" y="16.0" type="line"/>
      <point x="419.42857142857144" y="56.285714285714285" type="line"/>
      <point x="419.42857142857144" y="335.14285714285717" type="line"/>
      <point x="389.2857142857143" y="265.7142857142857" type="line"/>
      <point x="645.4285714285714" y="632.0" type="line"/>
      <point x="604.5714285714286" y="597.7142857142857" type="line"/>
      <point x="695.1428571428571" y="644.0" type="line"/>
      <point x="695.1428571428571" y="660.0" type="line"/>
      <point x="479.42857142857144" y="660.0" type="line"/>
      <point x="479.42857142857144" y="644.0" type="line"/>
      <point x="553.4285714285714" y="607.2857142857143" type="line"/>
      <point x="553.4285714285714" y="603.2857142857143" type="line"/>
      <point x="382.0" y="346.2857142857143" type="line"/>
      <point x="406.2857142857143" y="346.2857142857143" type="line"/>
      <point x="215.71428571428572" y="604.4285714285714" type="line"/>
      <point x="215.71428571428572" y="608.4285714285714" type="line"/>
      <point x="289.2857142857143" y="644.0" type="line"/>
      <point x="289.2857142857143" y="660.0" type="line"/>
      <point x="31.42857142857143" y="660.0" type="line"/>
      <point x="31.42857142857143" y="644.0" type="line"/>
      <point x="127.14285714285714" y="591.1428571428571" type="line"/>
      <point x="77.14285714285714" y="632.0" type="line"/>
      <point x="346.14285714285717" y="266.0" type="line"/>
      <point x="315.14285714285717" y="335.14285714285717" type="line"/>
      <point x="315.14285714285717" y="56.285714285714285" type="line"/>
      <point x="225.28571428571428" y="16.0" type="line"/>
    </contour>
  </outline>
</glyph>
<glyph name="Z" format="2">
  <advance width="658.8571428571429"/>
  <unicode hex="005A"/>
  <anchor x="338.14285714285717" y="710.0" name="top"/>
  <anchor x="338.14285714285717" y="0.0" name="bottom"/>
  <outline>
    <contour>
      <point x="88.57142857142857" y="0.0" type="line"/>
      <point x="570.2857142857143" y="0.0" type="line"/>
      <point x="570.2857142857143" y="197.28571428571428" type="line"/>
      <point x="554.2857142857142" y="197.28571428571428" type="line"/>
      <point x="488.42857142857144" y="55.0" type="line"/>
      <point x="195.28571428571428" y="55.0" type="line"/>
      <point x="195.28571428571428" y="17.57142857142857" type="line"/>
      <point x="559.2857142857143" y="633.2857142857143" type="line"/>
      <point x="559.2857142857143" y="660.0" type="line"/>
      <point x="100.57142857142857" y="660.0" type="line"/>
      <point x="100.57142857142857" y="472.7142857142857" type="line"/>
      <point x="116.57142857142857" y="472.7142857142857" type="line"/>
      <point x="181.42857142857142" y="605.0" type="line"/>
      <point x="450.57142857142856" y="605.0" type="line"/>
      <point x="450.57142857142856" y="640.7142857142857" type="line"/>
      <point x="88.57142857142857" y="26.714285714285715" type="line"/>
    </contour>
  </outline>
</glyph>
<glyph name="bracketleft" format="2">
  <advance width="252.85714285714286"/>
  <unicode hex="005B"/>
  <outline>
    <contour>
      <point x="63.57142857142857" y="-150.0" type="line"/>
      <point x="129.0" y="-150.0" type="line"/>
      <point x="129.0" y="740.0" type="line"/>
      <point x="63.57142857142857" y="740.0" type="line"/>
    </contour>
    <contour>
      <point x="65.57142857142857" y="740.0" type="line"/>
      <point x="65.57142857142857" y="716.2857142857143" type="line"/>
      <point x="245.0" y="716.2857142857143" type="line"/>
      <point x="245.0" y="740.0" type="line"/>
    </contour>
    <contour>
      <point x="65.57142857142857" y="-150.0" type="line"/>
      <point x="245.0" y="-150.0" type="line"/>
      <point x="245.0" y="-126.28571428571429" type="line"/>
      <point x="65.57142857142857" y="-126.28571428571429" type="line"/>
    </contour>
  </outline>
</glyph>
<glyph name="bracketright" format="2">
  <advance width="252.85714285714286"/>
  <unicode hex="005D"/>
  <outline>
    <contour>
      <point x="123.85714285714286" y="-150.0" type="line"/>
      <point x="189.28571428571428" y="-150.0" type="line"/>
      <point x="189.28571428571428" y="740.0" type="line"/>
      <point x="123.85714285714286" y="740.0" type="line"/>
    </contour>
    <contour>
      <point x="7.857142857142858" y="740.0" type="line"/>
      <point x="7.857142857142858" y="716.2857142857143" type="line"/>
      <point x="187.28571428571428" y="716.2857142857143" type="line"/>
      <point x="187.28571428571428" y="740.0" type="line"/>
    </contour>
    <contour>
      <point x="7.857142857142858" y="-150.0" type="line"/>
      <point x="187.28571428571428" y="-150.0" type="line"/>
      <point x="187.28571428571428" y="-126.28571428571429" type="line"/>
      <point x="7.857142857142858" y="-126.28571428571429" type="line"/>
    </contour>
  </outline>
</glyph>
<glyph name="asciicircum" format="2">
  <advance width="514.2857142857143"/>
  <unicode hex="005E"/>
  <outline>
    <contour>
      <point x="47.14285714285714" y="250.0" type="line"/>
      <point x="103.57142857142857" y="250.0" type="line"/>
      <point x="275.57142857142856" y="640.0" type="line"/>
      <point x="238.71428571428572" y="640.0" type="line"/>
      <point x="410.7142857142857" y="250.0" type="line"/>
      <point x="467.14285714285717" y="250.0" type="line"/>
      <point x="282.1428571428571" y="670.0" type="line"/>
      <point x="232.14285714285714" y="670.0" type="line"/>
    </contour>
  </outline>
</glyph>
<glyph name="b" format="2">
  <advance width="565.1428571428571"/>
  <unicode hex="0062"/>
  <outline>
    <contour>
      <point x="99.85714285714286" y="-8.571428571428571" type="line"/>
      <point x="107.28571428571428" y="-8.571428571428571" type="line"/>
      <point x="194.14285714285714" y="64.0" type="line"/>
      <point x="194.14285714285714" y="750.0" type="line"/>
      <point x="186.71428571428572" y="750.0" type="line"/>
      <point x="39.0" y="695.0" type="line"/>
      <point x="39.0" y="686.7142857142857" type="line"/>
      <point x="99.85714285714286" y="636.0" type="line"/>
    </contour>
    <contour>
      <point x="285.2857142857143" y="-10.0" type="curve" smooth="yes"/>
      <point x="416.14285714285717" y="-10.0"/>
      <point x="519.5714285714286" y="84.0"/>
      <point x="519.5714285714286" y="247.0" type="curve" smooth="yes"/>
      <point x="519.5714285714286" y="379.85714285714283"/>
      <point x="445.2857142857143" y="461.42857142857144"/>
      <point x="347.0" y="461.42857142857144" type="curve" smooth="yes"/>
      <point x="293.42857142857144" y="461.42857142857144"/>
      <point x="248.85714285714286" y="442.7142857142857"/>
      <point x="198.42857142857142" y="400.0" type="curve"/>
      <point x="183.85714285714286" y="400.0" type="line"/>
      <point x="183.85714285714286" y="354.7142857142857" type="line"/>
      <point x="216.57142857142856" y="378.0"/>
      <point x="251.42857142857142" y="389.2857142857143"/>
      <point x="285.57142857142856" y="389.2857142857143" type="curve" smooth="yes"/>
      <point x="361.42857142857144" y="389.2857142857143"/>
      <point x="425.2857142857143" y="338.2857142857143"/>
      <point x="425.2857142857143" y="223.42857142857142" type="curve" smooth="yes"/>
      <point x="425.2857142857143" y="87.71428571428571"/>
      <point x="368.0" y="39.0"/>
      <point x="303.42857142857144" y="39.0" type="curve" smooth="yes"/>
      <point x="256.42857142857144" y="39.0"/>
      <point x="221.0" y="52.14285714285714"/>
      <point x="185.28571428571428" y="86.42857142857143" type="curve"/>
      <point x="132.42857142857142" y="22.42857142857143" type="line"/>
      <point x="175.57142857142858" y="2.428571428571429"/>
      <point x="225.85714285714286" y="-10.0"/>
    </contour>
  </outline>
</glyph>
<glyph name="c" format="2">
  <advance width="480.2857142857143"/>
  <unicode hex="0063"/>
  <anchor x="265.42857142857144" y="510.0" name="top"/>
  <anchor x="261.85714285714283" y="0.0" name="bottom"/>
  <outline>
    <contour>
      <point x="257.85714285714283" y="-10.0" type="curve" smooth="yes"/>
      <point x="341.42857142857144" y="-10.0"/>
      <point x="406.14285714285717" y="38.42857142857143"/>
      <point x="437.42857142857144" y="99.14285714285714" type="curve"/>
      <point x="437.42857142857144" y="110.71428571428572" type="line"/>
      <point x="434.42857142857144" y="110.71428571428572" type="line"/>
      <point x="385.57142857142856" y="84.57142857142857"/>
      <point x="343.42857142857144" y="72.71428571428571"/>
      <point x="306.1428571428571" y="72.71428571428571" type="curve" smooth="yes"/>
      <point x="181.28571428571428" y="72.71428571428571"/>
      <point x="139.42857142857142" y="158.0"/>
      <point x="139.42857142857142" y="251.85714285714286" type="curve" smooth="yes"/>
      <point x="139.42857142857142" y="355.14285714285717"/>
      <point x="181.28571428571428" y="417.42857142857144"/>
      <point x="251.57142857142858" y="417.42857142857144" type="curve" smooth="yes"/>
      <point x="293.8571428571429" y="417.42857142857144"/>
      <point x="320.57142857142856" y="399.2857142857143"/>
      <point x="341.2857142857143" y="371.14285714285717" type="curve" smooth="yes"/>
      <point x="375.42857142857144" y="324.57142857142856" type="line"/>
      <point x="382.42857142857144" y="324.57142857142856" type="line"/>
      <point x="422.57142857142856" y="358.42857142857144" type="line" smooth="yes"/>
      <point x="432.57142857142856" y="366.57142857142856"/>
      <point x="435.42857142857144" y="372.42857142857144"/>
      <point x="435.42857142857144" y="382.42857142857144" type="curve" smooth="yes"/>
      <point x="435.42857142857144" y="390.42857142857144"/>
      <point x="430.57142857142856" y="399.42857142857144"/>
      <point x="419.57142857142856" y="412.42857142857144" type="curve" smooth="yes"/>
      <point x="393.42857142857144" y="441.57142857142856"/>
      <point x="338.0" y="461.42857142857144"/>
      <point x="282.14285714285717" y="461.42857142857144" type="curve" smooth="yes"/>
      <point x="147.28571428571428" y="461.42857142857144"/>
      <point x="47.142857142857146" y="355.14285714285717"/>
      <point x="47.142857142857146" y="205.57142857142858" type="curve" smooth="yes"/>
      <point x="47.142857142857146" y="75.28571428571429"/>
      <point x="128.85714285714286" y="-10.0"/>
    </contour>
  </outline>
</glyph>
<glyph name="d" format="2">
  <advance width="564.7142857142857"/>
  <unicode hex="0064"/>
  <anchor x="585.2857142857142" y="740.0" name="right"/>
  <anchor x="275.57142857142856" y="0.0" name="bottom"/>
  <outline>
    <contour>
      <point x="213.85714285714286" y="-10.0" type="curve" smooth="yes"/>
      <point x="267.42857142857144" y="-10.0"/>
      <point x="311.14285714285717" y="8.0"/>
      <point x="361.7142857142857" y="50.714285714285715" type="curve"/>
      <point x="377.0" y="50.714285714285715" type="line"/>
      <point x="377.0" y="96.71428571428571" type="line"/>
      <point x="344.2857142857143" y="73.42857142857143"/>
      <point x="309.42857142857144" y="62.14285714285714"/>
      <point x="275.2857142857143" y="62.14285714285714" type="curve" smooth="yes"/>
      <point x="199.42857142857142" y="62.14285714285714"/>
      <point x="135.57142857142856" y="110.14285714285714"/>
      <point x="135.57142857142856" y="219.0" type="curve" smooth="yes"/>
      <point x="135.57142857142856" y="361.0"/>
      <point x="199.42857142857144" y="411.57142857142856"/>
      <point x="274.42857142857144" y="411.57142857142856" type="curve" smooth="yes"/>
      <point x="318.0" y="411.57142857142856"/>
      <point x="347.57142857142856" y="391.57142857142856"/>
      <point x="384.14285714285717" y="356.42857142857144" type="curve"/>
      <point x="428.42857142857144" y="429.0" type="line"/>
      <point x="388.7142857142857" y="448.85714285714283"/>
      <point x="351.42857142857144" y="461.42857142857144"/>
      <point x="280.85714285714283" y="461.42857142857144" type="curve"/>
      <point x="149.14285714285714" y="461.42857142857144"/>
      <point x="41.285714285714285" y="363.57142857142856"/>
      <point x="41.285714285714285" y="194.14285714285714" type="curve" smooth="yes"/>
      <point x="41.285714285714285" y="68.28571428571429"/>
      <point x="115.57142857142857" y="-10.0"/>
    </contour>
    <contour>
      <point x="376.7142857142857" y="0.0" type="line"/>
      <point x="531.7142857142857" y="0.0" type="line"/>
      <point x="531.7142857142857" y="16.0" type="line"/>
      <point x="461.0" y="45.0" type="line"/>
      <point x="461.0" y="750.0" type="line"/>
      <point x="453.57142857142856" y="750.0" type="line"/>
      <point x="300.85714285714283" y="695.0" type="line"/>
      <point x="300.85714285714283" y="687.0" type="line"/>
      <point x="366.7142857142857" y="636.0" type="line"/>
      <point x="366.7142857142857" y="60.0" type="line"/>
    </contour>
  </outline>
</glyph>
<glyph name="e" format="2">
  <advance width="486.7142857142857"/>
  <unicode hex="0065"/>
  <anchor x="261.42857142857144" y="510.0" name="top"/>
  <anchor x="363.85714285714283" y="0.0" name="right"/>
  <anchor x="266.14285714285717" y="0.0" name="bottom"/>
  <outline>
    <contour>
      <point x="259.2857142857143" y="-10.0" type="curve" smooth="yes"/>
      <point x="343.14285714285717" y="-10.0"/>
      <point x="408.14285714285717" y="38.285714285714285"/>
      <point x="439.57142857142856" y="99.14285714285714" type="curve"/>
      <point x="439.57142857142856" y="110.71428571428572" type="line"/>
      <point x="436.57142857142856" y="110.71428571428572" type="line"/>
      <point x="387.7142857142857" y="84.57142857142857"/>
      <point x="345.57142857142856" y="72.71428571428571"/>
      <point x="308.2857142857143" y="72.71428571428571" type="curve" smooth="yes"/>
      <point x="182.0" y="72.71428571428571"/>
      <point x="139.42857142857142" y="157.28571428571428"/>
      <point x="139.42857142857142" y="250.42857142857144" type="curve" smooth="yes"/>
      <point x="139.42857142857142" y="355.57142857142856"/>
      <point x="181.57142857142858" y="417.2857142857143"/>
      <point x="250.42857142857142" y="417.2857142857143" type="curve" smooth="yes"/>
      <point x="306.57142857142856" y="417.2857142857143"/>
      <point x="341.50086683" y="379.67689585385716"/>
      <point x="355.2857142857143" y="285.42857142857144" type="curve"/>
      <point x="378.7142857142857" y="290.57142857142856" type="line"/>
      <point x="121.71428571428572" y="290.57142857142856" type="line"/>
      <point x="121.71428571428572" y="244.85714285714286" type="line"/>
      <point x="433.85714285714283" y="244.85714285714286" type="line"/>
      <point x="438.57142857142856" y="249.85714285714286" type="line"/>
      <point x="438.2857142857143" y="385.57142857142856"/>
      <point x="373.85714285714283" y="461.42857142857144"/>
      <point x="268.14285714285717" y="461.42857142857144" type="curve" smooth="yes"/>
      <point x="149.57142857142858" y="461.42857142857144"/>
      <point x="47.142857142857146" y="355.14285714285717"/>
      <point x="47.142857142857146" y="205.57142857142858" type="curve" smooth="yes"/>
      <point x="47.142857142857146" y="75.28571428571429"/>
      <point x="128.28571428571428" y="-10.0"/>
    </contour>
  </outline>
</glyph>
<glyph name="g" format="2">
  <advance width="544.8571428571429"/>
  <unicode hex="0067"/>
  <anchor x="261.85714285714283" y="510.0" name="top"/>
  <outline>
    <contour>
      <point x="257.7142857142857" y="144.42857142857142" type="curve" smooth="yes"/>
      <point x="361.2857142857143" y="144.42857142857142"/>
      <point x="438.85714285714283" y="212.28571428571428"/>
      <point x="438.85714285714283" y="302.85714285714283" type="curve" smooth="yes"/>
      <point x="438.85714285714283" y="347.42857142857144"/>
      <point x="414.2857142857143" y="394.14285714285717"/>
      <point x="382.0" y="414.0" type="curve"/>
      <point x="353.57142857142856" y="439.85714285714283" type="line"/>
      <point x="330.0" y="452.14285714285717"/>
      <point x="289.7142857142857" y="461.2857142857143"/>
      <point x="257.7142857142857" y="461.2857142857143" type="curve" smooth="yes"/>
      <point x="154.14285714285714" y="461.2857142857143"/>
      <point x="76.57142857142857" y="392.57142857142856"/>
      <point x="76.57142857142857" y="302.85714285714283" type="curve" smooth="yes"/>
      <point x="76.57142857142857" y="212.28571428571428"/>
      <point x="154.14285714285714" y="144.42857142857142"/>
    </contour>
    <contour>
      <point x="267.0" y="185.71428571428572" type="curve" smooth="yes"/>
      <point x="208.42857142857144" y="185.71428571428572"/>
      <point x="167.57142857142856" y="234.42171677871428"/>
      <point x="167.57142857142856" y="305.85714285714283" type="curve" smooth="yes"/>
      <point x="167.57142857142856" y="370.0132592772857"/>
      <point x="197.28571428571428" y="420.85714285714283"/>
      <point x="251.71428571428572" y="420.85714285714283" type="curve" smooth="yes"/>
      <point x="306.42857142857144" y="420.85714285714283"/>
      <point x="348.14285714285717" y="373.55040197885717"/>
      <point x="348.14285714285717" y="299.85714285714283" type="curve" smooth="yes"/>
      <point x="348.14285714285717" y="236.2805607087143"/>
      <point x="317.57142857142856" y="185.71428571428572"/>
    </contour>
    <contour>
      <point x="499.85714285714283" y="395.7142857142857" type="line"/>
      <point x="499.85714285714283" y="451.2857142857143" type="line"/>
      <point x="333.85714285714283" y="441.42857142857144" type="line"/>
      <point x="333.85714285714283" y="386.7142857142857" type="line"/>
      <point x="388.1428571428571" y="386.7142857142857" type="line"/>
      <point x="405.1428571428571" y="402.14285714285717" type="line"/>
    </contour>
    <contour>
      <point x="236.0" y="-240.0" type="curve" smooth="yes"/>
      <point x="384.1428571428571" y="-240.0"/>
      <point x="476.57142857142856" y="-152.42857142857142"/>
      <point x="476.57142857142856" y="-65.0" type="curve" smooth="yes"/>
      <point x="476.57142857142856" y="20.285714285714285"/>
      <point x="430.7142857142857" y="64.14285714285714"/>
      <point x="332.0" y="64.14285714285714" type="curve" smooth="yes"/>
      <point x="214.28571428571428" y="64.14285714285714" type="line" smooth="yes"/>
      <point x="164.28571428571428" y="64.14285714285714"/>
      <point x="142.0" y="79.0"/>
      <point x="142.0" y="113.71428571428571" type="curve" smooth="yes"/>
      <point x="142.0" y="135.57142857142856"/>
      <point x="154.14285714285714" y="155.42857142857142"/>
      <point x="187.14285714285714" y="165.28571428571428" type="curve"/>
      <point x="187.14285714285714" y="182.0" type="line"/>
      <point x="146.28571428571428" y="182.0" type="line"/>
      <point x="146.28571428571428" y="170.28571428571428" type="line"/>
      <point x="91.57142857142857" y="141.0" type="line"/>
      <point x="73.0" y="122.42857142857143"/>
      <point x="65.14285714285714" y="101.57142857142857"/>
      <point x="65.14285714285714" y="74.57142857142857" type="curve" smooth="yes"/>
      <point x="65.14285714285714" y="19.857142857142858"/>
      <point x="110.0" y="-16.428571428571427"/>
      <point x="188.0" y="-16.428571428571427" type="curve" smooth="yes"/>
      <point x="290.0" y="-16.428571428571427" type="line" smooth="yes"/>
      <point x="367.7142857142857" y="-16.428571428571427"/>
      <point x="393.85714285714283" y="-34.857142857142854"/>
      <point x="393.85714285714283" y="-92.0" type="curve" smooth="yes"/>
      <point x="393.85714285714283" y="-153.42857142857142"/>
      <point x="335.42857142857144" y="-210.14285714285714"/>
      <point x="247.57142857142858" y="-210.14285714285714" type="curve" smooth="yes"/>
      <point x="179.85714285714286" y="-210.14285714285714"/>
      <point x="131.42857142857142" y="-168.28571428571428"/>
      <point x="131.42857142857142" y="-110.85714285714286" type="curve" smooth="yes"/>
      <point x="131.42857142857142" y="-61.285714285714285"/>
      <point x="146.85714285714286" y="-29.0"/>
      <point x="192.42857142857142" y="-8.0" type="curve"/>
      <point x="192.42857142857142" y="8.881784197001252e-16" type="line"/>
      <point x="142.71428571428572" y="8.881784197001252e-16" type="line"/>
      <point x="142.71428571428572" y="-15.714285714285714" type="line"/>
      <point x="75.28571428571429" y="-60.285714285714285" type="line"/>
      <point x="63.142857142857146" y="-78.71428571428571"/>
      <point x="57.285714285714285" y="-99.0"/>
      <point x="57.285714285714285" y="-123.85714285714286" type="curve" smooth="yes"/>
      <point x="57.285714285714285" y="-189.42857142857142"/>
      <point x="108.57142857142857" y="-240.0"/>
    </contour>
  </outline>
</glyph>
<glyph name="i" format="2">
  <advance width="317.7142857142857"/>
  <unicode hex="0069"/>
  <anchor x="160.14285714285714" y="510.0" name="top"/>
  <anchor x="160.14285714285714" y="0.0" name="bottom"/>
  <anchor x="180.0" y="0.0" name="right"/>
  <outline>
    <contour>
      <point x="49.14285714285714" y="0.0" type="line"/>
      <point x="269.42857142857144" y="0.0" type="line"/>
      <point x="269.42857142857144" y="16.0" type="line"/>
      <point x="207.28571428571428" y="48.0" type="line"/>
      <point x="207.28571428571428" y="461.42857142857144" type="line"/>
      <point x="199.85714285714286" y="461.42857142857144" type="line"/>
      <point x="52.142857142857146" y="406.42857142857144" type="line"/>
      <point x="52.142857142857146" y="398.14285714285717" type="line"/>
      <point x="113.0" y="347.42857142857144" type="line"/>
      <point x="113.0" y="48.0" type="line"/>
      <point x="49.14285714285714" y="16.0" type="line"/>
    </contour>
    <contour>
      <point x="157.28571428571428" y="577.1428571428571" type="curve" smooth="yes"/>
      <point x="193.14285714285714" y="577.1428571428571"/>
      <point x="220.28571428571428" y="604.2857142857143"/>
      <point x="220.28571428571428" y="640.1428571428571" type="curve" smooth="yes"/>
      <point x="220.28571428571428" y="676.8571428571429"/>
      <point x="193.14285714285714" y="703.1428571428571"/>
      <point x="157.28571428571428" y="703.1428571428571" type="curve" smooth="yes"/>
      <point x="120.57142857142857" y="703.1428571428571"/>
      <point x="94.28571428571429" y="676.8571428571429"/>
      <point x="94.28571428571429" y="640.1428571428571" type="curve" smooth="yes"/>
      <point x="94.28571428571429" y="604.2857142857143"/>
      <point x="120.57142857142857" y="577.1428571428571"/>
    </contour>
  </outline>
</glyph>
<glyph name="j" format="2">
  <advance width="317.85714285714283"/>
  <unicode hex="006A"/>
  <anchor x="159.71428571428572" y="510.0" name="top"/>
  <outline>
    <contour>
      <point x="49.57142857142857" y="-230.0" type="line"/>
      <point x="171.42857142857142" y="-172.85714285714286"/>
      <point x="206.85714285714286" y="-100.0"/>
      <point x="206.85714285714286" y="5.571428571428571" type="curve" smooth="yes"/>
      <point x="206.85714285714286" y="461.42857142857144" type="line"/>
      <point x="199.42857142857142" y="461.42857142857144" type="line"/>
      <point x="51.714285714285715" y="406.42857142857144" type="line"/>
      <point x="51.714285714285715" y="398.14285714285717" type="line"/>
      <point x="112.57142857142857" y="347.42857142857144" type="line"/>
      <point x="112.57142857142857" y="-20.857142857142854" type="line" smooth="yes"/>
      <point x="112.57142857142857" y="-125.57142857142857"/>
      <point x="97.28571428571429" y="-170.28571428571428"/>
      <point x="49.57142857142857" y="-213.42857142857142" type="curve"/>
    </contour>
    <contour>
      <point x="156.85714285714286" y="577.1428571428571" type="curve" smooth="yes"/>
      <point x="192.71428571428572" y="577.1428571428571"/>
      <point x="219.85714285714286" y="604.2857142857143"/>
      <point x="219.85714285714286" y="640.1428571428571" type="curve" smooth="yes"/>
      <point x="219.85714285714286" y="676.8571428571429"/>
      <point x="192.71428571428572" y="703.1428571428571"/>
      <point x="156.85714285714286" y="703.1428571428571" type="curve" smooth="yes"/>
      <point x="120.14285714285714" y="703.1428571428571"/>
      <point x="93.85714285714286" y="676.8571428571429"/>
      <point x="93.85714285714286" y="640.1428571428571" type="curve" smooth="yes"/>
      <point x="93.85714285714286" y="604.2857142857143"/>
      <point x="120.14285714285714" y="577.1428571428571"/>
    </contour>
  </outline>
</glyph>
<glyph name="l" format="2">
  <advance width="301.42857142857144"/>
  <unicode hex="006C"/>
  <anchor x="151.57142857142858" y="765.0" name="top"/>
  <anchor x="323.8571428571429" y="740.0" name="right"/>
  <anchor x="309.57142857142856" y="300.0" name="mid"/>
  <anchor x="151.57142857142858" y="0.0" name="bottom"/>
  <outline>
    <contour>
      <point x="40.57142857142857" y="0.0" type="line"/>
      <point x="260.85714285714283" y="0.0" type="line"/>
      <point x="260.85714285714283" y="16.0" type="line"/>
      <point x="198.71428571428572" y="48.0" type="line"/>
      <point x="198.71428571428572" y="750.0" type="line"/>
      <point x="191.28571428571428" y="750.0" type="line"/>
      <point x="43.57142857142857" y="695.0" type="line"/>
      <point x="43.57142857142857" y="686.7142857142857" type="line"/>
      <point x="104.42857142857143" y="636.0" type="line"/>
      <point x="104.42857142857143" y="48.0" type="line"/>
      <point x="40.57142857142857" y="16.0" type="line"/>
    </contour>
  </outline>
</glyph>
<glyph name="m" format="2">
  <advance width="869.7142857142857"/>
  <unicode hex="006D"/>
  <anchor x="436.2857142857143" y="0.0" name="bottom"/>
  <outline>
    <contour>
      <point x="44.0" y="0.0" type="line"/>
      <point x="263.14285714285717" y="0.0" type="line"/>
      <point x="263.14285714285717" y="16.0" type="line"/>
      <point x="202.14285714285714" y="48.0" type="line"/>
      <point x="202.14285714285714" y="381.42857142857144" type="line"/>
      <point x="192.14285714285714" y="461.42857142857144" type="line"/>
      <point x="184.71428571428572" y="461.42857142857144" type="line"/>
      <point x="47.0" y="405.0" type="line"/>
      <point x="47.0" y="396.7142857142857" type="line"/>
      <point x="107.85714285714286" y="347.42857142857144" type="line"/>
      <point x="107.85714285714286" y="48.0" type="line"/>
      <point x="44.0" y="16.0" type="line"/>
    </contour>
    <contour>
      <point x="326.42857142857144" y="0.0" type="line"/>
      <point x="548.0" y="0.0" type="line"/>
      <point x="548.0" y="16.0" type="line"/>
      <point x="483.42857142857144" y="48.0" type="line"/>
      <point x="483.42857142857144" y="343.0" type="line" smooth="yes"/>
      <point x="483.42857142857144" y="421.0"/>
      <point x="429.1428571428571" y="461.42857142857144"/>
      <point x="353.0" y="461.42857142857144" type="curve" smooth="yes"/>
      <point x="296.57142857142856" y="461.42857142857144"/>
      <point x="255.28571428571428" y="437.42857142857144"/>
      <point x="206.14285714285714" y="387.42857142857144" type="curve"/>
      <point x="194.14285714285714" y="387.42857142857144" type="line"/>
      <point x="194.14285714285714" y="341.57142857142856" type="line"/>
      <point x="215.28571428571428" y="368.57142857142856"/>
      <point x="265.1428571428571" y="383.14285714285717"/>
      <point x="300.85714285714283" y="383.14285714285717" type="curve" smooth="yes"/>
      <point x="352.7142857142857" y="383.14285714285717"/>
      <point x="389.14285714285717" y="353.57142857142856"/>
      <point x="389.14285714285717" y="297.42857142857144" type="curve" smooth="yes"/>
      <point x="389.14285714285717" y="48.0" type="line"/>
      <point x="326.42857142857144" y="16.0" type="line"/>
    </contour>
    <contour>
      <point x="611.2857142857143" y="0.0" type="line"/>
      <point x="835.7142857142857" y="0.0" type="line"/>
      <point x="835.7142857142857" y="16.0" type="line"/>
      <point x="771.8571428571429" y="48.0" type="line"/>
      <point x="771.8571428571429" y="343.0" type="line" smooth="yes"/>
      <point x="771.8571428571429" y="421.0"/>
      <point x="717.5714285714286" y="461.42857142857144"/>
      <point x="641.4285714285714" y="461.42857142857144" type="curve" smooth="yes"/>
      <point x="581.0" y="461.42857142857144"/>
      <point x="538.0" y="433.42857142857144"/>
      <point x="483.1428571428571" y="376.0" type="curve"/>
      <point x="472.85714285714283" y="376.0" type="line"/>
      <point x="472.85714285714283" y="329.14285714285717" type="line"/>
      <point x="495.85714285714283" y="364.2857142857143"/>
      <point x="540.7142857142857" y="383.14285714285717"/>
      <point x="589.2857142857143" y="383.14285714285717" type="curve" smooth="yes"/>
      <point x="641.1428571428571" y="383.14285714285717"/>
      <point x="677.5714285714286" y="353.57142857142856"/>
      <point x="677.5714285714286" y="297.42857142857144" type="curve" smooth="yes"/>
      <point x="677.5714285714286" y="48.0" type="line"/>
      <point x="611.2857142857143" y="16.0" type="line"/>
    </contour>
  </outline>
</glyph>
<glyph name="n" format="2">
  <advance width="590.4285714285714"/>
  <unicode hex="006E"/>
  <anchor x="300.2857142857143" y="510.0" name="top"/>
  <anchor x="300.2857142857143" y="0.0" name="bottom"/>
  <outline>
    <contour>
      <point x="44.0" y="0.0" type="line"/>
      <point x="268.2857142857143" y="0.0" type="line"/>
      <point x="268.2857142857143" y="16.0" type="line"/>
      <point x="202.14285714285714" y="48.0" type="line"/>
      <point x="202.14285714285714" y="381.42857142857144" type="line"/>
      <point x="192.14285714285714" y="461.42857142857144" type="line"/>
      <point x="184.71428571428572" y="461.42857142857144" type="line"/>
      <point x="47.0" y="405.0" type="line"/>
      <point x="47.0" y="396.7142857142857" type="line"/>
      <point x="107.85714285714286" y="347.42857142857144" type="line"/>
      <point x="107.85714285714286" y="48.0" type="line"/>
      <point x="44.0" y="16.0" type="line"/>
    </contour>
    <contour>
      <point x="332.14285714285717" y="0.0" type="line"/>
      <point x="556.4285714285714" y="0.0" type="line"/>
      <point x="556.4285714285714" y="16.0" type="line"/>
      <point x="492.57142857142856" y="48.0" type="line"/>
      <point x="492.57142857142856" y="343.0" type="line" smooth="yes"/>
      <point x="492.57142857142856" y="421.0"/>
      <point x="436.2857142857143" y="461.42857142857144"/>
      <point x="357.57142857142856" y="461.42857142857144" type="curve" smooth="yes"/>
      <point x="299.42857142857144" y="461.42857142857144"/>
      <point x="256.2857142857143" y="437.42857142857144"/>
      <point x="206.14285714285714" y="387.42857142857144" type="curve"/>
      <point x="194.14285714285714" y="387.42857142857144" type="line"/>
      <point x="194.14285714285714" y="341.57142857142856" type="line"/>
      <point x="215.28571428571428" y="368.57142857142856"/>
      <point x="268.0" y="383.14285714285717"/>
      <point x="305.42857142857144" y="383.14285714285717" type="curve" smooth="yes"/>
      <point x="359.85714285714283" y="383.14285714285717"/>
      <point x="398.2857142857143" y="353.57142857142856"/>
      <point x="398.2857142857143" y="297.42857142857144" type="curve" smooth="yes"/>
      <point x="398.2857142857143" y="48.0" type="line"/>
      <point x="332.14285714285717" y="16.0" type="line"/>
    </contour>
  </outline>
</glyph>
<glyph name="o" format="2">
  <advance width="541.7142857142857"/>
  <unicode hex="006F"/>
  <anchor x="268.2857142857143" y="510.0" name="top"/>
  <anchor x="307.7142857142857" y="0.0" name="right"/>
  <anchor x="276.0" y="0.0" name="bottom"/>
  <outline>
    <contour>
      <point x="270.85714285714283" y="-10.0" type="curve" smooth="yes"/>
      <point x="404.42857142857144" y="-10.0"/>
      <point x="495.2857142857143" y="92.57142857142857"/>
      <point x="495.2857142857143" y="225.71428571428572" type="curve" smooth="yes"/>
      <point x="495.2857142857143" y="359.0"/>
      <point x="404.42857142857144" y="461.42857142857144"/>
      <point x="270.85714285714283" y="461.42857142857144" type="curve" smooth="yes"/>
      <point x="137.28571428571428" y="461.42857142857144"/>
      <point x="46.42857142857143" y="359.0"/>
      <point x="46.42857142857143" y="225.71428571428572" type="curve" smooth="yes"/>
      <point x="46.42857142857143" y="92.57142857142857"/>
      <point x="137.28571428571428" y="-10.0"/>
    </contour>
    <contour>
      <point x="284.14285714285717" y="34.42857142857143" type="curve" smooth="yes"/>
      <point x="189.31724137942857" y="34.42857142857143"/>
      <point x="149.28571428571428" y="139.94949494942858"/>
      <point x="149.28571428571428" y="246.71428571428572" type="curve" smooth="yes"/>
      <point x="149.28571428571428" y="334.50591446771426"/>
      <point x="182.85714285714286" y="418.0"/>
      <point x="259.57142857142856" y="418.0" type="curve" smooth="yes"/>
      <point x="354.0" y="418.0"/>
      <point x="392.42857142857144" y="312.47907647914286"/>
      <point x="392.42857142857144" y="205.71428571428572" type="curve" smooth="yes"/>
      <point x="392.42857142857144" y="118.931756142"/>
      <point x="359.9706959705714" y="34.42857142857143"/>
    </contour>
  </outline>
</glyph>
<glyph name="q" format="2">
  <advance width="563.1428571428571"/>
  <unicode hex="0071"/>
  <outline>
    <contour>
      <point x="297.57142857142856" y="-230.0" type="line"/>
      <point x="528.2857142857143" y="-230.0" type="line"/>
      <point x="528.2857142857143" y="-214.0" type="line"/>
      <point x="464.42857142857144" y="-182.85714285714286" type="line"/>
      <point x="464.42857142857144" y="461.42857142857144" type="line"/>
      <point x="457.0" y="461.42857142857144" type="line"/>
      <point x="377.7142857142857" y="427.7142857142857" type="line"/>
      <point x="434.57142857142856" y="427.7142857142857" type="line"/>
      <point x="381.76205208457145" y="448.823706398"/>
      <point x="344.2857142857143" y="461.42857142857144"/>
      <point x="286.42857142857144" y="461.42857142857144" type="curve" smooth="yes"/>
      <point x="153.42857142857142" y="461.42857142857144"/>
      <point x="44.714285714285715" y="363.57142857142856"/>
      <point x="44.714285714285715" y="194.14285714285714" type="curve" smooth="yes"/>
      <point x="44.714285714285715" y="68.28571428571429"/>
      <point x="119.0" y="-10.0"/>
      <point x="217.28571428571428" y="-10.0" type="curve" smooth="yes"/>
      <point x="269.14285714285717" y="-10.0"/>
      <point x="317.0" y="9.142857142857142"/>
      <point x="364.0" y="49.57142857142857" type="curve"/>
      <point x="384.2857142857143" y="49.57142857142857" type="line"/>
      <point x="384.2857142857143" y="98.71428571428571" type="line"/>
      <point x="349.7142857142857" y="74.0"/>
      <point x="309.7142857142857" y="62.14285714285714"/>
      <point x="278.7142857142857" y="62.14285714285714" type="curve" smooth="yes"/>
      <point x="202.85714285714286" y="62.14285714285714"/>
      <point x="139.0" y="110.14285714285714"/>
      <point x="139.0" y="218.85714285714286" type="curve" smooth="yes"/>
      <point x="139.0" y="360.85714285714283"/>
      <point x="198.28571428571428" y="411.57142857142856"/>
      <point x="269.2857142857143" y="411.57142857142856" type="curve" smooth="yes"/>
      <point x="302.42857142857144" y="411.57142857142856"/>
      <point x="333.7142857142857" y="405.7142857142857"/>
      <point x="358.85714285714283" y="384.0" type="curve" smooth="yes"/>
      <point x="369.14285714285717" y="375.42857142857144"/>
      <point x="370.14285714285717" y="372.7142857142857"/>
      <point x="370.14285714285717" y="328.42857142857144" type="curve" smooth="yes"/>
      <point x="370.14285714285717" y="-185.42857142857144" type="line"/>
      <point x="297.57142857142856" y="-214.0" type="line"/>
    </contour>
  </outline>
</glyph>
<glyph name="r" format="2">
  <advance width="403.57142857142856"/>
  <unicode hex="0072"/>
  <anchor x="228.0" y="510.0" name="top"/>
  <anchor x="158.42857142857142" y="0.0" name="bottom"/>
  <outline>
    <contour>
      <point x="47.42857142857143" y="0.0" type="line"/>
      <point x="278.85714285714283" y="0.0" type="line"/>
      <point x="278.85714285714283" y="16.0" type="line"/>
      <point x="205.57142857142856" y="48.0" type="line"/>
      <point x="205.57142857142856" y="367.2857142857143" type="line"/>
      <point x="195.57142857142856" y="461.42857142857144" type="line"/>
      <point x="188.14285714285714" y="461.42857142857144" type="line"/>
      <point x="50.42857142857143" y="405.0" type="line"/>
      <point x="50.42857142857143" y="396.7142857142857" type="line"/>
      <point x="111.28571428571429" y="346.0" type="line"/>
      <point x="111.28571428571429" y="48.0" type="line"/>
      <point x="47.42857142857143" y="16.0" type="line"/>
    </contour>
    <contour>
      <point x="277.0" y="375.2857142857143" type="curve" smooth="yes"/>
      <point x="291.85714285714283" y="375.2857142857143"/>
      <point x="305.57142857142856" y="374.0"/>
      <point x="321.7142857142857" y="367.7142857142857" type="curve" smooth="yes"/>
      <point x="356.85714285714283" y="354.0" type="line"/>
      <point x="363.85714285714283" y="354.0" type="line"/>
      <point x="384.85714285714283" y="406.85714285714283" type="line" smooth="yes"/>
      <point x="387.7142857142857" y="413.7142857142857"/>
      <point x="388.7142857142857" y="419.7142857142857"/>
      <point x="388.7142857142857" y="424.57142857142856" type="curve" smooth="yes"/>
      <point x="388.7142857142857" y="436.57142857142856"/>
      <point x="374.7142857142857" y="446.57142857142856"/>
      <point x="358.7142857142857" y="452.7142857142857" type="curve" smooth="yes"/>
      <point x="349.2857142857143" y="456.7142857142857"/>
      <point x="333.57142857142856" y="461.42857142857144"/>
      <point x="322.42857142857144" y="461.42857142857144" type="curve" smooth="yes"/>
      <point x="287.42857142857144" y="461.42857142857144"/>
      <point x="255.57142857142858" y="450.7142857142857"/>
      <point x="208.71428571428572" y="375.2857142857143" type="curve"/>
      <point x="197.57142857142856" y="375.2857142857143" type="line"/>
      <point x="197.57142857142856" y="320.57142857142856" type="line"/>
      <point x="218.28571428571428" y="357.0"/>
      <point x="244.85714285714286" y="375.2857142857143"/>
    </contour>
  </outline>
</glyph>
<glyph name="s" format="2">
  <advance width="433.2857142857143"/>
  <unicode hex="0073"/>
  <anchor x="216.0" y="510.0" name="top"/>
  <anchor x="215.85714285714286" y="0.0" name="bottom"/>
  <outline>
    <contour>
      <point x="212.14285714285714" y="-10.0" type="curve" smooth="yes"/>
      <point x="283.42857142857144" y="-10.0"/>
      <point x="368.57142857142856" y="39.285714285714285"/>
      <point x="368.57142857142856" y="129.57142857142856" type="curve" smooth="yes"/>
      <point x="368.57142857142856" y="223.5839416057143"/>
      <point x="303.9120930697143" y="243.47773035057145"/>
      <point x="246.85714285714286" y="269.57142857142856" type="curve" smooth="yes"/>
      <point x="179.30047130999998" y="299.4767055494286"/>
      <point x="149.57142857142856" y="316.0"/>
      <point x="149.57142857142856" y="358.7142857142857" type="curve" smooth="yes"/>
      <point x="149.57142857142856" y="397.7416413374286"/>
      <point x="178.90618336885714" y="421.0"/>
      <point x="222.57142857142858" y="421.0" type="curve" smooth="yes"/>
      <point x="255.537720706" y="421.0"/>
      <point x="281.09252779514287" y="405.0245549265714"/>
      <point x="304.2857142857143" y="368.57142857142856" type="curve" smooth="yes"/>
      <point x="336.85714285714283" y="317.0" type="line"/>
      <point x="351.1428571428571" y="317.0" type="line"/>
      <point x="351.1428571428571" y="428.2857142857143" type="line"/>
      <point x="309.2857142857143" y="449.42857142857144"/>
      <point x="268.2857142857143" y="461.42857142857144"/>
      <point x="220.28571428571428" y="461.42857142857144" type="curve" smooth="yes"/>
      <point x="143.57142857142858" y="461.42857142857144"/>
      <point x="71.28571428571429" y="400.14285714285717"/>
      <point x="71.28571428571429" y="323.14285714285717" type="curve" smooth="yes"/>
      <point x="71.28571428571429" y="257.9485714285714"/>
      <point x="108.18549132085714" y="225.68224450257145"/>
      <point x="178.14285714285714" y="194.57142857142858" type="curve" smooth="yes"/>
      <point x="251.3491966357143" y="161.63447802285717"/>
      <point x="292.14285714285717" y="148.90109890142855"/>
      <point x="292.14285714285717" y="95.57142857142857" type="curve" smooth="yes"/>
      <point x="292.14285714285717" y="53.54081632652857"/>
      <point x="262.0" y="28.0"/>
      <point x="208.85714285714286" y="28.0" type="curve" smooth="yes"/>
      <point x="161.71428571428572" y="28.0"/>
      <point x="129.0" y="46.285714285714285"/>
      <point x="107.42857142857143" y="83.0" type="curve" smooth="yes"/>
      <point x="74.71428571428571" y="137.42857142857142" type="line"/>
      <point x="60.42857142857143" y="137.42857142857142" type="line"/>
      <point x="60.42857142857143" y="24.57142857142857" type="line"/>
      <point x="107.42857142857143" y="0.7142857142857142"/>
      <point x="148.42857142857142" y="-10.0"/>
    </contour>
  </outline>
</glyph>
<glyph name="t" format="2">
  <advance width="361.57142857142856"/>
  <unicode hex="0074"/>
  <anchor x="165.85714285714286" y="610.0" name="top"/>
  <anchor x="319.42857142857144" y="740.0" name="right"/>
  <anchor x="214.57142857142858" y="0.0" name="bottom"/>
  <outline>
    <contour>
      <point x="211.14285714285714" y="-10.0" type="curve" smooth="yes"/>
      <point x="273.82633053214283" y="-10.0"/>
      <point x="316.87924813585715" y="22.41816659004286"/>
      <point x="332.7142857142857" y="53.0" type="curve"/>
      <point x="332.7142857142857" y="64.71428571428572" type="line"/>
      <point x="329.7142857142857" y="65.0" type="line"/>
      <point x="313.1428571428571" y="61.0"/>
      <point x="291.1428571428571" y="58.0"/>
      <point x="266.2857142857143" y="58.0" type="curve" smooth="yes"/>
      <point x="224.71428571428572" y="58.0"/>
      <point x="190.0" y="74.0"/>
      <point x="190.0" y="108.0" type="curve" smooth="yes"/>
      <point x="190.0" y="404.85714285714283" type="line"/>
      <point x="323.42857142857144" y="404.85714285714283" type="line"/>
      <point x="323.42857142857144" y="451.42857142857144" type="line"/>
      <point x="190.0" y="451.42857142857144" type="line"/>
      <point x="190.0" y="561.4285714285714" type="line"/>
      <point x="180.71428571428572" y="561.4285714285714" type="line"/>
      <point x="102.85714285714286" y="451.42857142857144" type="line"/>
      <point x="16.142857142857142" y="412.7142857142857" type="line"/>
      <point x="16.142857142857142" y="404.85714285714283" type="line"/>
      <point x="95.71428571428572" y="404.85714285714283" type="line"/>
      <point x="95.71428571428572" y="89.0" type="line" smooth="yes"/>
      <point x="95.71428571428572" y="26.0"/>
      <point x="146.885361552" y="-10.0"/>
    </contour>
  </outline>
</glyph>
<glyph name="v" format="2">
  <advance width="479.0"/>
  <unicode hex="0076"/>
  <outline>
    <contour>
      <point x="224.42857142857142" y="0.0" type="line"/>
      <point x="242.57142857142856" y="0.0" type="line"/>
      <point x="282.7142857142857" y="90.85714285714285" type="line"/>
      <point x="282.7142857142857" y="134.57142857142856" type="line"/>
      <point x="266.7142857142857" y="134.57142857142856" type="line"/>
      <point x="144.42857142857142" y="400.2857142857143" type="line"/>
      <point x="144.42857142857142" y="405.7142857142857" type="line"/>
      <point x="223.28571428571428" y="435.42857142857144" type="line"/>
      <point x="223.28571428571428" y="451.42857142857144" type="line"/>
      <point x="-26.0" y="451.42857142857144" type="line"/>
      <point x="-26.0" y="435.42857142857144" type="line"/>
      <point x="39.857142857142854" y="405.2857142857143" type="line"/>
    </contour>
    <contour>
      <point x="249.42857142857144" y="0.0" type="line"/>
      <point x="431.85714285714283" y="400.7142857142857" type="line"/>
      <point x="505.0" y="435.42857142857144" type="line"/>
      <point x="505.0" y="451.42857142857144" type="line"/>
      <point x="308.85714285714283" y="451.42857142857144" type="line"/>
      <point x="308.85714285714283" y="435.42857142857144" type="line"/>
      <point x="378.85714285714283" y="400.2857142857143" type="line"/>
      <point x="378.85714285714283" y="394.85714285714283" type="line"/>
      <point x="233.71428571428572" y="44.57142857142857" type="line"/>
      <point x="233.71428571428572" y="0.0" type="line"/>
    </contour>
  </outline>
</glyph>
<glyph name="w" format="2">
  <advance width="747.0"/>
  <unicode hex="0077"/>
  <anchor x="396.57142857142856" y="510.0" name="top"/>
  <outline>
    <contour>
      <point x="198.57142857142858" y="0.0" type="line"/>
      <point x="216.71428571428572" y="0.0" type="line"/>
      <point x="258.7142857142857" y="94.0" type="line"/>
      <point x="258.7142857142857" y="136.0" type="line"/>
      <point x="243.57142857142856" y="136.0" type="line"/>
      <point x="144.42857142857144" y="400.2857142857143" type="line"/>
      <point x="144.42857142857144" y="405.7142857142857" type="line"/>
      <point x="223.28571428571428" y="435.42857142857144" type="line"/>
      <point x="223.28571428571428" y="451.42857142857144" type="line"/>
      <point x="-26.0" y="451.42857142857144" type="line"/>
      <point x="-26.0" y="435.42857142857144" type="line"/>
      <point x="39.857142857142854" y="405.2857142857143" type="line"/>
    </contour>
    <contour>
      <point x="383.57142857142856" y="451.42857142857144" type="line"/>
      <point x="209.42857142857142" y="46.0" type="line"/>
      <point x="209.42857142857142" y="0.0" type="line"/>
      <point x="223.57142857142856" y="0.0" type="line"/>
      <point x="386.1428571428571" y="355.0" type="line"/>
      <point x="348.14285714285717" y="355.0" type="line"/>
      <point x="505.85714285714283" y="0.0" type="line"/>
      <point x="524.0" y="0.0" type="line"/>
      <point x="559.0" y="106.85714285714285" type="line"/>
      <point x="408.57142857142856" y="451.42857142857144" type="line"/>
    </contour>
    <contour>
      <point x="530.8571428571429" y="0.0" type="line"/>
      <point x="699.8571428571429" y="400.7142857142857" type="line"/>
      <point x="773.0" y="435.42857142857144" type="line"/>
      <point x="773.0" y="451.42857142857144" type="line"/>
      <point x="576.8571428571429" y="451.42857142857144" type="line"/>
      <point x="576.8571428571429" y="435.42857142857144" type="line"/>
      <point x="646.8571428571429" y="400.42857142857144" type="line"/>
      <point x="646.8571428571429" y="394.85714285714283" type="line"/>
      <point x="549.4285714285714" y="138.57142857142856" type="line"/>
      <point x="518.4285714285714" y="138.57142857142856" type="line"/>
      <point x="518.4285714285714" y="0.0" type="line"/>
    </contour>
  </outline>
</glyph>
<glyph name="x" format="2">
  <advance width="508.57142857142856"/>
  <unicode hex="0078"/>
  <outline>
    <contour>
      <point x="273.85714285714283" y="0.0" type="line"/>
      <point x="484.85714285714283" y="0.0" type="line"/>
      <point x="484.85714285714283" y="16.0" type="line"/>
      <point x="443.85714285714283" y="46.14285714285714" type="line"/>
      <point x="185.0" y="400.2857142857143" type="line"/>
      <point x="185.0" y="406.2857142857143" type="line"/>
      <point x="250.14285714285714" y="435.42857142857144" type="line"/>
      <point x="250.14285714285714" y="451.42857142857144" type="line"/>
      <point x="28.0" y="451.42857142857144" type="line"/>
      <point x="28.0" y="435.42857142857144" type="line"/>
      <point x="74.57142857142857" y="405.2857142857143" type="line"/>
      <point x="333.42857142857144" y="51.14285714285714" type="line"/>
      <point x="333.42857142857144" y="45.14285714285714" type="line"/>
      <point x="273.85714285714283" y="16.0" type="line"/>
    </contour>
    <contour>
      <point x="24.0" y="0.0" type="line"/>
      <point x="201.57142857142856" y="0.0" type="line"/>
      <point x="201.57142857142856" y="16.0" type="line"/>
      <point x="141.0" y="51.14285714285714" type="line"/>
      <point x="141.0" y="57.14285714285714" type="line"/>
      <point x="257.2857142857143" y="224.71428571428572" type="line"/>
      <point x="232.0" y="247.71428571428572" type="line"/>
      <point x="77.57142857142857" y="50.14285714285714" type="line"/>
      <point x="24.0" y="16.0" type="line"/>
    </contour>
    <contour>
      <point x="467.85714285714283" y="451.42857142857144" type="line"/>
      <point x="298.85714285714283" y="451.42857142857144" type="line"/>
      <point x="298.85714285714283" y="435.42857142857144" type="line"/>
      <point x="354.42857142857144" y="400.2857142857143" type="line"/>
      <point x="354.42857142857144" y="394.2857142857143" type="line"/>
      <point x="248.85714285714286" y="243.71428571428572" type="line"/>
      <point x="273.57142857142856" y="220.71428571428572" type="line"/>
      <point x="414.85714285714283" y="401.2857142857143" type="line"/>
      <point x="467.85714285714283" y="435.42857142857144" type="line"/>
    </contour>
  </outline>
</glyph>
<glyph name="y" format="2">
  <advance width="479.0"/>
  <unicode hex="0079"/>
  <anchor x="267.8571428571429" y="510.0" name="top"/>
  <anchor x="305.2857142857143" y="-25.42857142857143" name="bottom"/>
  <outline>
    <contour>
      <point x="-26.142857142857142" y="451.42857142857144" type="line"/>
      <point x="-26.142857142857142" y="435.42857142857144" type="line"/>
      <point x="39.714285714285715" y="405.2857142857143" type="line"/>
      <point x="233.14285714285714" y="-7.857142857142857" type="line"/>
      <point x="290.1428571428571" y="86.28571428571428" type="line"/>
      <point x="290.1428571428571" y="124.28571428571428" type="line"/>
      <point x="272.0" y="124.28571428571428" type="line"/>
      <point x="144.28571428571428" y="400.2857142857143" type="line"/>
      <point x="144.28571428571428" y="404.85714285714283" type="line"/>
      <point x="221.71428571428572" y="435.42857142857144" type="line"/>
      <point x="221.71428571428572" y="451.42857142857144" type="line"/>
    </contour>
    <contour>
      <point x="83.0" y="-241.0" type="curve" smooth="yes"/>
      <point x="116.42857142857142" y="-241.0"/>
      <point x="153.28571428571428" y="-221.14285714285714"/>
      <point x="180.42857142857142" y="-183.0" type="curve" smooth="yes"/>
      <point x="210.42857142857144" y="-141.0"/>
      <point x="214.42857142857144" y="-125.85714285714286"/>
      <point x="233.42857142857142" y="-79.0" type="curve" smooth="yes"/>
      <point x="431.0" y="401.57142857142856" type="line"/>
      <point x="505.0" y="435.42857142857144" type="line"/>
      <point x="505.0" y="451.42857142857144" type="line"/>
      <point x="310.2857142857143" y="451.42857142857144" type="line"/>
      <point x="310.2857142857143" y="435.42857142857144" type="line"/>
      <point x="381.42857142857144" y="400.2857142857143" type="line"/>
      <point x="381.42857142857144" y="394.85714285714283" type="line"/>
      <point x="258.2857142857143" y="78.28571428571428" type="line"/>
      <point x="193.57142857142856" y="-68.57142857142858" type="line" smooth="yes"/>
      <point x="156.71428571428572" y="-150.28571428571428"/>
      <point x="148.14285714285714" y="-153.28571428571428"/>
      <point x="99.0" y="-153.28571428571428" type="curve" smooth="yes"/>
      <point x="53.285714285714285" y="-153.28571428571428" type="line"/>
      <point x="49.0" y="-157.57142857142856" type="line"/>
      <point x="49.0" y="-212.0" type="line" smooth="yes"/>
      <point x="49.0" y="-234.0"/>
      <point x="53.0" y="-241.0"/>
    </contour>
  </outline>
</glyph>
<glyph name="z" format="2">
  <advance width="486.7142857142857"/>
  <unicode hex="007A"/>
  <anchor x="246.42857142857142" y="510.0" name="top"/>
  <anchor x="246.42857142857142" y="0.0" name="bottom"/>
  <outline>
    <contour>
      <point x="65.85714285714286" y="0.0" type="line"/>
      <point x="416.7142857142857" y="0.0" type="line"/>
      <point x="416.7142857142857" y="153.85714285714286" type="line"/>
      <point x="400.0" y="153.85714285714286" type="line"/>
      <point x="348.14285714285717" y="8.0" type="line"/>
      <point x="390.7142857142857" y="44.714285714285715" type="line"/>
      <point x="168.14285714285714" y="44.714285714285715" type="line"/>
      <point x="168.14285714285714" y="13.0" type="line"/>
      <point x="408.7142857142857" y="433.0" type="line"/>
      <point x="408.7142857142857" y="451.42857142857144" type="line"/>
      <point x="145.85714285714286" y="451.42857142857144" type="line" smooth="yes"/>
      <point x="128.14285714285714" y="451.42857142857144"/>
      <point x="98.14285714285714" y="457.2857142857143"/>
      <point x="80.85714285714286" y="461.42857142857144" type="curve"/>
      <point x="75.85714285714286" y="461.42857142857144" type="line"/>
      <point x="64.85714285714286" y="304.57142857142856" type="line"/>
      <point x="81.57142857142857" y="304.57142857142856" type="line"/>
      <point x="144.42857142857142" y="441.42857142857144" type="line"/>
      <point x="100.85714285714286" y="406.7142857142857" type="line"/>
      <point x="306.42857142857144" y="406.7142857142857" type="line"/>
      <point x="306.42857142857144" y="438.42857142857144" type="line"/>
      <point x="65.85714285714286" y="18.428571428571427" type="line"/>
    </contour>
  </outline>
</glyph>
<glyph name="braceleft" format="2">
  <advance width="252.85714285714286"/>
  <unicode hex="007B"/>
  <outline>
    <contour>
      <point x="224.57142857142856" y="-150.0" type="curve" smooth="yes"/>
      <point x="245.0" y="-150.0" type="line"/>
      <point x="245.0" y="-126.28571428571429" type="line"/>
      <point x="218.0" y="-126.28571428571429" type="line" smooth="yes"/>
      <point x="160.0" y="-126.28571428571429"/>
      <point x="132.0" y="-89.57142857142857"/>
      <point x="132.0" y="-35.0" type="curve" smooth="yes"/>
      <point x="132.0" y="43.0"/>
      <point x="175.0" y="108.0"/>
      <point x="175.0" y="177.0" type="curve" smooth="yes"/>
      <point x="175.0" y="226.0"/>
      <point x="152.42857142857142" y="265.42857142857144"/>
      <point x="87.57142857142857" y="295.0" type="curve"/>
      <point x="152.42857142857142" y="324.7142857142857"/>
      <point x="175.0" y="364.0"/>
      <point x="175.0" y="413.0" type="curve" smooth="yes"/>
      <point x="175.0" y="482.0"/>
      <point x="132.0" y="547.0"/>
      <point x="132.0" y="625.0" type="curve" smooth="yes"/>
      <point x="132.0" y="679.5714285714286"/>
      <point x="160.0" y="716.2857142857143"/>
      <point x="218.0" y="716.2857142857143" type="curve" smooth="yes"/>
      <point x="245.0" y="716.2857142857143" type="line"/>
      <point x="245.0" y="740.0" type="line"/>
      <point x="224.57142857142856" y="740.0" type="line" smooth="yes"/>
      <point x="113.57142857142857" y="740.0"/>
      <point x="66.57142857142857" y="686.0"/>
      <point x="66.57142857142857" y="607.0" type="curve" smooth="yes"/>
      <point x="66.57142857142857" y="524.0"/>
      <point x="114.57142857142857" y="459.0"/>
      <point x="114.57142857142857" y="391.0" type="curve" smooth="yes"/>
      <point x="114.57142857142857" y="347.14285714285717"/>
      <point x="93.57142857142857" y="307.2857142857143"/>
      <point x="28.57142857142857" y="307.2857142857143" type="curve" smooth="yes"/>
      <point x="3.5714285714285716" y="307.2857142857143" type="line"/>
      <point x="3.5714285714285716" y="283.7142857142857" type="line"/>
      <point x="28.57142857142857" y="283.7142857142857" type="line" smooth="yes"/>
      <point x="93.57142857142857" y="283.7142857142857"/>
      <point x="114.57142857142857" y="243.85714285714286"/>
      <point x="114.57142857142857" y="199.0" type="curve" smooth="yes"/>
      <point x="114.57142857142857" y="131.0"/>
      <point x="66.57142857142857" y="66.0"/>
      <point x="66.57142857142857" y="-17.0" type="curve" smooth="yes"/>
      <point x="66.57142857142857" y="-96.0"/>
      <point x="113.57142857142857" y="-150.0"/>
    </contour>
  </outline>
</glyph>
<glyph name="braceright" format="2">
  <advance width="252.85714285714286"/>
  <unicode hex="007D"/>
  <outline>
    <contour>
      <point x="28.285714285714285" y="-150.0" type="line" smooth="yes"/>
      <point x="139.28571428571428" y="-150.0"/>
      <point x="186.28571428571428" y="-96.0"/>
      <point x="186.28571428571428" y="-17.0" type="curve" smooth="yes"/>
      <point x="186.28571428571428" y="66.0"/>
      <point x="138.28571428571428" y="131.0"/>
      <point x="138.28571428571428" y="199.0" type="curve" smooth="yes"/>
      <point x="138.28571428571428" y="243.85714285714286"/>
      <point x="159.28571428571428" y="283.7142857142857"/>
      <point x="224.28571428571428" y="283.7142857142857" type="curve" smooth="yes"/>
      <point x="249.28571428571428" y="283.7142857142857" type="line"/>
      <point x="249.28571428571428" y="307.2857142857143" type="line"/>
      <point x="224.28571428571428" y="307.2857142857143" type="line" smooth="yes"/>
      <point x="159.28571428571428" y="307.2857142857143"/>
      <point x="138.28571428571428" y="347.14285714285717"/>
      <point x="138.28571428571428" y="391.0" type="curve" smooth="yes"/>
      <point x="138.28571428571428" y="459.0"/>
      <point x="186.28571428571428" y="524.0"/>
      <point x="186.28571428571428" y="607.0" type="curve" smooth="yes"/>
      <point x="186.28571428571428" y="686.0"/>
      <point x="139.28571428571428" y="740.0"/>
      <point x="28.285714285714285" y="740.0" type="curve" smooth="yes"/>
      <point x="7.857142857142857" y="740.0" type="line"/>
      <point x="7.857142857142857" y="716.2857142857143" type="line"/>
      <point x="34.857142857142854" y="716.2857142857143" type="line" smooth="yes"/>
      <point x="92.85714285714286" y="716.2857142857143"/>
      <point x="120.85714285714286" y="679.5714285714286"/>
      <point x="120.85714285714286" y="625.0" type="curve" smooth="yes"/>
      <point x="120.85714285714286" y="547.0"/>
      <point x="77.85714285714286" y="482.0"/>
      <point x="77.85714285714286" y="413.0" type="curve" smooth="yes"/>
      <point x="77.85714285714286" y="364.0"/>
      <point x="100.42857142857143" y="324.7142857142857"/>
      <point x="165.28571428571428" y="295.0" type="curve"/>
      <point x="100.42857142857143" y="265.42857142857144"/>
      <point x="77.85714285714286" y="226.0"/>
      <point x="77.85714285714286" y="177.0" type="curve" smooth="yes"/>
      <point x="77.85714285714286" y="108.0"/>
      <point x="120.85714285714286" y="43.0"/>
      <point x="120.85714285714286" y="-35.0" type="curve" smooth="yes"/>
      <point x="120.85714285714286" y="-89.57142857142857"/>
      <point x="92.85714285714286" y="-126.28571428571429"/>
      <point x="34.857142857142854" y="-126.28571428571429" type="curve" smooth="yes"/>
      <point x="7.857142857142857" y="-126.28571428571429" type="line"/>
      <point x="7.857142857142857" y="-150.0" type="line"/>
    </contour>
  </outline>
</glyph>
<glyph name="asciitilde" format="2">
  <advance width="514.2857142857143"/>
  <unicode hex="007E"/>
  <outline>
    <contour>
      <point x="47.14285714285714" y="201.0" type="curve"/>
      <point x="99.85714285714286" y="201.0" type="line"/>
      <point x="99.85714285714286" y="259.57142857142856"/>
      <point x="121.71428571428571" y="291.42857142857144"/>
      <point x="159.85714285714286" y="291.42857142857144" type="curve" smooth="yes"/>
      <point x="224.71428571428572" y="291.42857142857144"/>
      <point x="258.0" y="201.0"/>
      <point x="353.14285714285717" y="201.0" type="curve" smooth="yes"/>
      <point x="422.7142857142857" y="201.0"/>
      <point x="467.14285714285717" y="252.57142857142858"/>
      <point x="467.14285714285717" y="343.0" type="curve"/>
      <point x="414.42857142857144" y="343.0" type="line"/>
      <point x="414.42857142857144" y="281.42857142857144"/>
      <point x="396.7142857142857" y="252.57142857142856"/>
      <point x="354.42857142857144" y="252.57142857142856" type="curve" smooth="yes"/>
      <point x="288.42857142857144" y="252.57142857142856"/>
      <point x="256.2857142857143" y="343.0"/>
      <point x="161.14285714285714" y="343.0" type="curve" smooth="yes"/>
      <point x="92.14285714285714" y="343.0"/>
      <point x="47.14285714285714" y="291.0"/>
    </contour>
  </outline>
</glyph>
<glyph name="exclamdown" format="2">
  <advance width="254.42857142857142"/>
  <unicode hex="00A1"/>
  <outline>
    <contour>
      <point x="66.71428571428572" y="-203.57142857142858" type="line"/>
      <point x="187.71428571428572" y="-203.57142857142858" type="line"/>
      <point x="138.71428571428572" y="252.14285714285714" type="line"/>
      <point x="115.85714285714286" y="252.14285714285714" type="line"/>
    </contour>
    <contour>
      <point x="127.28571428571429" y="333.14285714285717" type="curve" smooth="yes"/>
      <point x="161.14285714285714" y="333.14285714285717"/>
      <point x="191.42857142857142" y="362.57142857142856"/>
      <point x="191.42857142857142" y="397.2857142857143" type="curve" smooth="yes"/>
      <point x="191.42857142857142" y="431.14285714285717"/>
      <point x="161.14285714285714" y="461.42857142857144"/>
      <point x="127.28571428571429" y="461.42857142857144" type="curve" smooth="yes"/>
      <point x="92.57142857142857" y="461.42857142857144"/>
      <point x="63.14285714285714" y="431.14285714285717"/>
      <point x="63.14285714285714" y="397.2857142857143" type="curve" smooth="yes"/>
      <point x="63.14285714285714" y="362.57142857142856"/>
      <point x="92.57142857142857" y="333.14285714285717"/>
    </contour>
  </outline>
</glyph>
<glyph name="cent" format="2">
  <advance width="514.2857142857143"/>
  <unicode hex="00A2"/>
  <outline>
    <contour>
      <point x="270.7142857142857" y="95.14285714285714" type="curve" smooth="yes"/>
      <point x="349.2857142857143" y="95.14285714285714"/>
      <point x="411.42857142857144" y="137.14285714285714"/>
      <point x="450.2857142857143" y="195.57142857142856" type="curve"/>
      <point x="450.2857142857143" y="221.42857142857142" type="line"/>
      <point x="447.2857142857143" y="221.42857142857142" type="line"/>
      <point x="398.7142857142857" y="194.42857142857144"/>
      <point x="355.7142857142857" y="181.57142857142856"/>
      <point x="318.7142857142857" y="181.57142857142856" type="curve" smooth="yes"/>
      <point x="206.85714285714286" y="181.57142857142856"/>
      <point x="155.71428571428572" y="244.85714285714286"/>
      <point x="155.71428571428572" y="357.0" type="curve" smooth="yes"/>
      <point x="155.71428571428572" y="460.2857142857143"/>
      <point x="195.85714285714286" y="520.0"/>
      <point x="266.14285714285717" y="520.0" type="curve" smooth="yes"/>
      <point x="309.2857142857143" y="520.0"/>
      <point x="333.57142857142856" y="503.7142857142857"/>
      <point x="354.42857142857144" y="475.57142857142856" type="curve" smooth="yes"/>
      <point x="388.2857142857143" y="429.7142857142857" type="line"/>
      <point x="395.2857142857143" y="429.7142857142857" type="line"/>
      <point x="435.42857142857144" y="463.57142857142856" type="line" smooth="yes"/>
      <point x="445.42857142857144" y="471.7142857142857"/>
      <point x="448.2857142857143" y="477.57142857142856"/>
      <point x="448.2857142857143" y="487.57142857142856" type="curve" smooth="yes"/>
      <point x="448.2857142857143" y="495.57142857142856"/>
      <point x="443.42857142857144" y="504.57142857142856"/>
      <point x="432.42857142857144" y="517.5714285714286" type="curve" smooth="yes"/>
      <point x="406.2857142857143" y="546.7142857142857"/>
      <point x="350.85714285714283" y="565.7142857142857"/>
      <point x="295.0" y="565.7142857142857" type="curve" smooth="yes"/>
      <point x="160.14285714285714" y="565.7142857142857"/>
      <point x="60.0" y="460.2857142857143"/>
      <point x="60.0" y="310.7142857142857" type="curve" smooth="yes"/>
      <point x="60.0" y="180.42857142857144"/>
      <point x="141.71428571428572" y="95.14285714285714"/>
    </contour>
    <contour>
      <point x="173.85714285714286" y="26.0" type="line"/>
      <point x="212.14285714285714" y="26.0" type="line"/>
      <point x="362.14285714285717" y="635.0" type="line"/>
      <point x="323.85714285714283" y="635.0" type="line"/>
    </contour>
  </outline>
</glyph>
<glyph name="sterling" format="2">
  <advance width="514.2857142857143"/>
  <unicode hex="00A3"/>
  <outline>
    <contour>
      <point x="48.714285714285715" y="0.0" type="line"/>
      <point x="457.7142857142857" y="0.0" type="line"/>
      <point x="467.7142857142857" y="186.14285714285714" type="line"/>
      <point x="431.7142857142857" y="186.14285714285714" type="line"/>
      <point x="401.7142857142857" y="89.14285714285714" type="line"/>
      <point x="129.0" y="89.14285714285714" type="line"/>
      <point x="135.57142857142856" y="76.71428571428571" type="line"/>
      <point x="237.57142857142856" y="139.14285714285714"/>
      <point x="282.1428571428571" y="189.14285714285714"/>
      <point x="282.1428571428571" y="250.42857142857142" type="curve" smooth="yes"/>
      <point x="282.1428571428571" y="329.85714285714283"/>
      <point x="179.0" y="449.2857142857143"/>
      <point x="179.0" y="530.0" type="curve" smooth="yes"/>
      <point x="179.0" y="580.7142857142857"/>
      <point x="209.57142857142856" y="622.0"/>
      <point x="273.14285714285717" y="622.0" type="curve" smooth="yes"/>
      <point x="321.0" y="622.0"/>
      <point x="342.42857142857144" y="597.8571428571429"/>
      <point x="370.7142857142857" y="546.0" type="curve" smooth="yes"/>
      <point x="384.7142857142857" y="520.0" type="line"/>
      <point x="391.7142857142857" y="520.0" type="line"/>
      <point x="439.7142857142857" y="557.5714285714286" type="line" smooth="yes"/>
      <point x="449.85714285714283" y="565.5714285714286"/>
      <point x="452.7142857142857" y="571.5714285714286"/>
      <point x="452.7142857142857" y="581.5714285714286" type="curve" smooth="yes"/>
      <point x="452.7142857142857" y="589.5714285714286"/>
      <point x="447.7142857142857" y="598.5714285714286"/>
      <point x="436.7142857142857" y="611.5714285714286" type="curve" smooth="yes"/>
      <point x="410.0" y="644.2857142857143"/>
      <point x="359.7142857142857" y="670.0"/>
      <point x="287.14285714285717" y="670.0" type="curve" smooth="yes"/>
      <point x="166.71428571428572" y="670.0"/>
      <point x="86.71428571428572" y="572.8571428571429"/>
      <point x="86.71428571428572" y="472.14285714285717" type="curve" smooth="yes"/>
      <point x="86.71428571428572" y="389.14285714285717"/>
      <point x="174.14285714285714" y="291.85714285714283"/>
      <point x="174.14285714285714" y="221.0" type="curve" smooth="yes"/>
      <point x="174.14285714285714" y="171.28571428571428"/>
      <point x="143.71428571428572" y="122.14285714285714"/>
      <point x="48.714285714285715" y="44.285714285714285" type="curve"/>
    </contour>
    <contour>
      <point x="44.714285714285715" y="314.57142857142856" type="line"/>
      <point x="403.7142857142857" y="314.57142857142856" type="line"/>
      <point x="403.7142857142857" y="353.42857142857144" type="line"/>
      <point x="44.714285714285715" y="353.42857142857144" type="line"/>
    </contour>
  </outline>
</glyph>
<glyph name="currency" format="2">
  <advance width="514.2857142857143"/>
  <unicode hex="00A4"/>
  <outline>
    <contour>
      <point x="46.857142857142854" y="98.57142857142857" type="line"/>
      <point x="84.0" y="61.57142857142857" type="line"/>
      <point x="162.71428571428572" y="140.28571428571428" type="line"/>
      <point x="189.28571428571428" y="121.57142857142857"/>
      <point x="222.14285714285714" y="109.71428571428572"/>
      <point x="257.14285714285717" y="109.71428571428572" type="curve" smooth="yes"/>
      <point x="292.0" y="109.71428571428572"/>
      <point x="324.7142857142857" y="121.42857142857143"/>
      <point x="351.57142857142856" y="140.28571428571428" type="curve"/>
      <point x="430.2857142857143" y="61.57142857142857" type="line"/>
      <point x="467.42857142857144" y="98.57142857142857" type="line"/>
      <point x="388.7142857142857" y="177.28571428571428" type="line"/>
      <point x="407.57142857142856" y="204.14285714285714"/>
      <point x="419.42857142857144" y="237.0"/>
      <point x="419.42857142857144" y="272.0" type="curve" smooth="yes"/>
      <point x="419.42857142857144" y="306.85714285714283"/>
      <point x="407.57142857142856" y="339.7142857142857"/>
      <point x="388.7142857142857" y="366.7142857142857" type="curve"/>
      <point x="467.42857142857144" y="445.42857142857144" type="line"/>
      <point x="430.2857142857143" y="482.42857142857144" type="line"/>
      <point x="351.57142857142856" y="403.7142857142857" type="line"/>
      <point x="325.0" y="422.42857142857144"/>
      <point x="292.14285714285717" y="434.2857142857143"/>
      <point x="257.14285714285717" y="434.2857142857143" type="curve" smooth="yes"/>
      <point x="222.28571428571428" y="434.2857142857143"/>
      <point x="189.57142857142858" y="422.57142857142856"/>
      <point x="162.71428571428572" y="403.7142857142857" type="curve"/>
      <point x="84.0" y="482.42857142857144" type="line"/>
      <point x="46.857142857142854" y="445.42857142857144" type="line"/>
      <point x="125.57142857142857" y="366.7142857142857" type="line"/>
      <point x="106.71428571428571" y="339.85714285714283"/>
      <point x="94.85714285714286" y="307.0"/>
      <point x="94.85714285714286" y="272.0" type="curve" smooth="yes"/>
      <point x="94.85714285714286" y="237.14285714285714"/>
      <point x="106.71428571428571" y="204.28571428571428"/>
      <point x="125.57142857142857" y="177.28571428571428" type="curve"/>
    </contour>
    <contour>
      <point x="257.14285714285717" y="157.71428571428572" type="curve" smooth="yes"/>
      <point x="194.71428571428572" y="157.71428571428572"/>
      <point x="148.0" y="207.0"/>
      <point x="148.0" y="272.0" type="curve" smooth="yes"/>
      <point x="148.0" y="337.0"/>
      <point x="194.71428571428572" y="386.2857142857143"/>
      <point x="257.14285714285717" y="386.2857142857143" type="curve" smooth="yes"/>
      <point x="319.57142857142856" y="386.2857142857143"/>
      <point x="366.2857142857143" y="337.0"/>
      <point x="366.2857142857143" y="272.0" type="curve" smooth="yes"/>
      <point x="366.2857142857143" y="207.0"/>
      <point x="319.57142857142856" y="157.71428571428572"/>
    </contour>
  </outline>
</glyph>
<glyph name="yen" format="2">
  <advance width="514.2857142857143"/>
  <unicode hex="00A5"/>
  <outline>
    <contour>
      <point x="120.71428571428572" y="0.0" type="line"/>
      <point x="391.1428571428571" y="0.0" type="line"/>
      <point x="391.1428571428571" y="16.0" type="line"/>
      <point x="305.57142857142856" y="56.285714285714285" type="line"/>
      <point x="305.57142857142856" y="428.57142857142856" type="line"/>
      <point x="286.57142857142856" y="365.14285714285717" type="line"/>
      <point x="474.0" y="638.0" type="line"/>
      <point x="416.85714285714283" y="604.4285714285714" type="line"/>
      <point x="512.5714285714286" y="644.0" type="line"/>
      <point x="512.5714285714286" y="660.0" type="line"/>
      <point x="330.57142857142856" y="660.0" type="line"/>
      <point x="330.57142857142856" y="644.0" type="line"/>
      <point x="393.2857142857143" y="617.5714285714286" type="line"/>
      <point x="393.2857142857143" y="614.4285714285714" type="line"/>
      <point x="273.1428571428571" y="421.42857142857144" type="line"/>
      <point x="298.42857142857144" y="424.2857142857143" type="line"/>
      <point x="166.14285714285714" y="619.0" type="line"/>
      <point x="166.14285714285714" y="621.2857142857143" type="line"/>
      <point x="227.71428571428572" y="644.0" type="line"/>
      <point x="227.71428571428572" y="660.0" type="line"/>
      <point x="1.8571428571428577" y="660.0" type="line"/>
      <point x="1.8571428571428577" y="644.0" type="line"/>
      <point x="78.71428571428572" y="604.4285714285714" type="line"/>
      <point x="29.571428571428573" y="638.0" type="line"/>
      <point x="226.14285714285714" y="365.42857142857144" type="line"/>
      <point x="206.28571428571428" y="428.57142857142856" type="line"/>
      <point x="206.28571428571428" y="56.285714285714285" type="line"/>
      <point x="120.71428571428572" y="16.0" type="line"/>
    </contour>
    <contour>
      <point x="73.14285714285714" y="388.57142857142856" type="line"/>
      <point x="437.42857142857144" y="388.57142857142856" type="line"/>
      <point x="437.42857142857144" y="427.42857142857144" type="line"/>
      <point x="73.14285714285714" y="427.42857142857144" type="line"/>
    </contour>
    <contour>
      <point x="73.14285714285714" y="238.71428571428572" type="line"/>
      <point x="437.42857142857144" y="238.71428571428572" type="line"/>
      <point x="437.42857142857144" y="277.57142857142856" type="line"/>
      <point x="73.14285714285714" y="277.57142857142856" type="line"/>
    </contour>
  </outline>
</glyph>
<glyph name="brokenbar" format="2">
  <advance width="250.0"/>
  <unicode hex="00A6"/>
  <outline>
    <contour>
      <point x="100.0" y="350.0" type="line"/>
      <point x="150.0" y="350.0" type="line"/>
      <point x="150.0" y="750.0" type="line"/>
      <point x="100.0" y="750.0" type="line"/>
    </contour>
    <contour>
      <point x="100.0" y="-250.0" type="line"/>
      <point x="150.0" y="-250.0" type="line"/>
      <point x="150.0" y="150.0" type="line"/>
      <point x="100.0" y="150.0" type="line"/>
    </contour>
  </outline>
</glyph>
<glyph name="section" format="2">
  <advance width="508.1428571428571"/>
  <unicode hex="00A7"/>
  <outline>
    <contour>
      <point x="473.85714285714283" y="292.85714285714283" type="curve" smooth="yes"/>
      <point x="473.85714285714283" y="483.57142857142856"/>
      <point x="176.0" y="387.42857142857144"/>
      <point x="176.0" y="545.2857142857143" type="curve" smooth="yes"/>
      <point x="176.0" y="588.4285714285714"/>
      <point x="213.28571428571428" y="620.0"/>
      <point x="259.7142857142857" y="620.0" type="curve" smooth="yes"/>
      <point x="300.57142857142856" y="620.0"/>
      <point x="328.2857142857143" y="595.0"/>
      <point x="349.7142857142857" y="571.5714285714286" type="curve" smooth="yes"/>
      <point x="369.1428571428571" y="551.1428571428571" type="line"/>
      <point x="374.0" y="550.7142857142857" type="line"/>
      <point x="410.85714285714283" y="585.4285714285714" type="line" smooth="yes"/>
      <point x="419.42857142857144" y="594.0"/>
      <point x="423.42857142857144" y="600.7142857142857"/>
      <point x="423.7142857142857" y="606.7142857142857" type="curve" smooth="yes"/>
      <point x="424.1428571428571" y="615.7142857142857"/>
      <point x="418.1428571428571" y="623.7142857142857"/>
      <point x="408.2857142857143" y="634.1428571428571" type="curve" smooth="yes"/>
      <point x="387.57142857142856" y="653.4285714285714"/>
      <point x="357.2857142857143" y="670.0"/>
      <point x="314.2857142857143" y="670.0" type="curve" smooth="yes"/>
      <point x="188.71428571428572" y="670.0"/>
      <point x="98.28571428571428" y="591.5714285714286"/>
      <point x="98.28571428571428" y="501.42857142857144" type="curve" smooth="yes"/>
      <point x="98.28571428571428" y="292.2857142857143"/>
      <point x="397.2857142857143" y="405.42857142857144"/>
      <point x="397.2857142857143" y="251.0" type="curve" smooth="yes"/>
      <point x="397.2857142857143" y="206.28571428571428"/>
      <point x="351.42857142857144" y="172.57142857142858"/>
      <point x="304.42857142857144" y="171.14285714285714" type="curve"/>
      <point x="304.42857142857144" y="136.57142857142858" type="line"/>
      <point x="407.42857142857144" y="154.0"/>
      <point x="473.85714285714283" y="207.57142857142856"/>
    </contour>
    <contour>
      <point x="195.57142857142856" y="-120.28571428571429" type="curve" smooth="yes"/>
      <point x="301.42857142857144" y="-120.28571428571429"/>
      <point x="410.7142857142857" y="-38.57142857142857"/>
      <point x="410.7142857142857" y="48.57142857142857" type="curve" smooth="yes"/>
      <point x="410.7142857142857" y="250.85714285714286"/>
      <point x="112.57142857142857" y="145.14285714285714"/>
      <point x="112.57142857142857" y="303.0" type="curve" smooth="yes"/>
      <point x="112.57142857142857" y="352.42857142857144"/>
      <point x="141.14285714285714" y="385.2857142857143"/>
      <point x="208.42857142857142" y="388.7142857142857" type="curve"/>
      <point x="208.42857142857142" y="420.85714285714283" type="line"/>
      <point x="103.14285714285714" y="406.14285714285717"/>
      <point x="31.714285714285715" y="352.42857142857144"/>
      <point x="31.714285714285715" y="268.2857142857143" type="curve" smooth="yes"/>
      <point x="31.714285714285715" y="66.85714285714286"/>
      <point x="333.0" y="164.85714285714286"/>
      <point x="333.0" y="8.571428571428573" type="curve" smooth="yes"/>
      <point x="333.0" y="-34.857142857142854"/>
      <point x="298.14285714285717" y="-66.85714285714286"/>
      <point x="247.0" y="-66.85714285714286" type="curve" smooth="yes"/>
      <point x="201.57142857142856" y="-66.85714285714286"/>
      <point x="171.28571428571428" y="-38.42857142857143"/>
      <point x="148.14285714285714" y="-13.285714285714292" type="curve" smooth="yes"/>
      <point x="127.85714285714286" y="8.857142857142854" type="line"/>
      <point x="122.14285714285714" y="9.285714285714285" type="line"/>
      <point x="82.71428571428572" y="-28.0" type="line" smooth="yes"/>
      <point x="73.28571428571428" y="-35.714285714285715"/>
      <point x="70.14285714285714" y="-45.0"/>
      <point x="69.85714285714286" y="-50.14285714285714" type="curve" smooth="yes"/>
      <point x="69.42857142857143" y="-59.142857142857146"/>
      <point x="74.57142857142857" y="-68.0"/>
      <point x="86.14285714285714" y="-80.14285714285714" type="curve" smooth="yes"/>
      <point x="106.85714285714286" y="-100.28571428571429"/>
      <point x="150.0" y="-120.28571428571429"/>
    </contour>
  </outline>
</glyph>
<glyph name="copyright" format="2">
  <advance width="806.0"/>
  <unicode hex="00A9"/>
  <outline>
    <contour>
      <point x="403.0" y="-10.0" type="curve" smooth="yes"/>
      <point x="594.0" y="-10.0"/>
      <point x="736.0" y="134.0"/>
      <point x="736.0" y="330.0" type="curve" smooth="yes"/>
      <point x="736.0" y="526.0"/>
      <point x="594.0" y="670.0"/>
      <point x="403.0" y="670.0" type="curve" smooth="yes"/>
      <point x="212.0" y="670.0"/>
      <point x="70.0" y="526.0"/>
      <point x="70.0" y="330.0" type="curve" smooth="yes"/>
      <point x="70.0" y="134.0"/>
      <point x="212.0" y="-10.0"/>
    </contour>
    <contour>
      <point x="403.0" y="26.857142857142854" type="curve" smooth="yes"/>
      <point x="234.57142857142858" y="26.857142857142854"/>
      <point x="109.0" y="155.42857142857142"/>
      <point x="109.0" y="330.0" type="curve" smooth="yes"/>
      <point x="109.0" y="504.57142857142856"/>
      <point x="234.57142857142858" y="633.1428571428571"/>
      <point x="403.0" y="633.1428571428571" type="curve" smooth="yes"/>
      <point x="571.4285714285714" y="633.1428571428571"/>
      <point x="697.0" y="504.57142857142856"/>
      <point x="697.0" y="330.0" type="curve" smooth="yes"/>
      <point x="697.0" y="155.42857142857142"/>
      <point x="571.4285714285714" y="26.857142857142854"/>
    </contour>
    <contour>
      <point x="414.85714285714283" y="129.0" type="curve" smooth="yes"/>
      <point x="475.42857142857144" y="129.0"/>
      <point x="513.5714285714286" y="142.28571428571428"/>
      <point x="552.0" y="161.42857142857142" type="curve"/>
      <point x="560.0" y="266.0" type="line"/>
      <point x="531.0" y="266.0" type="line"/>
      <point x="483.85714285714283" y="176.0" type="line"/>
      <point x="515.0" y="210.0" type="line"/>
      <point x="483.42857142857144" y="187.28571428571428"/>
      <point x="456.7142857142857" y="175.0"/>
      <point x="415.85714285714283" y="175.0" type="curve" smooth="yes"/>
      <point x="344.0" y="175.0"/>
      <point x="289.85714285714283" y="237.0"/>
      <point x="289.85714285714283" y="341.0" type="curve" smooth="yes"/>
      <point x="289.85714285714283" y="430.0"/>
      <point x="345.7142857142857" y="495.0"/>
      <point x="424.0" y="495.0" type="curve" smooth="yes"/>
      <point x="454.0" y="495.0"/>
      <point x="472.0" y="483.0"/>
      <point x="508.0" y="458.0" type="curve"/>
      <point x="483.2857142857143" y="483.14285714285717" type="line"/>
      <point x="524.0" y="394.0" type="line"/>
      <point x="553.0" y="394.0" type="line"/>
      <point x="549.0" y="509.0" type="line"/>
      <point x="512.8571428571429" y="527.1428571428571"/>
      <point x="484.42857142857144" y="540.0"/>
      <point x="424.14285714285717" y="540.0" type="curve" smooth="yes"/>
      <point x="309.14285714285717" y="540.0"/>
      <point x="212.71428571428572" y="439.42857142857144"/>
      <point x="212.71428571428572" y="324.0" type="curve" smooth="yes"/>
      <point x="212.71428571428572" y="211.0"/>
      <point x="288.85714285714283" y="129.0"/>
    </contour>
  </outline>
</glyph>
<glyph name="ordfeminine" format="2">
  <advance width="403.2857142857143"/>
  <unicode hex="00AA"/>
  <outline>
    <contour>
      <point x="144.0" y="417.0" type="curve" smooth="yes"/>
      <point x="173.28571428571428" y="417.0"/>
      <point x="199.28571428571428" y="431.2857142857143"/>
      <point x="218.14285714285714" y="452.14285714285717" type="curve"/>
      <point x="228.0" y="452.14285714285717" type="line"/>
      <point x="228.0" y="470.0" type="line"/>
      <point x="211.71428571428572" y="462.2857142857143"/>
      <point x="200.0" y="458.7142857142857"/>
      <point x="186.57142857142856" y="458.7142857142857" type="curve" smooth="yes"/>
      <point x="164.57142857142856" y="458.7142857142857"/>
      <point x="151.28571428571428" y="470.0"/>
      <point x="151.28571428571428" y="491.42857142857144" type="curve" smooth="yes"/>
      <point x="151.28571428571428" y="519.4285714285714"/>
      <point x="165.57142857142856" y="534.4285714285714"/>
      <point x="235.0" y="546.0" type="curve"/>
      <point x="235.0" y="569.0" type="line"/>
      <point x="168.0" y="552.0" type="line" smooth="yes"/>
      <point x="101.0" y="535.0"/>
      <point x="82.0" y="515.0"/>
      <point x="82.0" y="477.0" type="curve" smooth="yes"/>
      <point x="82.0" y="439.0"/>
      <point x="110.0" y="417.0"/>
    </contour>
    <contour>
      <point x="277.57142857142856" y="417.0" type="curve" smooth="yes"/>
      <point x="308.14285714285717" y="417.0"/>
      <point x="326.0" y="430.2857142857143"/>
      <point x="334.2857142857143" y="444.2857142857143" type="curve"/>
      <point x="334.2857142857143" y="451.0" type="line"/>
      <point x="332.2857142857143" y="453.0" type="line"/>
      <point x="317.2857142857143" y="453.0" type="line" smooth="yes"/>
      <point x="304.2857142857143" y="453.0"/>
      <point x="295.2857142857143" y="457.0"/>
      <point x="290.2857142857143" y="462.0" type="curve"/>
      <point x="290.2857142857143" y="602.0" type="line" smooth="yes"/>
      <point x="290.2857142857143" y="647.5714285714286"/>
      <point x="253.57142857142856" y="669.1428571428571"/>
      <point x="196.57142857142856" y="669.1428571428571" type="curve" smooth="yes"/>
      <point x="170.0" y="669.1428571428571"/>
      <point x="148.42857142857142" y="661.2857142857143"/>
      <point x="124.0" y="646.0" type="curve" smooth="yes"/>
      <point x="103.0" y="633.0"/>
      <point x="91.0" y="618.0"/>
      <point x="91.0" y="602.0" type="curve" smooth="yes"/>
      <point x="91.0" y="590.0"/>
      <point x="94.0" y="586.0"/>
      <point x="105.0" y="586.0" type="curve" smooth="yes"/>
      <point x="142.28571428571428" y="586.0" type="line"/>
      <point x="144.28571428571428" y="588.0" type="line"/>
      <point x="144.28571428571428" y="612.1428571428571" type="line" smooth="yes"/>
      <point x="144.28571428571428" y="631.5714285714286"/>
      <point x="152.85714285714286" y="641.8571428571429"/>
      <point x="175.57142857142858" y="641.8571428571429" type="curve" smooth="yes"/>
      <point x="200.14285714285714" y="641.8571428571429"/>
      <point x="218.0" y="624.8571428571429"/>
      <point x="218.0" y="598.4285714285714" type="curve" smooth="yes"/>
      <point x="218.0" y="459.0" type="line"/>
      <point x="219.14285714285714" y="459.0" type="line"/>
      <point x="226.14285714285714" y="433.0"/>
      <point x="245.57142857142858" y="417.0"/>
    </contour>
    <contour>
      <point x="85.0" y="291.7142857142857" type="line"/>
      <point x="319.2857142857143" y="291.7142857142857" type="line"/>
      <point x="319.2857142857143" y="342.42857142857144" type="line"/>
      <point x="85.0" y="342.42857142857144" type="line"/>
    </contour>
  </outline>
</glyph>
<glyph name="logicalnot" format="2">
  <advance width="514.2857142857143"/>
  <unicode hex="00AC"/>
  <outline>
    <contour>
      <point x="415.42857142857144" y="62.0" type="line"/>
      <point x="467.14285714285717" y="62.0" type="line"/>
      <point x="467.14285714285717" y="297.57142857142856" type="line"/>
      <point x="47.14285714285714" y="297.57142857142856" type="line"/>
      <point x="47.14285714285714" y="246.42857142857142" type="line"/>
      <point x="415.42857142857144" y="246.42857142857142" type="line"/>
    </contour>
  </outline>
</glyph>
<glyph name="registered" format="2">
  <advance width="542.8571428571429"/>
  <unicode hex="00AE"/>
  <outline>
    <contour>
      <point x="271.42857142857144" y="235.42857142857142" type="curve" smooth="yes"/>
      <point x="394.2857142857143" y="235.42857142857142"/>
      <point x="484.7142857142857" y="329.0"/>
      <point x="484.7142857142857" y="452.7142857142857" type="curve" smooth="yes"/>
      <point x="484.7142857142857" y="576.4285714285714"/>
      <point x="394.2857142857143" y="670.0"/>
      <point x="271.42857142857144" y="670.0" type="curve" smooth="yes"/>
      <point x="148.57142857142858" y="670.0"/>
      <point x="58.142857142857146" y="576.4285714285714"/>
      <point x="58.142857142857146" y="452.7142857142857" type="curve" smooth="yes"/>
      <point x="58.142857142857146" y="329.0"/>
      <point x="148.57142857142858" y="235.42857142857142"/>
    </contour>
    <contour>
      <point x="271.42857142857144" y="266.14285714285717" type="curve" smooth="yes"/>
      <point x="165.14285714285714" y="266.14285714285717"/>
      <point x="92.14285714285714" y="346.42857142857144"/>
      <point x="92.14285714285714" y="452.7142857142857" type="curve" smooth="yes"/>
      <point x="92.14285714285714" y="559.0"/>
      <point x="165.14285714285714" y="639.2857142857143"/>
      <point x="271.42857142857144" y="639.2857142857143" type="curve" smooth="yes"/>
      <point x="377.7142857142857" y="639.2857142857143"/>
      <point x="450.7142857142857" y="559.0"/>
      <point x="450.7142857142857" y="452.7142857142857" type="curve" smooth="yes"/>
      <point x="450.7142857142857" y="346.42857142857144"/>
      <point x="377.7142857142857" y="266.14285714285717"/>
    </contour>
    <contour>
      <point x="161.85714285714286" y="327.57142857142856" type="line"/>
      <point x="267.7142857142857" y="327.57142857142856" type="line"/>
      <point x="267.7142857142857" y="334.57142857142856" type="line"/>
      <point x="237.71428571428572" y="350.57142857142856" type="line"/>
      <point x="237.71428571428572" y="582.5714285714286" type="line"/>
      <point x="161.85714285714286" y="582.5714285714286" type="line"/>
      <point x="161.85714285714286" y="576.5714285714286" type="line"/>
      <point x="192.85714285714286" y="560.5714285714286" type="line"/>
      <point x="192.85714285714286" y="350.57142857142856" type="line"/>
      <point x="161.85714285714286" y="334.57142857142856" type="line"/>
    </contour>
    <contour>
      <point x="358.7142857142857" y="519.5714285714286" type="curve" smooth="yes"/>
      <point x="358.7142857142857" y="558.5714285714286"/>
      <point x="325.7142857142857" y="582.5714285714286"/>
      <point x="271.7142857142857" y="582.5714285714286" type="curve" smooth="yes"/>
      <point x="209.85714285714286" y="582.5714285714286" type="line"/>
      <point x="209.85714285714286" y="559.5714285714286" type="line"/>
      <point x="256.85714285714283" y="559.5714285714286" type="line" smooth="yes"/>
      <point x="287.85714285714283" y="559.5714285714286"/>
      <point x="310.85714285714283" y="545.5714285714286"/>
      <point x="310.85714285714283" y="514.5714285714286" type="curve" smooth="yes"/>
      <point x="310.85714285714283" y="483.57142857142856"/>
      <point x="287.85714285714283" y="467.57142857142856"/>
      <point x="258.85714285714283" y="467.57142857142856" type="curve"/>
      <point x="212.85714285714286" y="467.57142857142856" type="line"/>
      <point x="212.85714285714286" y="444.57142857142856" type="line"/>
      <point x="275.7142857142857" y="444.57142857142856" type="line"/>
      <point x="275.7142857142857" y="447.57142857142856" type="line"/>
      <point x="323.7142857142857" y="452.57142857142856"/>
      <point x="358.7142857142857" y="482.57142857142856"/>
    </contour>
    <contour>
      <point x="317.85714285714283" y="327.57142857142856" type="line"/>
      <point x="385.0" y="327.57142857142856" type="line"/>
      <point x="385.0" y="334.57142857142856" type="line"/>
      <point x="359.0" y="347.57142857142856" type="line"/>
      <point x="302.0" y="459.57142857142856" type="line"/>
      <point x="253.85714285714286" y="459.57142857142856" type="line"/>
    </contour>
  </outline>
</glyph>
<glyph name="degree" format="2">
  <advance width="500.0"/>
  <unicode hex="00B0"/>
  <outline>
    <contour>
      <point x="250.0" y="410.0" type="curve" smooth="yes"/>
      <point x="325.0" y="410.0"/>
      <point x="380.0" y="470.0"/>
      <point x="380.0" y="540.0" type="curve" smooth="yes"/>
      <point x="380.0" y="610.0"/>
      <point x="325.0" y="670.0"/>
      <point x="250.0" y="670.0" type="curve" smooth="yes"/>
      <point x="175.0" y="670.0"/>
      <point x="120.0" y="610.0"/>
      <point x="120.0" y="540.0" type="curve" smooth="yes"/>
      <point x="120.0" y="470.0"/>
      <point x="175.0" y="410.0"/>
    </contour>
    <contour>
      <point x="250.0" y="450.0" type="curve" smooth="yes"/>
      <point x="201.85714285714286" y="450.0"/>
      <point x="163.57142857142856" y="484.53658536585715"/>
      <point x="163.57142857142856" y="540.0" type="curve" smooth="yes"/>
      <point x="163.57142857142856" y="595.4634146341429"/>
      <point x="201.85714285714286" y="630.0"/>
      <point x="250.0" y="630.0" type="curve" smooth="yes"/>
      <point x="298.14285714285717" y="630.0"/>
      <point x="336.42857142857144" y="595.4634146341429"/>
      <point x="336.42857142857144" y="540.0" type="curve" smooth="yes"/>
      <point x="336.42857142857144" y="484.53658536585715"/>
      <point x="298.14285714285717" y="450.0"/>
    </contour>
  </outline>
</glyph>
<glyph name="plusminus" format="2">
  <advance width="514.2857142857143"/>
  <unicode hex="00B1"/>
  <outline>
    <contour>
      <point x="47.14285714285714" y="286.42857142857144" type="line"/>
      <point x="467.14285714285717" y="286.42857142857144" type="line"/>
      <point x="467.14285714285717" y="337.57142857142856" type="line"/>
      <point x="47.14285714285714" y="337.57142857142856" type="line"/>
    </contour>
    <contour>
      <point x="230.42857142857142" y="152.0" type="line"/>
      <point x="283.85714285714283" y="152.0" type="line"/>
      <point x="283.85714285714283" y="482.0" type="line"/>
      <point x="230.42857142857142" y="482.0" type="line"/>
    </contour>
    <contour>
      <point x="47.14285714285714" y="61.42857142857143" type="line"/>
      <point x="467.14285714285717" y="61.42857142857143" type="line"/>
      <point x="467.14285714285717" y="112.57142857142857" type="line"/>
      <point x="47.14285714285714" y="112.57142857142857" type="line"/>
    </contour>
  </outline>
</glyph>
<glyph name="paragraph" format="2">
  <advance width="500.57142857142856"/>
  <unicode hex="00B6"/>
  <outline>
    <contour>
      <point x="265.57142857142856" y="-110.0" type="line"/>
      <point x="317.42857142857144" y="-110.0" type="line"/>
      <point x="317.42857142857144" y="660.0" type="line"/>
      <point x="207.0" y="660.0" type="line" smooth="yes"/>
      <point x="104.0" y="660.0"/>
      <point x="35.0" y="615.0"/>
      <point x="35.0" y="514.0" type="curve" smooth="yes"/>
      <point x="35.0" y="425.0"/>
      <point x="115.0" y="359.0"/>
      <point x="223.0" y="359.0" type="curve" smooth="yes"/>
      <point x="265.57142857142856" y="359.0" type="line"/>
    </contour>
    <contour>
      <point x="376.0" y="-110.0" type="line"/>
      <point x="427.85714285714283" y="-110.0" type="line"/>
      <point x="427.85714285714283" y="603.7142857142857" type="line"/>
      <point x="509.1428571428571" y="644.0" type="line"/>
      <point x="509.1428571428571" y="660.0" type="line"/>
      <point x="376.0" y="660.0" type="line"/>
    </contour>
  </outline>
</glyph>
<glyph name="periodcentered" format="2">
  <advance width="250.0"/>
  <unicode hex="00B7"/>
  <outline>
    <contour>
      <point x="125.0" y="207.0" type="curve" smooth="yes"/>
      <point x="159.71428571428572" y="207.0"/>
      <point x="189.14285714285714" y="236.42857142857142"/>
      <point x="189.14285714285714" y="271.14285714285717" type="curve" smooth="yes"/>
      <point x="189.14285714285714" y="305.85714285714283"/>
      <point x="159.71428571428572" y="335.2857142857143"/>
      <point x="125.0" y="335.2857142857143" type="curve" smooth="yes"/>
      <point x="90.28571428571429" y="335.2857142857143"/>
      <point x="60.85714285714286" y="305.85714285714283"/>
      <point x="60.85714285714286" y="271.14285714285717" type="curve" smooth="yes"/>
      <point x="60.85714285714286" y="236.42857142857142"/>
      <point x="90.28571428571429" y="207.0"/>
    </contour>
  </outline>
</glyph>
<glyph name="ordmasculine" format="2">
  <advance width="403.2857142857143"/>
  <unicode hex="00BA"/>
  <outline>
    <contour>
      <point x="201.57142857142858" y="416.85714285714283" type="curve" smooth="yes"/>
      <point x="276.57142857142856" y="416.85714285714283"/>
      <point x="328.2857142857143" y="473.0"/>
      <point x="328.2857142857143" y="543.0" type="curve" smooth="yes"/>
      <point x="328.2857142857143" y="612.0"/>
      <point x="276.7142857142857" y="669.1428571428571"/>
      <point x="201.71428571428572" y="669.1428571428571" type="curve" smooth="yes"/>
      <point x="125.71428571428571" y="669.1428571428571"/>
      <point x="75.0" y="612.0"/>
      <point x="75.0" y="543.0" type="curve" smooth="yes"/>
      <point x="75.0" y="473.0"/>
      <point x="125.57142857142857" y="416.85714285714283"/>
    </contour>
    <contour>
      <point x="207.42857142857142" y="442.2857142857143" type="curve" smooth="yes"/>
      <point x="172.42857142857144" y="442.2857142857143"/>
      <point x="150.42857142857142" y="486.57142857142856"/>
      <point x="150.42857142857142" y="554.0" type="curve" smooth="yes"/>
      <point x="150.42857142857142" y="605.4285714285714"/>
      <point x="167.0" y="643.7142857142857"/>
      <point x="196.71428571428572" y="643.7142857142857" type="curve" smooth="yes"/>
      <point x="231.57142857142858" y="643.7142857142857"/>
      <point x="252.85714285714286" y="597.7142857142857"/>
      <point x="252.85714285714286" y="532.0" type="curve" smooth="yes"/>
      <point x="252.85714285714286" y="478.14285714285717"/>
      <point x="237.0" y="442.2857142857143"/>
    </contour>
    <contour>
      <point x="85.0" y="291.7142857142857" type="line"/>
      <point x="319.2857142857143" y="291.7142857142857" type="line"/>
      <point x="319.2857142857143" y="342.42857142857144" type="line"/>
      <point x="85.0" y="342.42857142857144" type="line"/>
    </contour>
  </outline>
</glyph>
<glyph name="questiondown" format="2">
  <advance width="479.0"/>
  <unicode hex="00BF"/>
  <outline>
    <contour>
      <point x="232.85714285714286" y="-213.57142857142858" type="curve" smooth="yes"/>
      <point x="299.2857142857143" y="-213.57142857142858"/>
      <point x="333.85714285714283" y="-188.85714285714286"/>
      <point x="380.2857142857143" y="-155.28571428571428" type="curve" smooth="yes"/>
      <point x="420.85714285714283" y="-127.0"/>
      <point x="440.7142857142857" y="-89.28571428571429"/>
      <point x="440.7142857142857" y="-52.285714285714285" type="curve" smooth="yes"/>
      <point x="440.7142857142857" y="-17.571428571428573"/>
      <point x="429.0" y="-12.714285714285714"/>
      <point x="403.85714285714283" y="-12.714285714285714" type="curve" smooth="yes"/>
      <point x="355.14285714285717" y="-12.714285714285714" type="line"/>
      <point x="346.7142857142857" y="-23.142857142857142" type="line"/>
      <point x="346.7142857142857" y="-61.85714285714286" type="line" smooth="yes"/>
      <point x="346.7142857142857" y="-133.0"/>
      <point x="314.14285714285717" y="-169.14285714285714"/>
      <point x="259.57142857142856" y="-169.14285714285714" type="curve" smooth="yes"/>
      <point x="198.14285714285714" y="-169.14285714285714"/>
      <point x="150.0" y="-129.42857142857142"/>
      <point x="150.0" y="-39.714285714285715" type="curve" smooth="yes"/>
      <point x="150.0" y="27.42857142857143"/>
      <point x="206.71428571428572" y="73.0"/>
      <point x="307.57142857142856" y="103.71428571428572" type="curve"/>
      <point x="280.14285714285717" y="252.14285714285714" type="line"/>
      <point x="257.42857142857144" y="252.14285714285714" type="line"/>
      <point x="240.71428571428572" y="114.28571428571429" type="line"/>
      <point x="264.0" y="181.0" type="line"/>
      <point x="113.14285714285714" y="125.0"/>
      <point x="51.142857142857146" y="54.14285714285714"/>
      <point x="51.142857142857146" y="-36.57142857142857" type="curve" smooth="yes"/>
      <point x="51.142857142857146" y="-135.42857142857144"/>
      <point x="126.28571428571429" y="-213.57142857142858"/>
    </contour>
    <contour>
      <point x="269.1428571428571" y="333.14285714285717" type="curve" smooth="yes"/>
      <point x="303.85714285714283" y="333.14285714285717"/>
      <point x="333.2857142857143" y="362.57142857142856"/>
      <point x="333.2857142857143" y="397.2857142857143" type="curve" smooth="yes"/>
      <point x="333.2857142857143" y="431.14285714285717"/>
      <point x="303.85714285714283" y="461.42857142857144"/>
      <point x="269.1428571428571" y="461.42857142857144" type="curve" smooth="yes"/>
      <point x="235.28571428571428" y="461.42857142857144"/>
      <point x="205.0" y="431.14285714285717"/>
      <point x="205.0" y="397.2857142857143" type="curve" smooth="yes"/>
      <point x="205.0" y="362.57142857142856"/>
      <point x="235.28571428571428" y="333.14285714285717"/>
    </contour>
  </outline>
</glyph>
<glyph name="AE" format="2">
  <advance width="993.0"/>
  <unicode hex="00C6"/>
  <anchor x="541.4285714285714" y="710.0" name="top"/>
  <outline>
    <contour>
      <point x="464.0" y="660.0" type="line"/>
      <point x="76.14285714285714" y="28.0" type="line"/>
      <point x="139.28571428571428" y="76.14285714285714" type="line"/>
      <point x="25.42857142857143" y="16.0" type="line"/>
      <point x="25.42857142857143" y="0.0" type="line"/>
      <point x="240.71428571428572" y="0.0" type="line"/>
      <point x="240.71428571428572" y="16.0" type="line"/>
      <point x="139.57142857142856" y="59.42857142857143" type="line"/>
      <point x="147.71428571428572" y="28.0" type="line"/>
      <point x="491.42857142857144" y="602.4285714285714" type="line"/>
      <point x="475.42857142857144" y="602.4285714285714" type="line"/>
      <point x="475.42857142857144" y="56.285714285714285" type="line"/>
      <point x="394.14285714285717" y="16.0" type="line"/>
      <point x="394.14285714285717" y="0.0" type="line"/>
      <point x="579.7142857142857" y="0.0" type="line"/>
      <point x="579.7142857142857" y="660.0" type="line"/>
    </contour>
    <contour>
      <point x="253.0" y="233.85714285714286" type="line"/>
      <point x="513.0" y="233.85714285714286" type="line"/>
      <point x="513.0" y="288.85714285714283" type="line"/>
      <point x="253.0" y="288.85714285714283" type="line"/>
    </contour>
    <contour>
      <point x="896.4285714285714" y="660.0" type="line"/>
      <point x="519.7142857142857" y="660.0" type="line"/>
      <point x="519.7142857142857" y="605.0" type="line"/>
      <point x="815.5714285714286" y="605.0" type="line"/>
      <point x="880.4285714285714" y="487.7142857142857" type="line"/>
      <point x="896.4285714285714" y="487.7142857142857" type="line"/>
    </contour>
    <contour>
      <point x="527.7142857142857" y="313.0" type="line"/>
      <point x="746.0" y="313.0" type="line"/>
      <point x="797.4285714285714" y="231.28571428571428" type="line"/>
      <point x="813.4285714285714" y="231.28571428571428" type="line"/>
      <point x="813.4285714285714" y="451.7142857142857" type="line"/>
      <point x="797.4285714285714" y="451.7142857142857" type="line"/>
      <point x="746.0" y="368.0" type="line"/>
      <point x="527.7142857142857" y="368.0" type="line"/>
    </contour>
    <contour>
      <point x="924.4285714285714" y="0.0" type="line"/>
      <point x="924.4285714285714" y="187.28571428571428" type="line"/>
      <point x="908.4285714285714" y="187.28571428571428" type="line"/>
      <point x="842.5714285714286" y="55.0" type="line"/>
      <point x="547.7142857142857" y="55.0" type="line"/>
      <point x="547.7142857142857" y="0.0" type="line"/>
    </contour>
  </outline>
</glyph>
<glyph name="Ccedilla" format="2">
  <advance width="722.4285714285714"/>
  <unicode hex="00C7"/>
  <outline>
    <contour>
      <point x="399.7142857142857" y="-10.0" type="curve" smooth="yes"/>
      <point x="506.57142857142856" y="-10.0"/>
      <point x="566.0" y="10.0"/>
      <point x="623.8571428571429" y="39.714285714285715" type="curve"/>
      <point x="635.7142857142857" y="201.0" type="line"/>
      <point x="618.5714285714286" y="201.0" type="line"/>
      <point x="535.0" y="60.42857142857143" type="line"/>
      <point x="572.7142857142857" y="102.57142857142857" type="line"/>
      <point x="530.0" y="72.85714285714286"/>
      <point x="482.57142857142856" y="41.57142857142857"/>
      <point x="401.14285714285717" y="41.57142857142857" type="curve" smooth="yes"/>
      <point x="274.2857142857143" y="41.57142857142857"/>
      <point x="173.14285714285714" y="151.71428571428572"/>
      <point x="173.14285714285714" y="338.2857142857143" type="curve" smooth="yes"/>
      <point x="173.14285714285714" y="503.85714285714283"/>
      <point x="275.85714285714283" y="620.0"/>
      <point x="414.57142857142856" y="620.0" type="curve" smooth="yes"/>
      <point x="467.42857142857144" y="620.0"/>
      <point x="500.57142857142856" y="601.7142857142857"/>
      <point x="559.1428571428571" y="559.2857142857143" type="curve"/>
      <point x="524.1428571428571" y="601.2857142857143" type="line"/>
      <point x="607.2857142857143" y="444.2857142857143" type="line"/>
      <point x="625.2857142857143" y="444.2857142857143" type="line"/>
      <point x="618.8571428571429" y="622.0" type="line"/>
      <point x="563.4285714285714" y="649.1428571428571"/>
      <point x="516.1428571428571" y="670.0"/>
      <point x="415.0" y="670.0" type="curve" smooth="yes"/>
      <point x="227.14285714285714" y="670.0"/>
      <point x="65.0" y="504.2857142857143"/>
      <point x="65.0" y="313.0" type="curve" smooth="yes"/>
      <point x="65.0" y="127.0"/>
      <point x="193.57142857142858" y="-10.0"/>
    </contour>
    <contour>
      <point x="381.14285714285717" y="-209.71428571428572" type="curve" smooth="yes"/>
      <point x="355.7142857142857" y="-209.71428571428572"/>
      <point x="337.14285714285717" y="-205.85714285714286"/>
      <point x="319.57142857142856" y="-197.85714285714286" type="curve"/>
      <point x="316.42857142857144" y="-197.85714285714286" type="line"/>
      <point x="316.42857142857144" y="-211.42857142857142" type="line"/>
      <point x="334.85714285714283" y="-231.28571428571428"/>
      <point x="362.42857142857144" y="-240.0"/>
      <point x="399.0" y="-240.0" type="curve" smooth="yes"/>
      <point x="462.2857142857143" y="-240.0"/>
      <point x="497.85714285714283" y="-202.57142857142858"/>
      <point x="497.85714285714283" y="-153.28571428571428" type="curve" smooth="yes"/>
      <point x="497.85714285714283" y="-96.14285714285714"/>
      <point x="465.8571428571429" y="-71.57142857142857"/>
      <point x="373.57142857142856" y="-45.85714285714286" type="curve"/>
      <point x="387.1428571428571" y="-67.85714285714286" type="line"/>
      <point x="428.0" y="21.0" type="line"/>
      <point x="392.2857142857143" y="21.0" type="line"/>
      <point x="335.0" y="-103.0" type="line"/>
      <point x="414.0" y="-127.14285714285714"/>
      <point x="435.42857142857144" y="-142.0"/>
      <point x="435.42857142857144" y="-170.85714285714286" type="curve" smooth="yes"/>
      <point x="435.42857142857144" y="-192.57142857142858"/>
      <point x="420.2857142857143" y="-209.71428571428572"/>
    </contour>
  </outline>
</glyph>
<glyph name="multiply" format="2">
  <advance width="514.2857142857143"/>
  <unicode hex="00D7"/>
  <outline>
    <contour>
      <point x="109.57142857142857" y="87.42857142857143" type="line"/>
      <point x="441.7142857142857" y="418.85714285714283" type="line"/>
      <point x="404.7142857142857" y="456.85714285714283" type="line"/>
      <point x="72.57142857142857" y="125.42857142857143" type="line"/>
    </contour>
    <contour>
      <point x="404.7142857142857" y="87.42857142857143" type="line"/>
      <point x="441.7142857142857" y="125.42857142857143" type="line"/>
      <point x="109.57142857142857" y="456.85714285714283" type="line"/>
      <point x="72.57142857142857" y="418.85714285714283" type="line"/>
    </contour>
  </outline>
</glyph>
<glyph name="Thorn" format="2">
  <advance width="648.7142857142857"/>
  <unicode hex="00DE"/>
  <outline>
    <contour>
      <point x="60.0" y="0.0" type="line"/>
      <point x="326.85714285714283" y="0.0" type="line"/>
      <point x="326.85714285714283" y="16.0" type="line"/>
      <point x="245.57142857142856" y="56.285714285714285" type="line"/>
      <point x="245.57142857142856" y="603.7142857142857" type="line"/>
      <point x="326.85714285714283" y="644.0" type="line"/>
      <point x="326.85714285714283" y="660.0" type="line"/>
      <point x="60.0" y="660.0" type="line"/>
      <point x="60.0" y="644.0" type="line"/>
      <point x="141.28571428571428" y="603.7142857142857" type="line"/>
      <point x="141.28571428571428" y="56.285714285714285" type="line"/>
      <point x="60.0" y="16.0" type="line"/>
    </contour>
    <contour>
      <point x="316.2857142857143" y="169.71428571428572" type="line" smooth="yes"/>
      <point x="479.2857142857143" y="169.71428571428572"/>
      <point x="601.2857142857142" y="249.42857142857142"/>
      <point x="601.2857142857142" y="359.2857142857143" type="curve" smooth="yes"/>
      <point x="601.2857142857142" y="483.2857142857143"/>
      <point x="497.2857142857143" y="538.0"/>
      <point x="340.2857142857143" y="538.0" type="curve" smooth="yes"/>
      <point x="227.42857142857144" y="538.0" type="line"/>
      <point x="227.42857142857144" y="483.0" type="line"/>
      <point x="315.0" y="483.0" type="line" smooth="yes"/>
      <point x="428.0" y="483.0"/>
      <point x="491.0" y="444.0"/>
      <point x="491.0" y="351.0" type="curve" smooth="yes"/>
      <point x="491.0" y="276.0"/>
      <point x="427.0" y="223.28571428571428"/>
      <point x="322.0" y="223.28571428571428" type="curve" smooth="yes"/>
      <point x="220.57142857142856" y="223.28571428571428" type="line"/>
      <point x="220.57142857142856" y="169.71428571428572" type="line"/>
    </contour>
  </outline>
</glyph>
